<?xml version="1.0" encoding="UTF-8" standalone="no"?>
<svg
   xmlns:ooo="http://xml.openoffice.org/svg/export"
   xmlns:dc="http://purl.org/dc/elements/1.1/"
   xmlns:cc="http://creativecommons.org/ns#"
   xmlns:rdf="http://www.w3.org/1999/02/22-rdf-syntax-ns#"
   xmlns:svg="http://www.w3.org/2000/svg"
   xmlns="http://www.w3.org/2000/svg"
   xmlns:sodipodi="http://sodipodi.sourceforge.net/DTD/sodipodi-0.dtd"
   xmlns:inkscape="http://www.inkscape.org/namespaces/inkscape"
   version="1.2"
   width="116.24mm"
   height="89.389999mm"
   viewBox="0 0 11624 8938.9999"
   preserveAspectRatio="xMidYMid"
   xml:space="preserve"
   id="svg277"
   sodipodi:docname="comp1.svg"
   style="fill-rule:evenodd;stroke-width:28.22200012;stroke-linejoin:round"
   inkscape:version="0.92.5 (2060ec1f9f, 2020-04-08)"><metadata
   id="metadata281"><rdf:RDF><cc:Work
       rdf:about=""><dc:format>image/svg+xml</dc:format><dc:type
         rdf:resource="http://purl.org/dc/dcmitype/StillImage" /></cc:Work></rdf:RDF></metadata><sodipodi:namedview
   pagecolor="#ffffff"
   bordercolor="#666666"
   borderopacity="1"
   objecttolerance="10"
   gridtolerance="10"
   guidetolerance="10"
   inkscape:pageopacity="0"
   inkscape:pageshadow="2"
   inkscape:window-width="664"
   inkscape:window-height="487"
   id="namedview279"
   showgrid="false"
   inkscape:zoom="0.2102413"
   inkscape:cx="219.66614"
   inkscape:cy="168.90708"
   inkscape:window-x="0"
   inkscape:window-y="0"
   inkscape:window-maximized="0"
   inkscape:current-layer="svg277" />
 <defs
   class="ClipPathGroup"
   id="defs8">
  <clipPath
   id="presentation_clip_path"
   clipPathUnits="userSpaceOnUse">
   <rect
   x="0"
   y="0"
   width="21000"
   height="29700"
   id="rect2" />
  </clipPath>
  <clipPath
   id="presentation_clip_path_shrink"
   clipPathUnits="userSpaceOnUse">
   <rect
   x="21"
   y="29"
   width="20958"
   height="29641"
   id="rect5" />
  </clipPath>
 </defs>
 <defs
   class="TextShapeIndex"
   id="defs12">
  <g
   ooo:slide="id1"
   ooo:id-list="id3"
   id="g10" />
 </defs>
 <defs
   class="EmbeddedBulletChars"
   id="defs44">
  <g
   id="bullet-char-template-57356"
   transform="matrix(4.8828125e-4,0,0,-4.8828125e-4,0,0)">
   <path
   d="M 580,1141 1163,571 580,0 -4,571 Z"
   id="path14"
   inkscape:connector-curvature="0" />
  </g>
  <g
   id="bullet-char-template-57354"
   transform="matrix(4.8828125e-4,0,0,-4.8828125e-4,0,0)">
   <path
   d="M 8,1128 H 1137 V 0 H 8 Z"
   id="path17"
   inkscape:connector-curvature="0" />
  </g>
  <g
   id="bullet-char-template-10146"
   transform="matrix(4.8828125e-4,0,0,-4.8828125e-4,0,0)">
   <path
   d="M 174,0 602,739 174,1481 1456,739 Z M 1358,739 309,1346 659,739 Z"
   id="path20"
   inkscape:connector-curvature="0" />
  </g>
  <g
   id="bullet-char-template-10132"
   transform="matrix(4.8828125e-4,0,0,-4.8828125e-4,0,0)">
   <path
   d="M 2015,739 1276,0 H 717 l 543,543 H 174 v 393 h 1086 l -543,545 h 557 z"
   id="path23"
   inkscape:connector-curvature="0" />
  </g>
  <g
   id="bullet-char-template-10007"
   transform="matrix(4.8828125e-4,0,0,-4.8828125e-4,0,0)">
   <path
   d="m 0,-2 c -7,16 -16,29 -25,39 l 381,530 c -94,256 -141,385 -141,387 0,25 13,38 40,38 9,0 21,-2 34,-5 21,4 42,12 65,25 l 27,-13 111,-251 280,301 64,-25 24,25 c 21,-10 41,-24 62,-43 C 886,937 835,863 770,784 769,783 710,716 594,584 L 774,223 c 0,-27 -21,-55 -63,-84 l 16,-20 C 717,90 699,76 672,76 641,76 570,178 457,381 L 164,-76 c -22,-34 -53,-51 -92,-51 -42,0 -63,17 -64,51 -7,9 -10,24 -10,44 0,9 1,19 2,30 z"
   id="path26"
   inkscape:connector-curvature="0" />
  </g>
  <g
   id="bullet-char-template-10004"
   transform="matrix(4.8828125e-4,0,0,-4.8828125e-4,0,0)">
   <path
   d="M 285,-33 C 182,-33 111,30 74,156 52,228 41,333 41,471 c 0,78 14,145 41,201 34,71 87,106 158,106 53,0 88,-31 106,-94 l 23,-176 c 8,-64 28,-97 59,-98 l 735,706 c 11,11 33,17 66,17 42,0 63,-15 63,-46 V 965 c 0,-36 -10,-64 -30,-84 L 442,47 C 390,-6 338,-33 285,-33 Z"
   id="path29"
   inkscape:connector-curvature="0" />
  </g>
  <g
   id="bullet-char-template-9679"
   transform="matrix(4.8828125e-4,0,0,-4.8828125e-4,0,0)">
   <path
   d="M 813,0 C 632,0 489,54 383,161 276,268 223,411 223,592 c 0,181 53,324 160,431 106,107 249,161 430,161 179,0 323,-54 432,-161 108,-107 162,-251 162,-431 0,-180 -54,-324 -162,-431 C 1136,54 992,0 813,0 Z"
   id="path32"
   inkscape:connector-curvature="0" />
  </g>
  <g
   id="bullet-char-template-8226"
   transform="matrix(4.8828125e-4,0,0,-4.8828125e-4,0,0)">
   <path
   d="m 346,457 c -73,0 -137,26 -191,78 -54,51 -81,114 -81,188 0,73 27,136 81,188 54,52 118,78 191,78 73,0 134,-26 185,-79 51,-51 77,-114 77,-187 0,-75 -25,-137 -76,-188 -50,-52 -112,-78 -186,-78 z"
   id="path35"
   inkscape:connector-curvature="0" />
  </g>
  <g
   id="bullet-char-template-8211"
   transform="matrix(4.8828125e-4,0,0,-4.8828125e-4,0,0)">
   <path
   d="M -4,459 H 1135 V 606 H -4 Z"
   id="path38"
   inkscape:connector-curvature="0" />
  </g>
  <g
   id="bullet-char-template-61548"
   transform="matrix(4.8828125e-4,0,0,-4.8828125e-4,0,0)">
   <path
   d="m 173,740 c 0,163 58,303 173,419 116,115 255,173 419,173 163,0 302,-58 418,-173 116,-116 174,-256 174,-419 0,-163 -58,-303 -174,-418 C 1067,206 928,148 765,148 601,148 462,206 346,322 231,437 173,577 173,740 Z"
   id="path41"
   inkscape:connector-curvature="0" />
  </g>
 </defs>
 <g
   id="g49"
   transform="translate(-4688,-10380)">
  <g
   id="id2"
   class="Master_Slide">
   <g
   id="bg-id2"
   class="Background" />
   <g
   id="bo-id2"
   class="BackgroundObjects" />
  </g>
 </g>
 <g
   class="SlideGroup"
   id="g275"
   transform="translate(-4688,-10380)">
  <g
   id="g273">
   <g
   id="container-id1">
    <g
   id="id1"
   class="Slide"
   clip-path="url(#presentation_clip_path)">
     <g
   class="Page"
   id="g269">
      <g
   class="Graphic"
   id="g267">
       <g
   id="id3">
        <rect
   class="BoundingBox"
   x="4688"
   y="10380"
   width="11624"
   height="8939"
   id="rect51"
   style="fill:none;stroke:none" />
        <defs
   id="defs56">
         <clipPath
   id="clip_path_1"
   clipPathUnits="userSpaceOnUse">
          <path
   d="m 4692,10398 h 11597 v 8920 H 4692 Z"
   id="path53"
   inkscape:connector-curvature="0" />
         </clipPath>
        </defs>
        <g
   clip-path="url(#clip_path_1)"
   id="g264">
         <path
   d="m 5914,17210 h -251 l -146,18 -136,22 -168,31 -132,35 -89,31 -61,35 -49,35 -35,44 -22,49 4,53 31,44 40,27 79,13 h 93 l 97,-9 123,-13 119,9 84,13 89,22 92,40 260,163 h -13 l 5,-13"
   id="path58"
   inkscape:connector-curvature="0"
   style="fill:none;stroke:#808080;stroke-width:141;stroke-linecap:round;stroke-linejoin:round" />
         <path
   d="m 5839,16976 v 675 l 7217,764 1672,-936 v -596 l -1733,808 z"
   id="path60"
   inkscape:connector-curvature="0"
   style="fill:#9f9f9f;stroke:none" />
         <path
   d="m 5778,15344 7248,520 v 1845 l -7248,-706 z"
   id="path62"
   inkscape:connector-curvature="0"
   style="fill:#c0c0c0;stroke:none" />
         <path
   d="m 5800,15772 7221,547"
   id="path64"
   inkscape:connector-curvature="0"
   style="fill:none;stroke:#000000;stroke-width:35;stroke-linecap:round;stroke-linejoin:round" />
         <path
   d="m 11098,16213 1513,128"
   id="path66"
   inkscape:connector-curvature="0"
   style="fill:none;stroke:#000000;stroke-width:71;stroke-linecap:round;stroke-linejoin:round" />
         <path
   d="m 9324,16080 1522,124"
   id="path68"
   inkscape:connector-curvature="0"
   style="fill:none;stroke:#000000;stroke-width:71;stroke-linecap:round;stroke-linejoin:round" />
         <path
   d="m 5800,16085 7230,626"
   id="path70"
   inkscape:connector-curvature="0"
   style="fill:none;stroke:#000000;stroke-width:35;stroke-linecap:round;stroke-linejoin:round" />
         <path
   d="m 5778,15344 7243,520 1729,-494 -608,-66 -5603,-282 z"
   id="path72"
   inkscape:connector-curvature="0"
   style="fill:#dfdfdf;stroke:none" />
         <path
   d="m 8354,15198 -534,199 5320,339 869,-238 -70,-35 476,-133 -295,-26 z"
   id="path74"
   inkscape:connector-curvature="0"
   style="fill:#5f5f5f;stroke:none" />
         <path
   d="m 13828,11152 905,353 -84,1677 -97,2016 -816,247 z"
   id="path76"
   inkscape:connector-curvature="0"
   style="fill:#9f9f9f;stroke:none" />
         <path
   d="m 13833,11337 882,331"
   id="path78"
   inkscape:connector-curvature="0"
   style="fill:none;stroke:#7f7f7f;stroke-width:35;stroke-linecap:round;stroke-linejoin:round" />
         <path
   d="m 13820,11523 882,309"
   id="path80"
   inkscape:connector-curvature="0"
   style="fill:none;stroke:#7f7f7f;stroke-width:35;stroke-linecap:round;stroke-linejoin:round" />
         <path
   d="m 13824,11712 878,287"
   id="path82"
   inkscape:connector-curvature="0"
   style="fill:none;stroke:#7f7f7f;stroke-width:35;stroke-linecap:round;stroke-linejoin:round" />
         <path
   d="m 13820,11902 877,265"
   id="path84"
   inkscape:connector-curvature="0"
   style="fill:none;stroke:#7f7f7f;stroke-width:35;stroke-linecap:round;stroke-linejoin:round" />
         <path
   d="m 13806,12083 878,252"
   id="path86"
   inkscape:connector-curvature="0"
   style="fill:none;stroke:#7f7f7f;stroke-width:35;stroke-linecap:round;stroke-linejoin:round" />
         <path
   d="m 13806,12273 869,220"
   id="path88"
   inkscape:connector-curvature="0"
   style="fill:none;stroke:#7f7f7f;stroke-width:35;stroke-linecap:round;stroke-linejoin:round" />
         <path
   d="m 13731,12652 913,177"
   id="path90"
   inkscape:connector-curvature="0"
   style="fill:none;stroke:#7f7f7f;stroke-width:35;stroke-linecap:round;stroke-linejoin:round" />
         <path
   d="m 13740,12833 900,150"
   id="path92"
   inkscape:connector-curvature="0"
   style="fill:none;stroke:#7f7f7f;stroke-width:35;stroke-linecap:round;stroke-linejoin:round" />
         <path
   d="m 13736,13027 895,133"
   id="path94"
   inkscape:connector-curvature="0"
   style="fill:none;stroke:#7f7f7f;stroke-width:35;stroke-linecap:round;stroke-linejoin:round" />
         <path
   d="m 13740,13221 887,102"
   id="path96"
   inkscape:connector-curvature="0"
   style="fill:none;stroke:#7f7f7f;stroke-width:35;stroke-linecap:round;stroke-linejoin:round" />
         <path
   d="m 13749,13416 878,79"
   id="path98"
   inkscape:connector-curvature="0"
   style="fill:none;stroke:#7f7f7f;stroke-width:35;stroke-linecap:round;stroke-linejoin:round" />
         <path
   d="m 13749,13614 860,53"
   id="path100"
   inkscape:connector-curvature="0"
   style="fill:none;stroke:#7f7f7f;stroke-width:35;stroke-linecap:round;stroke-linejoin:round" />
         <path
   d="m 13762,13799 834,27"
   id="path102"
   inkscape:connector-curvature="0"
   style="fill:none;stroke:#7f7f7f;stroke-width:35;stroke-linecap:round;stroke-linejoin:round" />
         <path
   d="m 13749,13998 h 838"
   id="path104"
   inkscape:connector-curvature="0"
   style="fill:none;stroke:#7f7f7f;stroke-width:35;stroke-linecap:round;stroke-linejoin:round" />
         <path
   d="m 13749,14183 834,-13"
   id="path106"
   inkscape:connector-curvature="0"
   style="fill:none;stroke:#7f7f7f;stroke-width:35;stroke-linecap:round;stroke-linejoin:round" />
         <path
   d="m 13749,14373 821,-40"
   id="path108"
   inkscape:connector-curvature="0"
   style="fill:none;stroke:#7f7f7f;stroke-width:35;stroke-linecap:round;stroke-linejoin:round" />
         <path
   d="m 13749,14567 821,-66"
   id="path110"
   inkscape:connector-curvature="0"
   style="fill:none;stroke:#7f7f7f;stroke-width:35;stroke-linecap:round;stroke-linejoin:round" />
         <path
   d="m 13740,14752 821,-92"
   id="path112"
   inkscape:connector-curvature="0"
   style="fill:none;stroke:#7f7f7f;stroke-width:35;stroke-linecap:round;stroke-linejoin:round" />
         <path
   d="m 13749,14942 798,-110"
   id="path114"
   inkscape:connector-curvature="0"
   style="fill:none;stroke:#7f7f7f;stroke-width:35;stroke-linecap:round;stroke-linejoin:round" />
         <path
   d="m 13780,12467 882,194"
   id="path116"
   inkscape:connector-curvature="0"
   style="fill:none;stroke:#7f7f7f;stroke-width:35;stroke-linecap:round;stroke-linejoin:round" />
         <path
   d="m 13299,10499 618,265 48,57 -185,4598 -80,57 -608,150 79,-84 5,-62 z"
   id="path118"
   inkscape:connector-curvature="0"
   style="fill:#bfbfbf;stroke:none" />
         <path
   d="m 13896,10858 76,-1 v -5 l -1,-5 v -5 l -1,-6 -1,-5 -1,-5 -1,-4 -2,-5 -2,-5 -2,-4 -2,-5 -2,-4 -2,-4 -3,-4 -3,-4 -3,-3 -3,-4 -3,-3 -3,-3 -4,-2 -3,-3 -4,-2 -4,-2 -3,-2 -4,-1 -4,-1 -4,-1 -4,-1 h -4 z"
   id="path120"
   inkscape:connector-curvature="0"
   style="fill:#bfbfbf;stroke:none" />
         <path
   d="m 13436,18220 516,36 384,17 344,36 344,44 243,35 291,49 167,30 124,27 70,18 58,13 66,22 70,26 67,36 31,39 4,31 -13,49 -22,48 -36,44 -44,31 -62,40 -66,26 -75,9 -83,14 -102,4 -97,-9 -154,-22"
   id="path122"
   inkscape:connector-curvature="0"
   style="fill:none;stroke:#c0c0c0;stroke-width:71;stroke-linecap:round;stroke-linejoin:round" />
         <path
   d="m 13546,18873 318,-291 895,163 -353,323 z"
   id="path124"
   inkscape:connector-curvature="0"
   style="fill:#dfdfdf;stroke:none" />
         <path
   d="m 13550,18873 v 256 h 9 l 852,203 v -264 z"
   id="path126"
   inkscape:connector-curvature="0"
   style="fill:#c0c0c0;stroke:none" />
         <path
   d="m 14411,19063 348,-318 746,84 v 243 l -1094,260 z"
   id="path128"
   inkscape:connector-curvature="0"
   style="fill:#9f9f9f;stroke:none" />
         <path
   d="m 13864,18582 820,58 821,185 -746,-80 z"
   id="path130"
   inkscape:connector-curvature="0"
   style="fill:#7f7f7f;stroke:none" />
         <path
   d="m 13555,18931 860,194"
   id="path132"
   inkscape:connector-curvature="0"
   style="fill:none;stroke:#7f7f7f;stroke-width:35;stroke-linecap:round;stroke-linejoin:round" />
         <path
   d="m 14420,19125 357,-318"
   id="path134"
   inkscape:connector-curvature="0"
   style="fill:none;stroke:#5f5f5f;stroke-width:35;stroke-linecap:round;stroke-linejoin:round" />
         <path
   d="m 14786,18807 705,58"
   id="path136"
   inkscape:connector-curvature="0"
   style="fill:none;stroke:#5f5f5f;stroke-width:35;stroke-linecap:round;stroke-linejoin:round" />
         <path
   d="m 13039,17638 1685,-790 v 636 l -1685,939 z"
   id="path138"
   inkscape:connector-curvature="0"
   style="fill:#5f5f5f;stroke:none" />
         <path
   d="m 13021,15864 1738,-494 v 1540 l -1733,790 z"
   id="path140"
   inkscape:connector-curvature="0"
   style="fill:#bfbfbf;stroke:none" />
         <path
   d="m 8491,11209 h 4120 l -168,3561 -4124,-203 z"
   id="path142"
   inkscape:connector-curvature="0"
   style="fill:#c0c0c0;stroke:none" />
         <path
   d="m 6819,17188 6696,662 -472,595 -459,367 -7067,-812 530,-230 z"
   id="path144"
   inkscape:connector-curvature="0"
   style="fill:#dfdfdf;stroke:none" />
         <path
   d="m 13021,16711 1721,-622"
   id="path146"
   inkscape:connector-curvature="0"
   style="fill:none;stroke:#808080;stroke-width:35;stroke-linecap:round;stroke-linejoin:round" />
         <path
   d="m 13321,16817 1412,-551"
   id="path148"
   inkscape:connector-curvature="0"
   style="fill:none;stroke:#808080;stroke-width:35;stroke-linecap:round;stroke-linejoin:round" />
         <path
   d="m 13317,17020 1416,-582"
   id="path150"
   inkscape:connector-curvature="0"
   style="fill:none;stroke:#808080;stroke-width:35;stroke-linecap:round;stroke-linejoin:round" />
         <path
   d="m 13321,17206 1421,-600"
   id="path152"
   inkscape:connector-curvature="0"
   style="fill:none;stroke:#808080;stroke-width:35;stroke-linecap:round;stroke-linejoin:round" />
         <path
   d="m 13321,17409 1421,-636"
   id="path154"
   inkscape:connector-curvature="0"
   style="fill:none;stroke:#808080;stroke-width:35;stroke-linecap:round;stroke-linejoin:round" />
         <path
   d="m 13317,16398 1420,-490"
   id="path156"
   inkscape:connector-curvature="0"
   style="fill:none;stroke:#808080;stroke-width:35;stroke-linecap:round;stroke-linejoin:round" />
         <path
   d="m 13325,16169 1412,-441"
   id="path158"
   inkscape:connector-curvature="0"
   style="fill:none;stroke:#808080;stroke-width:35;stroke-linecap:round;stroke-linejoin:round" />
         <path
   d="m 13317,15944 1416,-424"
   id="path160"
   inkscape:connector-curvature="0"
   style="fill:none;stroke:#808080;stroke-width:35;stroke-linecap:round;stroke-linejoin:round" />
         <path
   d="m 13321,15798 -4,1761"
   id="path162"
   inkscape:connector-curvature="0"
   style="fill:none;stroke:#808080;stroke-width:35;stroke-linecap:round;stroke-linejoin:round" />
         <path
   d="m 8182,10486 485,-27 657,-44 684,-17 h 803 l 565,8 864,31 838,44 199,9 44,18 31,22 26,40 5,44 -212,4919 -26,75 -67,22 -1826,-123 -1791,-128 -1645,-119 -84,-128 251,-4487 z"
   id="path164"
   inkscape:connector-curvature="0"
   style="fill:#c0c0c0;stroke:none" />
         <path
   d="m 13239,10602 147,-1 v -6 l -1,-6 -1,-5 -1,-6 -2,-5 -2,-6 -3,-5 -3,-6 -3,-5 -4,-5 -4,-5 -4,-5 -4,-4 -5,-5 -5,-4 -6,-4 -6,-4 -6,-3 -6,-3 -6,-3 -7,-3 -7,-3 -6,-2 -8,-2 -7,-2 -7,-1 -7,-1 -8,-1 -7,-1 h -8 z"
   id="path166"
   inkscape:connector-curvature="0"
   style="fill:#c0c0c0;stroke:none" />
         <path
   d="m 8258,10699 -1,-213 h -15 l -14,1 -14,2 -15,2 -14,2 -14,4 -13,3 -14,5 -13,4 -13,6 -12,5 -12,7 -12,6 -11,8 -10,7 -10,8 -10,9 -8,9 -9,9 -7,9 -7,10 -7,10 -5,10 -5,11 -4,10 -4,11 -2,11 -2,11 -2,11 v 11 z"
   id="path168"
   inkscape:connector-curvature="0"
   style="fill:#c0c0c0;stroke:none" />
         <path
   d="m 7848,15111 -116,3 v 8 l 1,8 1,8 1,8 1,8 2,7 2,8 3,7 2,7 3,7 3,7 4,7 3,6 4,6 4,6 5,5 4,6 5,4 5,5 5,4 5,4 6,3 5,4 6,2 6,3 5,1 6,2 6,1 6,1 h 6 z"
   id="path170"
   inkscape:connector-curvature="0"
   style="fill:#c0c0c0;stroke:none" />
         <path
   d="m 8495,11205 4116,4 -93,71 H 8583 Z"
   id="path172"
   inkscape:connector-curvature="0"
   style="fill:#808080;stroke:none" />
         <path
   d="m 12523,11276 97,-71 -93,1933 -84,1628 -88,-102 z"
   id="path174"
   inkscape:connector-curvature="0"
   style="fill:#ffffff;stroke:none" />
         <path
   d="m 8420,14474 -97,93 4120,199 -88,-97 z"
   id="path176"
   inkscape:connector-curvature="0"
   style="fill:#dfdfdf;stroke:none" />
         <path
   d="m 8495,11209 88,71 -163,3194 -97,93 z"
   id="path178"
   inkscape:connector-curvature="0"
   style="fill:#bfbfbf;stroke:none" />
         <path
   d="m 8583,11280 h 3935 l -163,3389 -3939,-195 z"
   id="path180"
   inkscape:connector-curvature="0"
   style="fill:#000000;stroke:none" />
         <path
   d="m 8698,11417 3683,-5 -158,3133 -3666,-159 z"
   id="path182"
   inkscape:connector-curvature="0"
   style="fill:#c0c0c0;stroke:none" />
         <path
   d="m 8751,11598 h 3476 l -146,2824 -3462,-142 z"
   id="path184"
   inkscape:connector-curvature="0"
   style="fill:#0000ff;stroke:none" />
         <path
   d="m 12267,15202 238,5 v 79 l -238,-13 z"
   id="path186"
   inkscape:connector-curvature="0"
   style="fill:#008000;stroke:none" />
         <path
   d="m 11773,17828 -450,463 -291,199 1257,132 291,-252 371,-436 z"
   id="path188"
   inkscape:connector-curvature="0"
   style="fill:#808080;stroke:none" />
         <path
   d="m 5522,18000 v 282 l 7067,812 -5,-287 z"
   id="path190"
   inkscape:connector-curvature="0"
   style="fill:#c0c0c0;stroke:none" />
         <path
   d="m 12584,18812 v 282 l 406,-287 163,-167 362,-437 v -353 l -472,591 z"
   id="path192"
   inkscape:connector-curvature="0"
   style="fill:#5f5f5f;stroke:none" />
         <path
   d="m 5535,18092 7063,790"
   id="path194"
   inkscape:connector-curvature="0"
   style="fill:none;stroke:#7f7f7f;stroke-width:35;stroke-linecap:round;stroke-linejoin:round" />
         <path
   d="m 6885,17338 -622,476 -278,146 4438,463 317,-211 477,-437 z"
   id="path196"
   inkscape:connector-curvature="0"
   style="fill:#808080;stroke:none" />
         <path
   d="m 6223,18026 331,-172"
   id="path198"
   inkscape:connector-curvature="0"
   style="fill:none;stroke:#dfdfdf;stroke-width:35;stroke-linecap:round;stroke-linejoin:round" />
         <path
   d="m 6554,17854 688,-569"
   id="path200"
   inkscape:connector-curvature="0"
   style="fill:none;stroke:#dfdfdf;stroke-width:35;stroke-linecap:round;stroke-linejoin:round" />
         <path
   d="m 6620,18066 331,-172"
   id="path202"
   inkscape:connector-curvature="0"
   style="fill:none;stroke:#dfdfdf;stroke-width:35;stroke-linecap:round;stroke-linejoin:round" />
         <path
   d="m 6951,17894 693,-569"
   id="path204"
   inkscape:connector-curvature="0"
   style="fill:none;stroke:#dfdfdf;stroke-width:35;stroke-linecap:round;stroke-linejoin:round" />
         <path
   d="m 7030,18092 331,-172"
   id="path206"
   inkscape:connector-curvature="0"
   style="fill:none;stroke:#dfdfdf;stroke-width:35;stroke-linecap:round;stroke-linejoin:round" />
         <path
   d="m 7361,17920 693,-569"
   id="path208"
   inkscape:connector-curvature="0"
   style="fill:none;stroke:#dfdfdf;stroke-width:35;stroke-linecap:round;stroke-linejoin:round" />
         <path
   d="m 7401,18145 335,-172"
   id="path210"
   inkscape:connector-curvature="0"
   style="fill:none;stroke:#dfdfdf;stroke-width:35;stroke-linecap:round;stroke-linejoin:round" />
         <path
   d="m 7736,17973 688,-569"
   id="path212"
   inkscape:connector-curvature="0"
   style="fill:none;stroke:#dfdfdf;stroke-width:35;stroke-linecap:round;stroke-linejoin:round" />
         <path
   d="m 7816,18172 331,-172"
   id="path214"
   inkscape:connector-curvature="0"
   style="fill:none;stroke:#dfdfdf;stroke-width:35;stroke-linecap:round;stroke-linejoin:round" />
         <path
   d="m 8147,18000 688,-569"
   id="path216"
   inkscape:connector-curvature="0"
   style="fill:none;stroke:#dfdfdf;stroke-width:35;stroke-linecap:round;stroke-linejoin:round" />
         <path
   d="m 8199,18198 331,-172"
   id="path218"
   inkscape:connector-curvature="0"
   style="fill:none;stroke:#dfdfdf;stroke-width:35;stroke-linecap:round;stroke-linejoin:round" />
         <path
   d="m 8530,18026 688,-569"
   id="path220"
   inkscape:connector-curvature="0"
   style="fill:none;stroke:#dfdfdf;stroke-width:35;stroke-linecap:round;stroke-linejoin:round" />
         <path
   d="m 8583,18238 331,-172"
   id="path222"
   inkscape:connector-curvature="0"
   style="fill:none;stroke:#dfdfdf;stroke-width:35;stroke-linecap:round;stroke-linejoin:round" />
         <path
   d="m 8914,18066 688,-569"
   id="path224"
   inkscape:connector-curvature="0"
   style="fill:none;stroke:#dfdfdf;stroke-width:35;stroke-linecap:round;stroke-linejoin:round" />
         <path
   d="m 8941,18291 330,-172"
   id="path226"
   inkscape:connector-curvature="0"
   style="fill:none;stroke:#dfdfdf;stroke-width:35;stroke-linecap:round;stroke-linejoin:round" />
         <path
   d="m 9271,18119 689,-569"
   id="path228"
   inkscape:connector-curvature="0"
   style="fill:none;stroke:#dfdfdf;stroke-width:35;stroke-linecap:round;stroke-linejoin:round" />
         <path
   d="m 9324,18344 331,-172"
   id="path230"
   inkscape:connector-curvature="0"
   style="fill:none;stroke:#dfdfdf;stroke-width:35;stroke-linecap:round;stroke-linejoin:round" />
         <path
   d="m 9655,18172 688,-569"
   id="path232"
   inkscape:connector-curvature="0"
   style="fill:none;stroke:#dfdfdf;stroke-width:35;stroke-linecap:round;stroke-linejoin:round" />
         <path
   d="m 9708,18370 331,-172"
   id="path234"
   inkscape:connector-curvature="0"
   style="fill:none;stroke:#dfdfdf;stroke-width:35;stroke-linecap:round;stroke-linejoin:round" />
         <path
   d="m 10039,18198 688,-569"
   id="path236"
   inkscape:connector-curvature="0"
   style="fill:none;stroke:#dfdfdf;stroke-width:35;stroke-linecap:round;stroke-linejoin:round" />
         <path
   d="m 10079,18397 331,-172"
   id="path238"
   inkscape:connector-curvature="0"
   style="fill:none;stroke:#dfdfdf;stroke-width:35;stroke-linecap:round;stroke-linejoin:round" />
         <path
   d="m 10410,18225 688,-569"
   id="path240"
   inkscape:connector-curvature="0"
   style="fill:none;stroke:#dfdfdf;stroke-width:35;stroke-linecap:round;stroke-linejoin:round" />
         <path
   d="m 11879,18635 291,-212"
   id="path242"
   inkscape:connector-curvature="0"
   style="fill:none;stroke:#dfdfdf;stroke-width:35;stroke-linecap:round;stroke-linejoin:round" />
         <path
   d="m 12170,18423 569,-595"
   id="path244"
   inkscape:connector-curvature="0"
   style="fill:none;stroke:#dfdfdf;stroke-width:35;stroke-linecap:round;stroke-linejoin:round" />
         <path
   d="m 11574,18609 291,-212"
   id="path246"
   inkscape:connector-curvature="0"
   style="fill:none;stroke:#dfdfdf;stroke-width:35;stroke-linecap:round;stroke-linejoin:round" />
         <path
   d="m 11865,18397 583,-609"
   id="path248"
   inkscape:connector-curvature="0"
   style="fill:none;stroke:#dfdfdf;stroke-width:35;stroke-linecap:round;stroke-linejoin:round" />
         <path
   d="m 11270,18569 291,-212"
   id="path250"
   inkscape:connector-curvature="0"
   style="fill:none;stroke:#dfdfdf;stroke-width:35;stroke-linecap:round;stroke-linejoin:round" />
         <path
   d="m 11561,18357 556,-582"
   id="path252"
   inkscape:connector-curvature="0"
   style="fill:none;stroke:#dfdfdf;stroke-width:35;stroke-linecap:round;stroke-linejoin:round" />
         <path
   d="m 6580,17510 6212,596"
   id="path254"
   inkscape:connector-curvature="0"
   style="fill:none;stroke:#dfdfdf;stroke-width:35;stroke-linecap:round;stroke-linejoin:round" />
         <path
   d="m 6356,17669 6330,609"
   id="path256"
   inkscape:connector-curvature="0"
   style="fill:none;stroke:#dfdfdf;stroke-width:35;stroke-linecap:round;stroke-linejoin:round" />
         <path
   d="m 6117,17828 6397,662"
   id="path258"
   inkscape:connector-curvature="0"
   style="fill:none;stroke:#dfdfdf;stroke-width:71;stroke-linecap:round;stroke-linejoin:round" />
         <path
   d="m 12593,18891 477,-401"
   id="path260"
   inkscape:connector-curvature="0"
   style="fill:none;stroke:#3f3f3f;stroke-width:35;stroke-linecap:round;stroke-linejoin:round" />
         <path
   d="m 13074,18490 432,-539"
   id="path262"
   inkscape:connector-curvature="0"
   style="fill:none;stroke:#3f3f3f;stroke-width:35;stroke-linecap:round;stroke-linejoin:round" />
        </g>
       </g>
      </g>
     </g>
    </g>
   </g>
  </g>
 </g>
</svg>