<?xml version="1.0" encoding="UTF-8" standalone="no"?>
<svg
   xmlns:ooo="http://xml.openoffice.org/svg/export"
   xmlns:dc="http://purl.org/dc/elements/1.1/"
   xmlns:cc="http://creativecommons.org/ns#"
   xmlns:rdf="http://www.w3.org/1999/02/22-rdf-syntax-ns#"
   xmlns:svg="http://www.w3.org/2000/svg"
   xmlns="http://www.w3.org/2000/svg"
   xmlns:sodipodi="http://sodipodi.sourceforge.net/DTD/sodipodi-0.dtd"
   xmlns:inkscape="http://www.inkscape.org/namespaces/inkscape"
   version="1.2"
   width="181.02mm"
   height="128.75999mm"
   viewBox="0 0 18102 12875.999"
   preserveAspectRatio="xMidYMid"
   xml:space="preserve"
   id="svg193"
   sodipodi:docname="lady6.svg"
   style="fill-rule:evenodd;stroke-width:28.22200012;stroke-linejoin:round"
   inkscape:version="0.92.5 (2060ec1f9f, 2020-04-08)"><metadata
   id="metadata197"><rdf:RDF><cc:Work
       rdf:about=""><dc:format>image/svg+xml</dc:format><dc:type
         rdf:resource="http://purl.org/dc/dcmitype/StillImage" /></cc:Work></rdf:RDF></metadata><sodipodi:namedview
   pagecolor="#ffffff"
   bordercolor="#666666"
   borderopacity="1"
   objecttolerance="10"
   gridtolerance="10"
   guidetolerance="10"
   inkscape:pageopacity="0"
   inkscape:pageshadow="2"
   inkscape:window-width="664"
   inkscape:window-height="487"
   id="namedview195"
   showgrid="false"
   inkscape:zoom="0.2102413"
   inkscape:cx="342.08504"
   inkscape:cy="243.32598"
   inkscape:window-x="0"
   inkscape:window-y="0"
   inkscape:window-maximized="0"
   inkscape:current-layer="svg193" />
 <defs
   class="ClipPathGroup"
   id="defs8">
  <clipPath
   id="presentation_clip_path"
   clipPathUnits="userSpaceOnUse">
   <rect
   x="0"
   y="0"
   width="21000"
   height="29700"
   id="rect2" />
  </clipPath>
  <clipPath
   id="presentation_clip_path_shrink"
   clipPathUnits="userSpaceOnUse">
   <rect
   x="21"
   y="29"
   width="20958"
   height="29641"
   id="rect5" />
  </clipPath>
 </defs>
 <defs
   class="TextShapeIndex"
   id="defs12">
  <g
   ooo:slide="id1"
   ooo:id-list="id3"
   id="g10" />
 </defs>
 <defs
   class="EmbeddedBulletChars"
   id="defs44">
  <g
   id="bullet-char-template-57356"
   transform="matrix(4.8828125e-4,0,0,-4.8828125e-4,0,0)">
   <path
   d="M 580,1141 1163,571 580,0 -4,571 Z"
   id="path14"
   inkscape:connector-curvature="0" />
  </g>
  <g
   id="bullet-char-template-57354"
   transform="matrix(4.8828125e-4,0,0,-4.8828125e-4,0,0)">
   <path
   d="M 8,1128 H 1137 V 0 H 8 Z"
   id="path17"
   inkscape:connector-curvature="0" />
  </g>
  <g
   id="bullet-char-template-10146"
   transform="matrix(4.8828125e-4,0,0,-4.8828125e-4,0,0)">
   <path
   d="M 174,0 602,739 174,1481 1456,739 Z M 1358,739 309,1346 659,739 Z"
   id="path20"
   inkscape:connector-curvature="0" />
  </g>
  <g
   id="bullet-char-template-10132"
   transform="matrix(4.8828125e-4,0,0,-4.8828125e-4,0,0)">
   <path
   d="M 2015,739 1276,0 H 717 l 543,543 H 174 v 393 h 1086 l -543,545 h 557 z"
   id="path23"
   inkscape:connector-curvature="0" />
  </g>
  <g
   id="bullet-char-template-10007"
   transform="matrix(4.8828125e-4,0,0,-4.8828125e-4,0,0)">
   <path
   d="m 0,-2 c -7,16 -16,29 -25,39 l 381,530 c -94,256 -141,385 -141,387 0,25 13,38 40,38 9,0 21,-2 34,-5 21,4 42,12 65,25 l 27,-13 111,-251 280,301 64,-25 24,25 c 21,-10 41,-24 62,-43 C 886,937 835,863 770,784 769,783 710,716 594,584 L 774,223 c 0,-27 -21,-55 -63,-84 l 16,-20 C 717,90 699,76 672,76 641,76 570,178 457,381 L 164,-76 c -22,-34 -53,-51 -92,-51 -42,0 -63,17 -64,51 -7,9 -10,24 -10,44 0,9 1,19 2,30 z"
   id="path26"
   inkscape:connector-curvature="0" />
  </g>
  <g
   id="bullet-char-template-10004"
   transform="matrix(4.8828125e-4,0,0,-4.8828125e-4,0,0)">
   <path
   d="M 285,-33 C 182,-33 111,30 74,156 52,228 41,333 41,471 c 0,78 14,145 41,201 34,71 87,106 158,106 53,0 88,-31 106,-94 l 23,-176 c 8,-64 28,-97 59,-98 l 735,706 c 11,11 33,17 66,17 42,0 63,-15 63,-46 V 965 c 0,-36 -10,-64 -30,-84 L 442,47 C 390,-6 338,-33 285,-33 Z"
   id="path29"
   inkscape:connector-curvature="0" />
  </g>
  <g
   id="bullet-char-template-9679"
   transform="matrix(4.8828125e-4,0,0,-4.8828125e-4,0,0)">
   <path
   d="M 813,0 C 632,0 489,54 383,161 276,268 223,411 223,592 c 0,181 53,324 160,431 106,107 249,161 430,161 179,0 323,-54 432,-161 108,-107 162,-251 162,-431 0,-180 -54,-324 -162,-431 C 1136,54 992,0 813,0 Z"
   id="path32"
   inkscape:connector-curvature="0" />
  </g>
  <g
   id="bullet-char-template-8226"
   transform="matrix(4.8828125e-4,0,0,-4.8828125e-4,0,0)">
   <path
   d="m 346,457 c -73,0 -137,26 -191,78 -54,51 -81,114 -81,188 0,73 27,136 81,188 54,52 118,78 191,78 73,0 134,-26 185,-79 51,-51 77,-114 77,-187 0,-75 -25,-137 -76,-188 -50,-52 -112,-78 -186,-78 z"
   id="path35"
   inkscape:connector-curvature="0" />
  </g>
  <g
   id="bullet-char-template-8211"
   transform="matrix(4.8828125e-4,0,0,-4.8828125e-4,0,0)">
   <path
   d="M -4,459 H 1135 V 606 H -4 Z"
   id="path38"
   inkscape:connector-curvature="0" />
  </g>
  <g
   id="bullet-char-template-61548"
   transform="matrix(4.8828125e-4,0,0,-4.8828125e-4,0,0)">
   <path
   d="m 173,740 c 0,163 58,303 173,419 116,115 255,173 419,173 163,0 302,-58 418,-173 116,-116 174,-256 174,-419 0,-163 -58,-303 -174,-418 C 1067,206 928,148 765,148 601,148 462,206 346,322 231,437 173,577 173,740 Z"
   id="path41"
   inkscape:connector-curvature="0" />
  </g>
 </defs>
 <g
   id="g49"
   transform="translate(-1449,-8412)">
  <g
   id="id2"
   class="Master_Slide">
   <g
   id="bg-id2"
   class="Background" />
   <g
   id="bo-id2"
   class="BackgroundObjects" />
  </g>
 </g>
 <g
   class="SlideGroup"
   id="g191"
   transform="translate(-1449,-8412)">
  <g
   id="g189">
   <g
   id="container-id1">
    <g
   id="id1"
   class="Slide"
   clip-path="url(#presentation_clip_path)">
     <g
   class="Page"
   id="g185">
      <g
   class="Graphic"
   id="g183">
       <g
   id="id3">
        <rect
   class="BoundingBox"
   x="1449"
   y="8412"
   width="18102"
   height="12876"
   id="rect51"
   style="fill:none;stroke:none" />
        <defs
   id="defs56">
         <clipPath
   id="clip_path_1"
   clipPathUnits="userSpaceOnUse">
          <path
   d="M 1449,8412 H 19550 V 21287 H 1449 Z"
   id="path53"
   inkscape:connector-curvature="0" />
         </clipPath>
        </defs>
        <g
   clip-path="url(#clip_path_1)"
   id="g180">
         <path
   d="M 1445,8416 H 19533 V 20916 H 1445 Z"
   id="path58"
   inkscape:connector-curvature="0"
   style="fill:#c0c0ff;stroke:none" />
         <path
   d="M 1445,8416 H 19533 V 20916 H 1445 Z"
   id="path60"
   inkscape:connector-curvature="0"
   style="fill:none;stroke:#000000;stroke-width:71;stroke-linecap:round;stroke-linejoin:round" />
         <path
   d="m 1524,20057 h 17951 v 542 H 1524 Z"
   id="path62"
   inkscape:connector-curvature="0"
   style="fill:#402000;stroke:none" />
         <path
   d="m 1524,20057 h 17951 v 542 H 1524 Z"
   id="path64"
   inkscape:connector-curvature="0"
   style="fill:none;stroke:#000000;stroke-width:35;stroke-linecap:round;stroke-linejoin:round" />
         <path
   d="m 4590,16546 -477,66 -573,124 -371,216 -181,212 -35,330 18,1143 1667,-31 z"
   id="path66"
   inkscape:connector-curvature="0"
   style="fill:#404040;stroke:none" />
         <path
   d="m 13557,19038 322,14 308,-190 168,-102 132,-57 274,-26 282,-58 181,-35 128,-13 220,88 203,66 181,66 84,49 18,44 v 44 l -27,40 -92,48 110,58 62,57 13,71 -31,83 -57,44 h -67 l -70,-30 92,92 49,75 v 44 l -18,58 -17,44 -49,22 -84,9 -198,-119 18,185 -14,62 -31,61 -57,18 -57,-18 -102,-57 -114,31 -115,13 -84,49 -141,35 -132,106 -327,88 -331,9 -225,-106 -308,-9 -494,9 -133,-498 133,-234 z"
   id="path68"
   inkscape:connector-curvature="0"
   style="fill:#ffc080;stroke:none" />
         <path
   d="m 13557,19038 322,14 308,-190 168,-102 132,-57 274,-26 282,-58 181,-35 128,-13 220,88 203,66 181,66 84,49 18,44 v 44 l -27,40 -92,48 110,58 62,57 13,71 -31,83 -57,44 h -67 l -70,-30 92,92 49,75 v 44 l -18,58 -17,44 -49,22 -84,9 -198,-119 18,185 -14,62 -31,61 -57,18 -57,-18 -102,-57 -114,31 -115,13 -84,49 -141,35 -132,106 -327,88 -331,9 -225,-106 -308,-9 -494,9 -133,-498 133,-234 z"
   id="path70"
   inkscape:connector-curvature="0"
   style="fill:none;stroke:#402000;stroke-width:35;stroke-linecap:round;stroke-linejoin:round" />
         <path
   d="m 15947,18999 h -150 l -79,-9 -212,-71 -13,31 216,66 230,14 z"
   id="path72"
   inkscape:connector-curvature="0"
   style="fill:#402000;stroke:none" />
         <path
   d="m 15890,19277 -185,-40 -168,-31 -150,-22 -269,-27 -234,62 437,-13 190,40 203,26 198,44 z"
   id="path74"
   inkscape:connector-curvature="0"
   style="fill:#402000;stroke:none" />
         <path
   d="m 15665,19510 -106,-48 -172,-22 -132,-5 h -97 l -106,14 -18,48 194,-31 168,5 168,26 101,71 z"
   id="path76"
   inkscape:connector-curvature="0"
   style="fill:#402000;stroke:none" />
         <path
   d="m 15387,19594 5,88 44,84 -49,9 -4,-44 -13,-49 z"
   id="path78"
   inkscape:connector-curvature="0"
   style="fill:#402000;stroke:none" />
         <path
   d="m 14624,20357 1041,-3965 2924,710 -996,4098 z"
   id="path80"
   inkscape:connector-curvature="0"
   style="fill:#ffffff;stroke:none" />
         <path
   d="m 14624,20357 1041,-3965 2924,710 -996,4098 z"
   id="path82"
   inkscape:connector-curvature="0"
   style="fill:none;stroke:#000000;stroke-width:35;stroke-linecap:round;stroke-linejoin:round" />
         <path
   d="m 14990,18809 163,-9 142,-13 h 114 l 66,18 36,26 v 49 l -18,44 -66,66 -172,88 -168,53 -114,9 -89,57 -114,31 -84,106 -88,-441 128,-18 97,-35 z"
   id="path84"
   inkscape:connector-curvature="0"
   style="fill:#ffc080;stroke:none" />
         <path
   d="m 14611,18902 128,-18 123,-44 150,-27 h 133 l 136,-22 234,22 -97,-35 -198,-26 -230,17 -66,27 -185,-5 h -128 l -252,111 z"
   id="path86"
   inkscape:connector-curvature="0"
   style="fill:#402000;stroke:none" />
         <path
   d="m 15524,18818 -49,-18 22,84 -57,84 -123,62 -203,75 -111,8 -154,84 -93,22 -101,128 -49,88 -132,124 -260,88 -141,18 256,17 h 238 l 123,-114 40,-137 57,-110 84,-84 141,-58 124,-17 132,-49 124,-66 75,-62 75,-66 z"
   id="path88"
   inkscape:connector-curvature="0"
   style="fill:#402000;stroke:none" />
         <path
   d="m 15259,18844 22,58 53,17 h -75 z"
   id="path90"
   inkscape:connector-curvature="0"
   style="fill:#402000;stroke:none" />
         <path
   d="m 10063,10776 -31,649 -163,445 -2188,2598 -3312,1756 463,-1928 379,-1085 199,-798 265,-997 291,-794 308,-401 45,-552 286,-401 688,-331 843,22 661,154 512,243 463,423 225,397 z"
   id="path92"
   inkscape:connector-curvature="0"
   style="fill:#402000;stroke:none" />
         <path
   d="m 10063,10776 -31,649 -163,445 -2188,2598 -3312,1756 463,-1928 379,-1085 199,-798 265,-997 291,-794 308,-401 45,-552 286,-401 688,-331 843,22 661,154 512,243 463,423 225,397 z"
   id="path94"
   inkscape:connector-curvature="0"
   style="fill:none;stroke:#000000;stroke-width:35;stroke-linecap:round;stroke-linejoin:round" />
         <path
   d="m 8894,11337 -39,-825 -238,807 -22,-988 -195,988 84,-1076 -264,1010 -22,-988 -67,-111 -180,728 -133,-661 -154,220 44,397 -238,-745 -380,-230 265,296 66,282 66,746 h -167 l -150,83 -260,389 -155,-336 -309,66 -132,248 177,1041 -67,432 -167,313 -133,199 -132,83 -317,1646 441,-3516 -662,3626 463,-3516 -661,3670 419,-3207 -640,3366 353,-2413 -821,2656 402,-1791 309,-1085 330,-1174 419,-1235 375,-578 v -353 l 331,-511 446,-133 639,-66 578,44 569,221 622,379 265,375 136,424 v 304 l -48,441 -115,-551 -115,723 -79,-719 -154,671 -89,-825 -79,789 -119,-745 -66,22 z"
   id="path96"
   inkscape:connector-curvature="0"
   style="fill:#804000;stroke:none" />
         <path
   d="m 7924,14371 463,230 300,269 234,494 132,732 397,631 269,467 265,367 198,330 433,234 564,296 834,234 662,132 1098,198 -234,234 -198,335 v 362 l 132,269 -2228,-203 -829,-97 -966,-132 -428,-199 -269,697 v 596 H 4237 l -102,-1028 v -900 l 35,-529 31,-799 67,-485 132,-542 137,-455 163,-498 101,-432 168,-380 198,-370 247,-265 481,-260 432,-366 z"
   id="path98"
   inkscape:connector-curvature="0"
   style="fill:#008080;stroke:none" />
         <path
   d="m 7924,14371 463,230 300,269 234,494 132,732 397,631 269,467 265,367 198,330 433,234 564,296 834,234 662,132 1098,198 -234,234 -198,335 v 362 l 132,269 -2228,-203 -829,-97 -966,-132 -428,-199 -269,697 v 596 H 4237 l -102,-1028 v -900 l 35,-529 31,-799 67,-485 132,-542 137,-455 163,-498 101,-432 168,-380 198,-370 247,-265 481,-260 432,-366 z"
   id="path100"
   inkscape:connector-curvature="0"
   style="fill:none;stroke:#000000;stroke-width:35;stroke-linecap:round;stroke-linejoin:round" />
         <path
   d="m 5498,15377 371,-44 291,132 286,243 265,490 -44,569 -66,555 88,1019 v 640 l -265,401 433,-35 -344,163 -155,265 331,-110 357,-22 -335,286 -242,292 352,-155 358,-48 110,225 159,198 300,199 533,198 H 5397 l -499,-397 -22,-353 -44,-1372 -44,-1746 88,-684 247,-600 z"
   id="path102"
   inkscape:connector-curvature="0"
   style="fill:#00c0c0;stroke:none" />
         <path
   d="m 7655,15567 -123,582 -331,-176 -269,-203 -309,-283 -287,-330 -220,-287 -155,-335 -70,-464 -424,230 -335,498 -256,666 -397,1081 -154,931 -88,1041 v 948 l 22,821 66,485 h 842 l -335,-221 -66,-732 -22,-948 22,-1549 132,-930 203,-728 366,-397 247,-44 402,88 242,154 221,199 176,353 66,441 -110,710 44,573 44,711 22,507 -44,243 212,141 -31,189 243,155 -44,154 295,300 269,265 891,401 v -454 l 300,-843 300,-1094 -101,-794 -397,-864 -67,-966 -132,-657 -212,-490 -264,-110 198,308 66,358 9,331 -97,326 z"
   id="path104"
   inkscape:connector-curvature="0"
   style="fill:#00c0c0;stroke:none" />
         <path
   d="m 13495,19012 -199,265 -66,366 v 330 l -3581,-330 -397,-97 -133,-168 133,-565 132,-397 -66,-529 -132,-468 -199,-361 -101,-203 101,-397 -35,-132 -66,264 -31,102 -66,-499 -36,-428 -66,-533 -234,-362 -30,-71 -102,-163 300,265 101,234 199,330 -35,199 66,331 137,331 295,463 331,564 163,137 -163,132 -163,230 -102,269 199,-269 163,-163 132,-67 168,230 -199,136 -300,164 -163,233 -66,168 229,-234 234,-198 265,-133 331,164 269,198 331,133 -367,35 -595,326 529,-163 366,-97 h 366 l 499,97 591,132 z"
   id="path106"
   inkscape:connector-curvature="0"
   style="fill:#00c0c0;stroke:none" />
         <path
   d="m 8109,16361 c 0,28 -6,56 -18,81 -11,24 -28,45 -48,59 -20,14 -43,22 -66,22 -23,0 -46,-8 -66,-22 -20,-14 -37,-35 -48,-59 -12,-25 -18,-53 -18,-81 0,-29 6,-57 18,-82 11,-24 28,-45 48,-59 20,-14 43,-22 66,-22 23,0 46,8 66,22 20,14 37,35 48,59 12,25 18,53 18,82 z"
   id="path108"
   inkscape:connector-curvature="0"
   style="fill:#008080;stroke:none" />
         <path
   d="m 8439,17115 c 0,28 -6,56 -17,81 -12,24 -28,45 -48,59 -19,14 -42,22 -64,22 -23,0 -46,-8 -65,-22 -20,-14 -36,-35 -48,-59 -11,-25 -17,-53 -17,-81 0,-29 6,-57 17,-82 12,-24 28,-45 48,-59 19,-14 42,-22 65,-22 22,0 45,8 64,22 20,14 36,35 48,59 11,25 17,53 17,82 z"
   id="path110"
   inkscape:connector-curvature="0"
   style="fill:#008080;stroke:none" />
         <path
   d="m 8637,17845 c 0,29 -6,57 -17,83 -12,25 -28,45 -48,60 -19,14 -42,22 -64,22 -23,0 -46,-8 -65,-22 -20,-15 -36,-35 -48,-60 -11,-26 -17,-54 -17,-83 0,-29 6,-57 17,-82 12,-26 28,-46 48,-61 19,-14 42,-22 65,-22 22,0 45,8 64,22 20,15 36,35 48,61 11,25 17,53 17,82 z"
   id="path112"
   inkscape:connector-curvature="0"
   style="fill:#008080;stroke:none" />
         <path
   d="m 8704,18553 c 0,28 -6,56 -17,81 -12,24 -28,45 -48,59 -19,14 -42,22 -64,22 -23,0 -46,-8 -65,-22 -20,-14 -36,-35 -48,-59 -11,-25 -17,-53 -17,-81 0,-29 6,-57 17,-82 12,-24 28,-45 48,-59 19,-14 42,-22 65,-22 22,0 45,8 64,22 20,14 36,35 48,59 11,25 17,53 17,82 z"
   id="path114"
   inkscape:connector-curvature="0"
   style="fill:#008080;stroke:none" />
         <path
   d="m 8593,19417 c 0,28 -6,56 -17,81 -12,24 -28,45 -48,59 -19,14 -42,22 -64,22 -23,0 -46,-8 -65,-22 -20,-14 -36,-35 -48,-59 -11,-25 -17,-53 -17,-81 0,-29 6,-57 17,-82 12,-24 28,-45 48,-59 19,-14 42,-22 65,-22 22,0 45,8 64,22 20,14 36,35 48,59 11,25 17,53 17,82 z"
   id="path116"
   inkscape:connector-curvature="0"
   style="fill:#008080;stroke:none" />
         <path
   d="m 8395,20260 c 0,28 -6,56 -17,81 -12,24 -28,45 -48,59 -19,14 -42,22 -64,22 -23,0 -46,-8 -65,-22 -20,-14 -36,-35 -48,-59 -11,-25 -17,-53 -17,-81 0,-29 6,-57 17,-82 12,-24 28,-45 48,-59 19,-14 42,-22 65,-22 22,0 45,8 64,22 20,14 36,35 48,59 11,25 17,53 17,82 z"
   id="path118"
   inkscape:connector-curvature="0"
   style="fill:#008080;stroke:none" />
         <path
   d="m 8224,14133 -216,283 -102,264 49,366 -79,216 -186,80 h -264 l -283,-97 -233,-133 -234,-216 -133,-167 -149,-265 -98,-265 -66,-251 18,-282 181,-331 84,-265 30,-300 36,-498 564,798 781,781 z"
   id="path120"
   inkscape:connector-curvature="0"
   style="fill:#ffc080;stroke:none" />
         <path
   d="m 8224,14133 -216,283 -102,264 49,366 -79,216 -186,80 h -264 l -283,-97 -233,-133 -234,-216 -133,-167 -149,-265 -98,-265 -66,-251 18,-282 181,-331 84,-265 30,-300 36,-498 564,798 781,781 z"
   id="path122"
   inkscape:connector-curvature="0"
   style="fill:none;stroke:#402000;stroke-width:35;stroke-linecap:round;stroke-linejoin:round" />
         <path
   d="m 9834,11213 22,326 -13,168 -35,150 -67,168 -66,145 -31,137 -9,185 9,190 -9,128 -44,128 -57,119 -48,97 -84,101 -97,89 -102,128 -198,317 -119,366 -106,102 -177,53 -163,13 -141,-13 -168,-44 -158,-58 -239,-115 -202,-101 -155,-84 -167,-114 -177,-133 -132,-150 -88,-154 -53,-282 -31,-283 v -216 l -84,-44 -84,-57 -40,-93 -26,-124 -49,-132 -17,-132 -27,-150 18,-93 9,-114 48,-115 102,-53 h 106 l 83,53 67,97 66,198 392,-476 300,48 -4,-674 167,644 67,-834 150,834 167,-847 -35,877 318,18 h 282 l 331,31 101,-640 66,658 318,66 247,53 z"
   id="path124"
   inkscape:connector-curvature="0"
   style="fill:#ffc080;stroke:none" />
         <path
   d="m 9834,11213 22,326 -13,168 -35,150 -67,168 -66,145 -31,137 -9,185 9,190 -9,128 -44,128 -57,119 -48,97 -84,101 -97,89 -102,128 -198,317 -119,366 -106,102 -177,53 -163,13 -141,-13 -168,-44 -158,-58 -239,-115 -202,-101 -155,-84 -167,-114 -177,-133 -132,-150 -88,-154 -53,-282 -31,-283 v -216 l -84,-44 -84,-57 -40,-93 -26,-124 -49,-132 -17,-132 -27,-150 18,-93 9,-114 48,-115 102,-53 h 106 l 83,53 67,97 66,198 392,-476 300,48 -4,-674 167,644 67,-834 150,834 167,-847 -35,877 318,18 h 282 l 331,31 101,-640 66,658 318,66 247,53 z"
   id="path126"
   inkscape:connector-curvature="0"
   style="fill:none;stroke:#402000;stroke-width:35;stroke-linecap:round;stroke-linejoin:round" />
         <path
   d="m 6742,11729 -49,-154 -61,-9 -128,163 -18,256 49,234 48,26 -62,-194 9,-198 53,-124 z"
   id="path128"
   inkscape:connector-curvature="0"
   style="fill:#402000;stroke:none" />
         <path
   d="m 6826,11967 -71,18 -35,88 26,133 -53,-97 9,-111 62,-141 z"
   id="path130"
   inkscape:connector-curvature="0"
   style="fill:#402000;stroke:none" />
         <path
   d="m 9221,12995 -62,49 -75,53 -48,4 -49,-13 -84,-53 -44,-44 -53,-9 -75,-27 -39,-70 22,106 53,39 92,75 106,67 101,-18 93,-53 z"
   id="path132"
   inkscape:connector-curvature="0"
   style="fill:#402000;stroke:none" />
         <path
   d="m 8855,11734 -44,44 -80,17 -106,-70 -105,-44 -111,-14 -159,-17 -251,9 318,-62 h 185 l 115,4 114,58 97,13 z"
   id="path134"
   inkscape:connector-curvature="0"
   style="fill:#402000;stroke:none" />
         <path
   d="m 9269,11936 9,-114 110,-44 120,-18 101,49 101,92 -92,-44 -155,9 -110,18 z"
   id="path136"
   inkscape:connector-curvature="0"
   style="fill:#402000;stroke:none" />
         <path
   d="m 9062,13511 h -31 l -35,-53 -53,-39 -44,30 -66,-61 -53,9 -80,17 -119,22 h -66 -48 l -40,-70 -4,61 4,31 22,14 119,17 75,22 h 75 l 66,22 84,27 97,-9 h 75 z"
   id="path138"
   inkscape:connector-curvature="0"
   style="fill:#402000;stroke:none" />
         <path
   d="m 8974,13688 -119,44 -71,9 -66,-9 -146,-75 164,48 83,5 z"
   id="path140"
   inkscape:connector-curvature="0"
   style="fill:#402000;stroke:none" />
         <path
   d="m 8969,11914 -8,177 -67,132 -57,93 -93,66 -123,40 -106,35 h -141 l -168,-26 -141,-40 -84,-58 -66,-101 -39,-123 -18,-120 v -163 l 26,-101 106,-31 141,-18 142,-26 150,-18 141,27 141,39 106,44 141,93 z"
   id="path142"
   inkscape:connector-curvature="0"
   style="fill:none;stroke:#808080;stroke-width:35;stroke-linecap:round;stroke-linejoin:round" />
         <path
   d="m 9239,11981 -27,150 27,158 30,93 49,106 119,75 123,26 h 124 l 119,-26 110,-66 80,-84 57,-106 35,-132 22,-119 -132,-97 -115,-67 -127,-35 -142,-9 -150,36 -110,30 z"
   id="path144"
   inkscape:connector-curvature="0"
   style="fill:none;stroke:#808080;stroke-width:35;stroke-linecap:round;stroke-linejoin:round" />
         <path
   d="m 9212,12025 -93,-75 -150,31"
   id="path146"
   inkscape:connector-curvature="0"
   style="fill:none;stroke:#808080;stroke-width:35;stroke-linecap:round;stroke-linejoin:round" />
         <path
   d="m 7840,11795 -1005,-154 26,79 719,111 251,119 z"
   id="path148"
   inkscape:connector-curvature="0"
   style="fill:#808080;stroke:none" />
         <path
   d="m 9653,12166 -70,84 -102,35 -110,-44 -75,-119 137,-53 114,9 z"
   id="path150"
   inkscape:connector-curvature="0"
   style="fill:#402000;stroke:none" />
         <path
   d="m 9384,12166 4,62 -22,-49 -13,-31 44,-17 z"
   id="path152"
   inkscape:connector-curvature="0"
   style="fill:#ffc080;stroke:none" />
         <path
   d="m 9587,12157 -49,-18 18,49 -35,62 53,-27 53,-44 z"
   id="path154"
   inkscape:connector-curvature="0"
   style="fill:#ffc080;stroke:none" />
         <path
   d="m 9445,12157 c 0,2 -1,4 -2,6 -1,2 -3,3 -5,4 -3,1 -5,2 -8,2 -3,0 -5,-1 -7,-2 -3,-1 -5,-2 -6,-4 -1,-2 -2,-4 -2,-6 0,-3 1,-5 2,-7 1,-2 3,-3 6,-4 2,-1 4,-2 7,-2 3,0 5,1 8,2 2,1 4,2 5,4 1,2 2,4 2,7 z"
   id="path156"
   inkscape:connector-curvature="0"
   style="fill:#ffc080;stroke:none" />
         <path
   d="m 8731,11989 v 58 l -75,31 -79,39 -119,18 -106,-44 -172,-137 190,-66 h 141 l 101,40 z"
   id="path158"
   inkscape:connector-curvature="0"
   style="fill:#402000;stroke:none" />
         <path
   d="m 8665,12011 -9,40 -61,27 -71,31 35,-58 5,-57 -27,-53 z"
   id="path160"
   inkscape:connector-curvature="0"
   style="fill:#ffc080;stroke:none" />
         <path
   d="m 8352,11941 -22,44 9,75 -44,-35 -31,-31 4,-27 44,-17 z"
   id="path162"
   inkscape:connector-curvature="0"
   style="fill:#ffc080;stroke:none" />
         <path
   d="m 8421,11981 c 0,3 -1,7 -3,10 -2,4 -4,6 -8,8 -3,2 -7,3 -10,3 -4,0 -8,-1 -11,-3 -4,-2 -6,-4 -8,-8 -2,-3 -3,-7 -3,-10 0,-4 1,-8 3,-11 2,-4 4,-6 8,-8 3,-2 7,-3 11,-3 3,0 7,1 10,3 4,2 6,4 8,8 2,3 3,7 3,11 z"
   id="path164"
   inkscape:connector-curvature="0"
   style="fill:#ffc080;stroke:none" />
         <path
   d="m 7011,11897 49,132 17,132 -35,133 -75,119 -106,75 40,154 53,168 75,181 97,159 101,127 115,111 150,106 150,79 150,75 181,75 185,57 207,71 159,40 88,-9 75,57 -40,102 -242,-45 -150,-48 -150,-40 -154,-57 -150,-62 -128,-57 -133,-66 -150,-84 -132,-75 -123,-115 -93,-110 -115,-141 -123,-172 -128,-177 -199,-264 -106,-159 -57,-124 -26,-114 v -186 l 17,-238 v -273 l -26,-243 -27,-216 -4,-159 v -172 l 22,-176 26,-133 31,-167 27,119 -18,198 v 159 l 9,172 18,185 31,172 35,168 48,168 44,132 106,13 111,35 97,40 92,62 z"
   id="path166"
   inkscape:connector-curvature="0"
   style="fill:#808080;stroke:none" />
         <path
   d="m 7011,11897 49,132 17,132 -35,133 -75,119 -106,75 40,154 53,168 75,181 97,159 101,127 115,111 150,106 150,79 150,75 181,75 185,57 207,71 159,40 88,-9 75,57 -40,102 -242,-45 -150,-48 -150,-40 -154,-57 -150,-62 -128,-57 -133,-66 -150,-84 -132,-75 -123,-115 -93,-110 -115,-141 -123,-172 -128,-177 -199,-264 -106,-159 -57,-124 -26,-114 v -186 l 17,-238 v -273 l -26,-243 -27,-216 -4,-159 v -172 l 22,-176 26,-133 31,-167 27,119 -18,198 v 159 l 9,172 18,185 31,172 35,168 48,168 44,132 106,13 111,35 97,40 92,62 z"
   id="path168"
   inkscape:connector-curvature="0"
   style="fill:none;stroke:#404040;stroke-width:35;stroke-linecap:round;stroke-linejoin:round" />
         <path
   d="m 6948,12124 c 0,59 -14,118 -40,170 -26,52 -64,95 -110,125 -45,30 -97,46 -150,46 -52,0 -104,-16 -149,-46 -46,-30 -84,-73 -110,-125 -26,-52 -40,-111 -40,-170 0,-60 14,-119 40,-171 26,-52 64,-95 110,-125 45,-30 97,-46 149,-46 53,0 105,16 150,46 46,30 84,73 110,125 26,52 40,111 40,171 z"
   id="path170"
   inkscape:connector-curvature="0"
   style="fill:#c0c0c0;stroke:none" />
         <path
   d="m 8114,14261 -247,-97 -256,-128 -207,-97 -252,-181 -141,-114 225,286 119,150 97,150 110,150 58,150 75,128 75,75 35,-150 84,-101 119,-89 z"
   id="path172"
   inkscape:connector-curvature="0"
   style="fill:#402000;stroke:none" />
         <path
   d="m 4559,21015 66,-133 v -2245 l -35,-150 -67,-115 -216,-132 -264,-49 -300,-66 -247,-84 -203,-119 -150,-163 -66,-185 -58,-199 27,-141 66,-132 93,-93 141,-97 141,-66 150,-53 172,-40 167,-39 181,-27 216,-35 44,-132 -233,35 -243,31 -229,44 -225,66 -185,84 -164,97 -110,123 -75,120 -40,97 -35,158 v 2907 l 53,216 97,234 199,199 269,101 264,84 283,48 247,18 167,-53 z"
   id="path174"
   inkscape:connector-curvature="0"
   style="fill:#808080;stroke:none" />
         <path
   d="m 4559,21015 66,-133 v -2245 l -35,-150 -67,-115 -216,-132 -264,-49 -300,-66 -247,-84 -203,-119 -150,-163 -66,-185 -58,-199 27,-141 66,-132 93,-93 141,-97 141,-66 150,-53 172,-40 167,-39 181,-27 216,-35 44,-132 -233,35 -243,31 -229,44 -225,66 -185,84 -164,97 -110,123 -75,120 -40,97 -35,158 v 2907 l 53,216 97,234 199,199 269,101 264,84 283,48 247,18 167,-53 z"
   id="path176"
   inkscape:connector-curvature="0"
   style="fill:none;stroke:#404040;stroke-width:35;stroke-linecap:round;stroke-linejoin:round" />
         <path
   d="m 4201,18355 133,97 66,114 31,133 v 2174 l -66,84 -84,80 -216,17 -711,-163 -211,-150 -133,-185 -97,-247 v -2766 l 67,181 83,150 181,167 230,133 366,114 z"
   id="path178"
   inkscape:connector-curvature="0"
   style="fill:#a0a0a0;stroke:none" />
        </g>
       </g>
      </g>
     </g>
    </g>
   </g>
  </g>
 </g>
</svg>