<?xml version="1.0" encoding="UTF-8" standalone="no"?>
<svg
   xmlns:ooo="http://xml.openoffice.org/svg/export"
   xmlns:dc="http://purl.org/dc/elements/1.1/"
   xmlns:cc="http://creativecommons.org/ns#"
   xmlns:rdf="http://www.w3.org/1999/02/22-rdf-syntax-ns#"
   xmlns:svg="http://www.w3.org/2000/svg"
   xmlns="http://www.w3.org/2000/svg"
   xmlns:sodipodi="http://sodipodi.sourceforge.net/DTD/sodipodi-0.dtd"
   xmlns:inkscape="http://www.inkscape.org/namespaces/inkscape"
   version="1.2"
   width="190mm"
   height="74.849998mm"
   viewBox="0 0 19000 7484.9998"
   preserveAspectRatio="xMidYMid"
   xml:space="preserve"
   id="svg265"
   sodipodi:docname="sedan2.svg"
   style="fill-rule:evenodd;stroke-width:28.22200012;stroke-linejoin:round"
   inkscape:version="0.92.5 (2060ec1f9f, 2020-04-08)"><metadata
   id="metadata269"><rdf:RDF><cc:Work
       rdf:about=""><dc:format>image/svg+xml</dc:format><dc:type
         rdf:resource="http://purl.org/dc/dcmitype/StillImage" /></cc:Work></rdf:RDF></metadata><sodipodi:namedview
   pagecolor="#ffffff"
   bordercolor="#666666"
   borderopacity="1"
   objecttolerance="10"
   gridtolerance="10"
   guidetolerance="10"
   inkscape:pageopacity="0"
   inkscape:pageshadow="2"
   inkscape:window-width="664"
   inkscape:window-height="487"
   id="namedview267"
   showgrid="false"
   inkscape:zoom="0.2102413"
   inkscape:cx="359.05512"
   inkscape:cy="141.42992"
   inkscape:window-x="0"
   inkscape:window-y="0"
   inkscape:window-maximized="0"
   inkscape:current-layer="svg265" />
 <defs
   class="ClipPathGroup"
   id="defs8">
  <clipPath
   id="presentation_clip_path"
   clipPathUnits="userSpaceOnUse">
   <rect
   x="0"
   y="0"
   width="21000"
   height="29700"
   id="rect2" />
  </clipPath>
  <clipPath
   id="presentation_clip_path_shrink"
   clipPathUnits="userSpaceOnUse">
   <rect
   x="21"
   y="29"
   width="20958"
   height="29641"
   id="rect5" />
  </clipPath>
 </defs>
 <defs
   class="TextShapeIndex"
   id="defs12">
  <g
   ooo:slide="id1"
   ooo:id-list="id3"
   id="g10" />
 </defs>
 <defs
   class="EmbeddedBulletChars"
   id="defs44">
  <g
   id="bullet-char-template-57356"
   transform="matrix(4.8828125e-4,0,0,-4.8828125e-4,0,0)">
   <path
   d="M 580,1141 1163,571 580,0 -4,571 Z"
   id="path14"
   inkscape:connector-curvature="0" />
  </g>
  <g
   id="bullet-char-template-57354"
   transform="matrix(4.8828125e-4,0,0,-4.8828125e-4,0,0)">
   <path
   d="M 8,1128 H 1137 V 0 H 8 Z"
   id="path17"
   inkscape:connector-curvature="0" />
  </g>
  <g
   id="bullet-char-template-10146"
   transform="matrix(4.8828125e-4,0,0,-4.8828125e-4,0,0)">
   <path
   d="M 174,0 602,739 174,1481 1456,739 Z M 1358,739 309,1346 659,739 Z"
   id="path20"
   inkscape:connector-curvature="0" />
  </g>
  <g
   id="bullet-char-template-10132"
   transform="matrix(4.8828125e-4,0,0,-4.8828125e-4,0,0)">
   <path
   d="M 2015,739 1276,0 H 717 l 543,543 H 174 v 393 h 1086 l -543,545 h 557 z"
   id="path23"
   inkscape:connector-curvature="0" />
  </g>
  <g
   id="bullet-char-template-10007"
   transform="matrix(4.8828125e-4,0,0,-4.8828125e-4,0,0)">
   <path
   d="m 0,-2 c -7,16 -16,29 -25,39 l 381,530 c -94,256 -141,385 -141,387 0,25 13,38 40,38 9,0 21,-2 34,-5 21,4 42,12 65,25 l 27,-13 111,-251 280,301 64,-25 24,25 c 21,-10 41,-24 62,-43 C 886,937 835,863 770,784 769,783 710,716 594,584 L 774,223 c 0,-27 -21,-55 -63,-84 l 16,-20 C 717,90 699,76 672,76 641,76 570,178 457,381 L 164,-76 c -22,-34 -53,-51 -92,-51 -42,0 -63,17 -64,51 -7,9 -10,24 -10,44 0,9 1,19 2,30 z"
   id="path26"
   inkscape:connector-curvature="0" />
  </g>
  <g
   id="bullet-char-template-10004"
   transform="matrix(4.8828125e-4,0,0,-4.8828125e-4,0,0)">
   <path
   d="M 285,-33 C 182,-33 111,30 74,156 52,228 41,333 41,471 c 0,78 14,145 41,201 34,71 87,106 158,106 53,0 88,-31 106,-94 l 23,-176 c 8,-64 28,-97 59,-98 l 735,706 c 11,11 33,17 66,17 42,0 63,-15 63,-46 V 965 c 0,-36 -10,-64 -30,-84 L 442,47 C 390,-6 338,-33 285,-33 Z"
   id="path29"
   inkscape:connector-curvature="0" />
  </g>
  <g
   id="bullet-char-template-9679"
   transform="matrix(4.8828125e-4,0,0,-4.8828125e-4,0,0)">
   <path
   d="M 813,0 C 632,0 489,54 383,161 276,268 223,411 223,592 c 0,181 53,324 160,431 106,107 249,161 430,161 179,0 323,-54 432,-161 108,-107 162,-251 162,-431 0,-180 -54,-324 -162,-431 C 1136,54 992,0 813,0 Z"
   id="path32"
   inkscape:connector-curvature="0" />
  </g>
  <g
   id="bullet-char-template-8226"
   transform="matrix(4.8828125e-4,0,0,-4.8828125e-4,0,0)">
   <path
   d="m 346,457 c -73,0 -137,26 -191,78 -54,51 -81,114 -81,188 0,73 27,136 81,188 54,52 118,78 191,78 73,0 134,-26 185,-79 51,-51 77,-114 77,-187 0,-75 -25,-137 -76,-188 -50,-52 -112,-78 -186,-78 z"
   id="path35"
   inkscape:connector-curvature="0" />
  </g>
  <g
   id="bullet-char-template-8211"
   transform="matrix(4.8828125e-4,0,0,-4.8828125e-4,0,0)">
   <path
   d="M -4,459 H 1135 V 606 H -4 Z"
   id="path38"
   inkscape:connector-curvature="0" />
  </g>
  <g
   id="bullet-char-template-61548"
   transform="matrix(4.8828125e-4,0,0,-4.8828125e-4,0,0)">
   <path
   d="m 173,740 c 0,163 58,303 173,419 116,115 255,173 419,173 163,0 302,-58 418,-173 116,-116 174,-256 174,-419 0,-163 -58,-303 -174,-418 C 1067,206 928,148 765,148 601,148 462,206 346,322 231,437 173,577 173,740 Z"
   id="path41"
   inkscape:connector-curvature="0" />
  </g>
 </defs>
 <g
   id="g49"
   transform="translate(-1000,-11107)">
  <g
   id="id2"
   class="Master_Slide">
   <g
   id="bg-id2"
   class="Background" />
   <g
   id="bo-id2"
   class="BackgroundObjects" />
  </g>
 </g>
 <g
   class="SlideGroup"
   id="g263"
   transform="translate(-1000,-11107)">
  <g
   id="g261">
   <g
   id="container-id1">
    <g
   id="id1"
   class="Slide"
   clip-path="url(#presentation_clip_path)">
     <g
   class="Page"
   id="g257">
      <g
   class="Graphic"
   id="g255">
       <g
   id="id3">
        <rect
   class="BoundingBox"
   x="1000"
   y="11107"
   width="19000"
   height="7485"
   id="rect51"
   style="fill:none;stroke:none" />
        <defs
   id="defs56">
         <clipPath
   id="clip_path_1"
   clipPathUnits="userSpaceOnUse">
          <path
   d="m 1000,11107 h 18999 v 7484 H 1000 Z"
   id="path53"
   inkscape:connector-curvature="0" />
         </clipPath>
        </defs>
        <g
   clip-path="url(#clip_path_1)"
   id="g64">
         <path
   d="m 13103,11339 -95,85 -236,792 -191,581 151,-17 z"
   id="path58"
   inkscape:connector-curvature="0"
   style="fill:#202020;stroke:none" />
         <path
   d="m 11312,11373 -873,1526 371,-3 761,-1489 z"
   id="path60"
   inkscape:connector-curvature="0"
   style="fill:#202020;stroke:none" />
         <path
   d="m 12506,12759 178,-150 116,-99 157,-55 177,-65 h 269 l 2513,144 228,20 126,14 109,31 92,41 93,48 58,47 58,75 54,79 79,184 -86,352 -3777,334 -2679,-334 -3201,-386 2959,-222 1921,-17 z"
   id="path62"
   inkscape:connector-curvature="0"
   style="fill:#201000;stroke:none" />
        </g>
        <defs
   id="defs69">
         <clipPath
   id="clip_path_2"
   clipPathUnits="userSpaceOnUse">
          <path
   d="m 12974,12233 h 1078 v 147 h -1078 z"
   id="path66"
   inkscape:connector-curvature="0" />
         </clipPath>
        </defs>
        <g
   clip-path="url(#clip_path_2)"
   id="g73">
         <path
   d="m 13561,12113 -123,359"
   id="path71"
   inkscape:connector-curvature="0"
   style="fill:none;stroke:#201000;stroke-width:27;stroke-linecap:round;stroke-linejoin:miter" />
        </g>
        <g
   clip-path="url(#clip_path_1)"
   id="g75" />
        <defs
   id="defs80">
         <clipPath
   id="clip_path_3"
   clipPathUnits="userSpaceOnUse">
          <path
   d="m 13461,12260 h 1081 v 147 h -1081 z"
   id="path77"
   inkscape:connector-curvature="0" />
         </clipPath>
        </defs>
        <g
   clip-path="url(#clip_path_3)"
   id="g84">
         <path
   d="m 14046,12141 -113,359"
   id="path82"
   inkscape:connector-curvature="0"
   style="fill:none;stroke:#201000;stroke-width:27;stroke-linecap:round;stroke-linejoin:miter" />
        </g>
        <g
   clip-path="url(#clip_path_1)"
   id="g90">
         <path
   d="m 12339,13029 106,-109 89,-120 365,-413 51,-34 48,-24 47,-7 68,-14 65,7 1069,55 54,3 89,10 61,4 86,24 47,24 38,37 10,48 21,79 -7,48 -17,58 -287,409 -102,150 -82,103 -85,133 -106,126 -109,106 -519,474 -1932,-253 697,-713 113,-92 z"
   id="path86"
   inkscape:connector-curvature="0"
   style="fill:#402000;stroke:none" />
         <path
   d="m 13390,11834 -140,290 v 30 l 7,35 27,37 24,14 915,68 58,-7 h 41 l 41,-41 27,-34 10,-41 -37,-314 -75,-58 -48,-24 -65,-3 -717,10 -44,17 z"
   id="path88"
   inkscape:connector-curvature="0"
   style="fill:#402000;stroke:none" />
        </g>
        <defs
   id="defs95">
         <clipPath
   id="clip_path_4"
   clipPathUnits="userSpaceOnUse">
          <path
   d="m 10657,12086 h 1078 v 147 h -1078 z"
   id="path92"
   inkscape:connector-curvature="0" />
         </clipPath>
        </defs>
        <g
   clip-path="url(#clip_path_4)"
   id="g99">
         <path
   d="m 11244,11967 -123,358"
   id="path97"
   inkscape:connector-curvature="0"
   style="fill:none;stroke:#201000;stroke-width:27;stroke-linecap:round;stroke-linejoin:miter" />
        </g>
        <g
   clip-path="url(#clip_path_1)"
   id="g101" />
        <defs
   id="defs106">
         <clipPath
   id="clip_path_5"
   clipPathUnits="userSpaceOnUse">
          <path
   d="m 11148,12113 h 1078 v 147 h -1078 z"
   id="path103"
   inkscape:connector-curvature="0" />
         </clipPath>
        </defs>
        <g
   clip-path="url(#clip_path_5)"
   id="g110">
         <path
   d="m 11735,11994 -123,359"
   id="path108"
   inkscape:connector-curvature="0"
   style="fill:none;stroke:#201000;stroke-width:27;stroke-linecap:round;stroke-linejoin:miter" />
        </g>
        <g
   clip-path="url(#clip_path_1)"
   id="g252">
         <path
   d="m 9982,12909 95,-109 89,-116 372,-417 44,-31 44,-27 51,-7 72,-10 61,3 1072,52 58,13 82,4 68,3 79,17 51,38 31,31 23,51 14,75 -10,55 -7,48 -293,416 -106,150 -75,92 -82,144 -110,122 -109,106 -522,474 -1928,-255 690,-703 109,-99 z"
   id="path112"
   inkscape:connector-curvature="0"
   style="fill:#402000;stroke:none" />
         <path
   d="m 11022,11721 -137,283 v 34 l 4,35 27,34 31,17 918,65 48,-4 h 37 l 45,-37 27,-41 14,-41 -41,-314 -68,-62 -55,-20 -65,-3 -710,13 -44,10 z"
   id="path114"
   inkscape:connector-curvature="0"
   style="fill:#402000;stroke:none" />
         <path
   d="m 7033,13056 436,-37 294,-11 215,-6 1065,40 h 150 l 133,-17 102,-17 113,-6 h 611 l 645,54 194,31 215,31 225,44 226,58 225,75 195,85 433,212 -1178,48 -4579,-533 z"
   id="path116"
   inkscape:connector-curvature="0"
   style="fill:#603000;stroke:none" />
         <path
   d="m 15735,11557 34,75 48,195 47,174 31,123 41,181 27,140 55,256 78,427 -102,3 -34,-263 -68,-416 -34,-175 -31,-150 -38,-147 -41,-163 -82,-284 z"
   id="path118"
   inkscape:connector-curvature="0"
   style="fill:#202020;stroke:none" />
         <path
   d="m 15769,11557 20,75 58,195 45,174 27,123 44,181 31,140 44,256 82,427 -99,3 -34,-263 -68,-416 -38,-175 -30,-150 -34,-147 -41,-163 -89,-284 z"
   id="path120"
   inkscape:connector-curvature="0"
   style="fill:#606060;stroke:none" />
         <path
   d="m 14001,11520 75,276 65,222 85,393 58,348 38,205 34,307 -239,3 -41,-388 -20,-246 -65,-383 -65,-372 -85,-365 z"
   id="path122"
   inkscape:connector-curvature="0"
   style="fill:#202020;stroke:none" />
         <path
   d="m 14032,11516 78,273 69,219 81,399 62,345 31,209 37,300 -239,10 -41,-399 -24,-236 -57,-393 -72,-368 -85,-359 z"
   id="path124"
   inkscape:connector-curvature="0"
   style="fill:#606060;stroke:none" />
         <path
   d="m 4606,16267 c 0,216 -50,429 -146,616 -95,187 -232,343 -397,451 -165,108 -353,165 -544,165 -190,0 -378,-57 -543,-165 -165,-108 -302,-264 -398,-451 -95,-187 -145,-400 -145,-616 0,-216 50,-429 145,-616 96,-187 233,-342 398,-451 165,-108 353,-165 543,-165 191,0 379,57 544,165 165,109 302,264 397,451 96,187 146,400 146,616 z"
   id="path126"
   inkscape:connector-curvature="0"
   style="fill:#202020;stroke:none" />
         <path
   d="m 4954,16313 c 0,216 -50,428 -145,615 -95,187 -231,343 -395,451 -165,108 -351,165 -541,165 -190,0 -376,-57 -541,-165 -164,-108 -300,-264 -395,-451 -95,-187 -145,-399 -145,-615 0,-215 50,-428 145,-615 95,-187 231,-342 395,-450 165,-108 351,-165 541,-165 190,0 376,57 541,165 164,108 300,263 395,450 95,187 145,400 145,615 z"
   id="path128"
   inkscape:connector-curvature="0"
   style="fill:#000000;stroke:none" />
         <path
   d="m 8037,15110 293,-208 276,-106 372,-85 263,-21 324,28 253,99 269,187 154,199 106,229 112,423 21,317 -18,515 -34,123 -2371,-907 z"
   id="path130"
   inkscape:connector-curvature="0"
   style="fill:#000000;stroke:none" />
         <path
   d="m 8718,16850 461,-1648 -72,-24 -75,-20 -74,-16 -75,-11 -76,-7 -76,-3 -76,1 -76,6 -75,10 -75,14 -74,18 -74,23 -72,27 -71,31 -69,34 -68,39 -67,43 -64,45 -62,50 -59,53 -58,57 -54,59 -53,63 -50,66 -46,68 -43,70 -41,74 -36,75 -34,77 -30,79 -26,81 -24,82 -19,84 -16,84 -12,84 -8,86 -5,86 -1,87 3,86 7,85 11,85 14,86 18,83 21,83 26,81 29,80 32,78 36,76 38,74 43,71 45,70 49,66 51,64 53,61 57,58 58,54 61,51 64,47 66,44 67,41 69,36 70,33 72,27 73,25 73,20 75,16 75,11 76,8 76,3 76,-1 z"
   id="path132"
   inkscape:connector-curvature="0"
   style="fill:#202020;stroke:none" />
         <path
   d="m 10137,16883 c 0,299 -56,593 -162,852 -105,259 -258,474 -441,624 -183,149 -391,228 -603,228 -211,0 -419,-79 -603,-228 -183,-150 -335,-365 -441,-624 -106,-259 -161,-553 -161,-852 0,-299 55,-593 161,-852 106,-259 258,-475 441,-624 184,-150 392,-228 603,-228 212,0 420,78 603,228 183,149 336,365 441,624 106,259 162,553 162,852 z"
   id="path134"
   inkscape:connector-curvature="0"
   style="fill:#606060;stroke:none" />
         <path
   d="m 10015,16898 c 0,276 -49,547 -143,785 -93,239 -227,437 -389,575 -161,137 -344,210 -531,210 -186,0 -370,-73 -531,-210 -162,-138 -296,-336 -389,-575 -93,-238 -142,-509 -142,-785 0,-275 49,-546 142,-785 93,-238 227,-436 389,-574 161,-138 345,-210 531,-210 187,0 370,72 531,210 162,138 296,336 389,574 94,239 143,510 143,785 z"
   id="path136"
   inkscape:connector-curvature="0"
   style="fill:#808080;stroke:none" />
         <path
   d="m 9683,16915 c 0,193 -31,383 -91,550 -60,167 -145,305 -248,402 -104,96 -221,147 -340,147 -119,0 -236,-51 -339,-147 -103,-97 -189,-235 -248,-402 -60,-167 -91,-357 -91,-550 0,-192 31,-382 91,-549 59,-167 145,-306 248,-402 103,-96 220,-147 339,-147 119,0 236,51 340,147 103,96 188,235 248,402 60,167 91,357 91,549 z"
   id="path138"
   inkscape:connector-curvature="0"
   style="fill:#404040;stroke:none" />
         <path
   d="m 9681,16912 v -55 l -4,-56 -3,-55 -7,-55 -7,-54 -10,-54 -11,-53 -13,-51 -14,-51 -16,-50 -18,-48 -18,-46 -21,-45 -22,-43 -23,-41 -24,-40 -25,-37 -27,-35 -28,-33 -29,-31 -29,-28 -31,-26 -31,-23 -32,-21 -32,-18 -34,-15 -33,-13 -34,-10 -34,-7 -35,-4 -34,-1 v 0 l -34,1 -35,4 -34,7 -34,10 -33,13 -33,15 -33,18 -32,21 -31,23 -31,26 -29,28 -29,31 -27,33 -27,35 -26,37 -24,40 -23,41 -22,43 -21,45 -18,46 -18,48 -16,50 -14,51 -13,51 -11,53 -10,54 -7,54 -6,55 -4,55 -3,56 -1,55 v 0 l 1,56 3,56 4,55 6,54 7,55 10,53 11,53 13,51 14,52 16,49 18,48 18,46 21,45 22,44 23,41 24,39 26,37 27,36 27,32 29,31 29,28 31,26 31,24 32,20 33,18 33,16 33,12 34,10 34,7 35,4 34,2 v 0 l 34,-2 35,-4 34,-7 34,-10 33,-12 34,-16 32,-18 32,-20 31,-24 31,-26 29,-28 29,-31 28,-32 27,-36 25,-37 24,-39 23,-41 22,-44 21,-45 18,-46 18,-48 16,-49 14,-52 13,-51 11,-53 10,-53 7,-55 7,-54 3,-55 4,-56 z"
   id="path140"
   inkscape:connector-curvature="0"
   style="fill:none;stroke:#a0a0a0;stroke-width:55;stroke-linecap:round;stroke-linejoin:round" />
         <path
   d="m 9366,16845 c 0,143 -22,283 -62,407 -41,124 -99,226 -169,298 -70,71 -150,109 -231,109 -81,0 -161,-38 -231,-109 -70,-72 -129,-174 -169,-298 -41,-124 -62,-264 -62,-407 0,-142 21,-283 62,-406 40,-124 99,-227 169,-298 70,-72 150,-109 231,-109 81,0 161,37 231,109 70,71 128,174 169,298 40,123 62,264 62,406 z"
   id="path142"
   inkscape:connector-curvature="0"
   style="fill:#000000;stroke:none" />
         <path
   d="m 9363,16844 v -41 l -2,-41 -3,-41 -4,-40 -5,-40 -7,-40 -7,-39 -9,-38 -10,-37 -11,-37 -11,-35 -13,-35 -14,-33 -15,-32 -16,-30 -16,-30 -17,-27 -18,-26 -19,-25 -19,-22 -20,-21 -21,-19 -21,-17 -22,-16 -22,-13 -23,-11 -22,-10 -23,-7 -24,-5 -23,-3 -23,-1 v 0 l -23,1 -23,3 -24,5 -23,7 -22,10 -23,11 -22,13 -22,16 -21,17 -21,19 -20,21 -19,22 -19,25 -18,26 -17,27 -16,30 -16,30 -15,32 -14,33 -13,35 -11,35 -11,37 -10,37 -9,38 -7,39 -7,40 -5,40 -4,40 -3,41 -2,41 v 41 0 41 l 2,41 3,41 4,40 5,41 7,39 7,40 9,37 10,38 11,37 11,35 13,34 14,34 15,31 16,30 16,30 17,28 18,25 19,25 19,22 20,21 21,20 21,17 22,15 22,13 23,11 22,10 23,7 24,6 23,3 h 23 v 0 h 23 l 23,-3 24,-6 23,-7 22,-10 23,-11 22,-13 22,-15 21,-17 21,-20 20,-21 19,-22 19,-25 18,-25 17,-28 16,-30 16,-30 15,-31 14,-34 13,-34 11,-35 11,-37 10,-38 9,-37 7,-40 7,-39 5,-41 4,-40 3,-41 2,-41 z"
   id="path144"
   inkscape:connector-curvature="0"
   style="fill:none;stroke:#808080;stroke-width:27;stroke-linecap:round;stroke-linejoin:round" />
         <path
   d="m 9021,16893 c 0,42 -6,84 -18,120 -12,37 -29,67 -50,88 -20,21 -44,32 -68,32 -24,0 -47,-11 -68,-32 -21,-21 -38,-51 -50,-88 -12,-36 -18,-78 -18,-120 0,-42 6,-83 18,-120 12,-36 29,-67 50,-88 21,-21 44,-32 68,-32 24,0 48,11 68,32 21,21 38,52 50,88 12,37 18,78 18,120 z"
   id="path146"
   inkscape:connector-curvature="0"
   style="fill:#808080;stroke:none" />
         <path
   d="m 9059,16889 c 0,42 -6,83 -17,119 -11,36 -27,66 -47,87 -19,21 -41,32 -63,32 -23,0 -45,-11 -64,-32 -20,-21 -36,-51 -47,-87 -11,-36 -17,-77 -17,-119 0,-42 6,-83 17,-120 11,-36 27,-66 47,-87 19,-21 41,-32 64,-32 22,0 44,11 63,32 20,21 36,51 47,87 11,37 17,78 17,120 z"
   id="path148"
   inkscape:connector-curvature="0"
   style="fill:#e0e0e0;stroke:none" />
         <path
   d="m 17348,14274 164,-99 246,-65 h 300 l 277,58 174,144 156,228 52,253 24,181 -7,304 -38,137 -1030,-219 z"
   id="path150"
   inkscape:connector-curvature="0"
   style="fill:#000000;stroke:none" />
         <path
   d="m 17543,15480 335,-1239 -55,-18 -56,-15 -56,-11 -56,-9 -57,-4 -57,-2 -56,2 -57,5 -56,8 -57,11 -55,15 -55,19 -53,21 -53,24 -52,27 -51,30 -48,33 -48,36 -46,38 -44,42 -43,43 -40,47 -38,48 -36,50 -34,53 -32,55 -29,55 -27,58 -24,60 -20,60 -19,62 -16,63 -13,63 -11,64 -7,65 -6,65 -1,66 1,65 3,66 7,65 10,64 12,64 16,63 17,62 20,61 24,60 26,58 28,57 31,55 33,53 36,51 37,49 40,47 42,44 43,42 46,39 46,38 49,34 50,31 51,27 53,26 53,22 55,19 55,15 56,13 56,9 57,6 57,3 h 57 z"
   id="path152"
   inkscape:connector-curvature="0"
   style="fill:#202020;stroke:none" />
         <path
   d="m 18596,15501 c 0,224 -41,444 -119,639 -79,194 -192,355 -327,467 -136,112 -290,171 -447,171 -157,0 -311,-59 -447,-171 -136,-112 -249,-273 -327,-467 -79,-195 -120,-415 -120,-639 0,-224 41,-445 120,-639 78,-194 191,-356 327,-468 136,-112 290,-171 447,-171 157,0 311,59 447,171 135,112 248,274 327,468 78,194 119,415 119,639 z"
   id="path154"
   inkscape:connector-curvature="0"
   style="fill:#606060;stroke:none" />
         <path
   d="m 18500,15508 c 0,206 -36,409 -105,587 -69,179 -168,328 -288,431 -119,103 -255,157 -393,157 -138,0 -273,-54 -393,-157 -119,-103 -218,-252 -287,-431 -69,-178 -106,-381 -106,-587 0,-207 37,-409 106,-588 69,-179 168,-327 287,-430 120,-103 255,-158 393,-158 138,0 274,55 393,158 120,103 219,251 288,430 69,179 105,381 105,588 z"
   id="path156"
   inkscape:connector-curvature="0"
   style="fill:#808080;stroke:none" />
         <path
   d="m 18265,15521 c 0,145 -23,287 -68,412 -45,125 -110,229 -187,302 -78,72 -166,110 -256,110 -90,0 -178,-38 -256,-110 -78,-73 -142,-177 -187,-302 -45,-125 -69,-267 -69,-412 0,-144 24,-286 69,-412 45,-125 109,-229 187,-301 78,-73 166,-111 256,-111 90,0 178,38 256,111 77,72 142,176 187,301 45,126 68,268 68,412 z"
   id="path158"
   inkscape:connector-curvature="0"
   style="fill:#404040;stroke:none" />
         <path
   d="m 18263,15520 -1,-42 -1,-42 -4,-41 -5,-41 -5,-40 -7,-40 -9,-40 -10,-38 -11,-38 -11,-37 -13,-36 -15,-35 -16,-34 -16,-32 -17,-31 -18,-29 -20,-29 -20,-26 -21,-24 -21,-23 -23,-21 -22,-19 -24,-18 -24,-16 -25,-13 -25,-11 -25,-10 -26,-7 -25,-6 -26,-3 -26,-1 v 0 l -27,1 -25,3 -26,6 -25,7 -26,10 -24,11 -25,13 -24,16 -24,18 -23,19 -22,21 -22,23 -21,24 -20,26 -19,29 -19,29 -17,31 -16,32 -15,34 -15,35 -13,36 -12,37 -11,38 -10,38 -8,40 -7,40 -6,40 -4,41 -4,41 -2,42 v 42 0 42 l 2,41 4,41 4,41 6,41 7,40 8,39 10,39 11,38 12,37 13,36 15,34 15,34 16,32 17,31 19,29 19,29 20,26 21,24 22,24 22,20 23,20 24,18 24,15 25,13 24,12 26,9 25,8 26,5 25,3 27,1 v 0 l 26,-1 26,-3 25,-5 26,-8 25,-9 25,-12 25,-13 24,-15 24,-18 22,-20 23,-20 21,-24 21,-24 20,-26 20,-29 18,-29 17,-31 16,-32 16,-34 15,-34 13,-36 11,-37 11,-38 10,-39 9,-39 7,-40 5,-41 5,-41 4,-41 1,-41 z"
   id="path160"
   inkscape:connector-curvature="0"
   style="fill:none;stroke:#a0a0a0;stroke-width:55;stroke-linecap:round;stroke-linejoin:round" />
         <path
   d="m 18023,15467 c 0,108 -16,214 -46,308 -30,94 -74,171 -126,225 -52,54 -112,83 -172,83 -61,0 -120,-29 -172,-83 -53,-54 -96,-131 -126,-225 -31,-94 -47,-200 -47,-308 0,-108 16,-214 47,-308 30,-93 73,-171 126,-225 52,-54 111,-83 172,-83 60,0 120,29 172,83 52,54 96,132 126,225 30,94 46,200 46,308 z"
   id="path162"
   inkscape:connector-curvature="0"
   style="fill:#000000;stroke:none" />
         <path
   d="m 18020,15466 -1,-31 -1,-31 -2,-31 -3,-31 -4,-30 -5,-31 -6,-29 -6,-29 -7,-28 -8,-27 -9,-27 -10,-27 -10,-24 -11,-24 -11,-24 -13,-21 -13,-21 -14,-20 -14,-19 -15,-17 -14,-15 -16,-15 -16,-13 -15,-12 -17,-10 -17,-8 -17,-7 -17,-6 -18,-4 -17,-2 -17,-1 v 0 l -18,1 -17,2 -17,4 -18,6 -17,7 -16,8 -17,10 -16,12 -16,13 -15,15 -15,15 -15,17 -14,19 -14,20 -13,21 -12,21 -12,24 -11,24 -10,24 -10,27 -8,27 -9,27 -7,28 -6,29 -6,29 -5,31 -4,30 -3,31 -2,31 -1,31 -1,31 v 0 l 1,31 1,30 2,31 3,31 4,31 5,30 6,29 6,29 7,28 9,27 8,27 10,27 10,25 11,24 12,23 12,21 13,21 14,20 14,19 15,17 15,15 15,15 16,13 16,12 17,10 16,8 17,7 18,6 17,4 17,2 18,1 v 0 l 17,-1 17,-2 18,-4 17,-6 17,-7 17,-8 17,-10 15,-12 16,-13 16,-15 14,-15 15,-17 14,-19 14,-20 13,-21 13,-21 11,-23 11,-24 10,-25 10,-27 9,-27 8,-27 7,-28 6,-29 6,-29 5,-30 4,-31 3,-31 2,-31 1,-30 z"
   id="path164"
   inkscape:connector-curvature="0"
   style="fill:none;stroke:#808080;stroke-width:27;stroke-linecap:round;stroke-linejoin:round" />
         <path
   d="m 17760,15507 c 0,32 -4,63 -13,90 -8,27 -21,49 -35,65 -15,16 -32,24 -49,24 -17,0 -33,-8 -48,-24 -15,-16 -27,-38 -35,-65 -9,-27 -13,-58 -13,-90 0,-31 4,-62 13,-89 8,-27 20,-50 35,-65 15,-16 31,-24 48,-24 17,0 34,8 49,24 14,15 27,38 35,65 9,27 13,58 13,89 z"
   id="path166"
   inkscape:connector-curvature="0"
   style="fill:#808080;stroke:none" />
         <path
   d="m 17795,15501 c 0,32 -5,62 -13,90 -8,27 -20,49 -35,65 -14,16 -31,24 -47,24 -17,0 -33,-8 -48,-24 -14,-16 -26,-38 -35,-65 -8,-28 -13,-58 -13,-90 0,-31 5,-62 13,-89 9,-27 21,-50 35,-66 15,-15 31,-24 48,-24 16,0 33,9 47,24 15,16 27,39 35,66 8,27 13,58 13,89 z"
   id="path168"
   inkscape:connector-curvature="0"
   style="fill:#e0e0e0;stroke:none" />
         <path
   d="m 8913,11458 -1989,1629 85,41 h 153 l 1894,-1714 z"
   id="path170"
   inkscape:connector-curvature="0"
   style="fill:#000060;stroke:none" />
         <path
   d="m 1205,14663 v -55 l 3,-44 21,-41 30,-31 55,-34 65,-37 310,-137 208,-75 168,-58 174,-65 167,-61 212,-61 661,-208 222,-69 242,-61 192,-48 191,-41 379,-78 283,-55 320,-61 529,-89 229,-44 208,-31 130,-21 137,-10 112,-17 194,-20 103,-24 85,-27 68,-21 1993,-1567 -1911,1618 2341,109 297,35 318,27 255,17 212,20 218,31 171,21 194,30 h 167 150 l 75,-10 58,-41 62,-55 102,-170 386,-789 110,-270 30,-82 38,-105 17,-79 3,-72 -13,-61 -31,-41 -51,-41 -116,-48 -274,-61 -263,-41 -293,-31 -351,-17 -365,-13 h -471 l -277,20 -253,21 -214,20 -157,17 -164,27 119,-51 106,-34 116,-20 154,-31 269,-41 264,-38 388,-40 229,-18 263,-17 255,-20 273,-21 256,-17 298,-3 h 194 l 952,484 -150,28 -154,27 -106,38 -78,44 -38,44 -34,41 -61,109 -263,533 -256,543 -37,106 -24,95 -7,79 v 44 l 7,58 24,31 34,20 55,17 95,7 4405,-372 113,-23 82,-21 58,-55 44,-47 61,-82 14,-82 v -65 l -14,-65 -34,-51 -34,-55 -72,-82 -115,-150 -246,-301 -327,-300 -58,-51 -55,-34 -82,-41 -68,-17 -79,-24 -109,-17 -127,-4 h -1211 l -324,17 -297,4 -328,37 -204,17 -952,-484 h 287 272 l 260,3 266,4 201,3 219,10 276,11 335,10 238,10 195,14 157,13 146,14 188,21 208,23 157,24 144,21 133,31 61,20 65,14 62,34 41,27 44,27 44,41 45,34 303,280 645,741 85,99 78,86 62,51 72,58 65,34 58,27 82,17 116,14 150,14 85,3 106,10 133,14 75,3 89,14 119,24 140,17 126,27 184,34 188,45 82,30 68,35 65,30 65,55 51,27 48,24 106,396 -58,140 -27,92 -24,85 -14,109 38,120 -359,703 -75,157 -62,89 -47,48 -51,37 -99,65 -96,41 -7,-171 -13,-106 -7,-123 -27,-116 -24,-102 -24,-123 -44,-113 -65,-105 -82,-99 -92,-82 -106,-38 -89,-13 h -102 l -123,13 -102,21 -99,24 -82,44 -68,48 -69,44 -61,58 -62,61 -51,62 -62,68 -61,89 -48,102 -41,72 -41,106 -30,137 -51,129 -62,137 -44,85 -68,86 -65,99 -85,85 -225,14 -6013,1016 10,-58 11,-99 v -167 -140 l -11,-163 -17,-113 -27,-106 -20,-123 -35,-122 -27,-113 -44,-119 -58,-93 -51,-102 -65,-82 -75,-86 -68,-61 -89,-69 -93,-44 -95,-38 -113,-30 -103,-31 -109,-10 h -112 l -123,3 -116,14 -112,27 -120,27 -157,59 -116,51 -116,61 -102,72 -78,65 -99,75 -93,86 -75,95 -106,120 -85,140 -89,133 -79,136 -47,106 -72,133 -58,126 -78,191 -41,133 -38,127 -44,109 -41,58 -48,37 -92,45 -85,27 -109,17 -120,24 -607,20 h -65 l -89,-34 -372,-904 61,-10 41,-24 175,-740 -1327,-21 -150,-3 -130,-7 -171,-14 -188,-20 -157,-17 -164,-28 -221,-31 -226,-41 -214,-37 -219,-45 -198,-44 -320,-89 -86,-34 -133,-41 -120,-41 -116,-34 -95,-34 -85,-38 -93,-41 -75,-44 -58,-38 z"
   id="path172"
   inkscape:connector-curvature="0"
   style="fill:#0000e0;stroke:none" />
         <path
   d="m 5763,15466 1198,-407 253,-78 436,-127 328,-89 328,-88 123,-34 102,-28 92,-17 184,-27 164,-14 h 160 l 178,7 198,14 136,20 154,4 2426,-270 1331,-140 1440,-157 1791,-174 669,-61 471,-41 301,-21 371,-34 253,-20 h 330 l 171,3 205,62 -160,17 -171,27 -160,41 -99,41 -65,31 -75,37 -85,41 -96,21 -106,6 -177,7 92,92 44,65 55,82 58,133 34,171 24,129 75,62 102,61 294,113 -55,147 -68,92 -75,96 -116,65 -130,82 -7,-209 -24,-215 -37,-171 -58,-174 -58,-140 -75,-112 -58,-120 -82,-92 -116,-65 -136,-37 -140,-17 -133,17 -144,37 -129,65 -117,82 -119,130 -75,112 -72,140 -34,113 -41,157 -17,140 -41,181 -61,150 -58,120 -79,99 -58,92 -78,106 -270,34 -5971,982 24,-426 17,-270 7,-201 -7,-150 -41,-177 -58,-164 -102,-174 -96,-161 -119,-130 -133,-106 -178,-89 -82,-34 -120,-41 -129,-20 -137,-27 -164,-14 h -112 l -171,17 -163,38 -154,37 -146,55 -144,64 -116,72 -109,89 -133,109 -127,147 -123,151 -102,174 -75,157 -82,222 -55,194 -17,174 7,96 24,126 -14,88 -27,93 -37,122 -55,123 -41,58 -54,45 -52,41 -68,30 -102,17 -102,17 -106,11 -92,3 h -147 l -232,-3 -239,-11 -676,-423 z"
   id="path174"
   inkscape:connector-curvature="0"
   style="fill:#0000a0;stroke:none" />
         <path
   d="m 1184,14663 v -55 l 7,-44 17,-41 31,-31 58,-34 61,-37 317,-137 198,-75 175,-58 171,-65 167,-61 215,-61 661,-208 222,-69 239,-58 184,-47 192,-41 385,-79 276,-54 324,-62 526,-89 235,-44 206,-31 129,-20 137,-10 116,-17 197,-21 99,-24 82,-27 89,31 h 65 l 2340,109 297,34 311,27 256,17 218,21 219,30 167,21 198,31 h 163 150 l 79,-11 -119,96 -79,41 -587,99 -624,95 -591,92 -351,52 -355,64 -481,103 -334,85 -270,72 -382,112 -570,168 -409,143 -786,283 -276,120 -221,109 -468,325 -150,-4 -123,-7 -177,-13 -185,-21 -150,-17 -171,-27 -218,-31 -222,-41 -218,-38 -215,-44 -204,-44 -314,-89 -93,-34 -126,-41 -120,-41 -119,-35 -96,-34 -82,-34 -98,-41 -75,-44 -52,-38 z"
   id="path176"
   inkscape:connector-curvature="0"
   style="fill:#0000ff;stroke:none" />
         <path
   d="m 6709,15510 409,-82 62,7 -440,96 v 204 l -31,-13 z"
   id="path178"
   inkscape:connector-curvature="0"
   style="fill:#ff8000;stroke:none" />
         <path
   d="m 6740,15531 440,-96 v 195 l -440,105 z"
   id="path180"
   inkscape:connector-curvature="0"
   style="fill:#ffe0c0;stroke:none" />
         <path
   d="m 12148,13844 181,-20 147,-79 160,-58 136,-17 h 45 l 133,34 153,58 86,17 27,-17 20,-37 v -75 l -20,-55 -72,-89 -61,-88 -17,-45 -662,45 65,75 7,37 -14,65 -58,72 -89,44 z"
   id="path182"
   inkscape:connector-curvature="0"
   style="fill:#000080;stroke:none" />
         <path
   d="m 12008,13626 18,119 13,58 21,24 47,17 45,4 75,-4 51,-30 14,-31 6,-116 14,-103 v -71 l 7,-38 17,-65 27,-20 h 41 l 85,10 133,31 106,17 89,3 99,-3 61,-17 51,-31 38,-37 17,-48 27,-283 -20,-68 -24,-31 -41,-34 -79,-17 -279,-31 -242,-10 -140,10 -45,27 -23,38 -24,71 -4,198 4,99 34,41 7,10 -99,133 -75,82 -52,45 z"
   id="path184"
   inkscape:connector-curvature="0"
   style="fill:#a0a0a0;stroke:none" />
         <path
   d="m 12189,13107 34,7 17,24 7,61 v 55 l -17,72 -37,-48 -4,-41 z"
   id="path186"
   inkscape:connector-curvature="0"
   style="fill:#606060;stroke:none" />
         <path
   d="m 12476,13220 187,-38 130,-44 102,-7 85,4 89,-4 -10,109 -96,86 -126,10 -235,-58 z"
   id="path188"
   inkscape:connector-curvature="0"
   style="fill:#404040;stroke:none" />
         <path
   d="m 12008,13626 18,119 13,58 21,24 47,17 45,4 75,-4 51,-30 14,-31 6,-116 14,-103 v -71 l 7,-38 17,-65 27,-20 h 41 l 85,10 133,31 106,17 89,3 99,-3 61,-17 51,-31 38,-37 17,-48 27,-283 -20,-68 -24,-31 -41,-34 41,105 v 41 48 l -7,62 -21,102 -34,37 -51,24 -61,7 -58,-7 -65,-17 -85,-17 -89,-24 -72,-17 -75,-17 -81,17 -31,31 -24,89 -27,82 -51,95 -38,55 -37,34 -62,17 -51,10 z"
   id="path190"
   inkscape:connector-curvature="0"
   style="fill:#606060;stroke:none" />
         <path
   d="m 14035,13650 45,102 426,-31 -34,-105 z"
   id="path192"
   inkscape:connector-curvature="0"
   style="fill:#000080;stroke:none" />
         <path
   d="m 13971,13534 446,-31 55,34 34,85 -467,24 -34,-20 z"
   id="path194"
   inkscape:connector-curvature="0"
   style="fill:#c0c0c0;stroke:none" />
         <path
   d="m 16553,13411 45,102 426,-34 -41,-106 z"
   id="path196"
   inkscape:connector-curvature="0"
   style="fill:#000080;stroke:none" />
         <path
   d="m 16489,13285 446,-21 48,34 41,82 -464,28 -41,-24 z"
   id="path198"
   inkscape:connector-curvature="0"
   style="fill:#c0c0c0;stroke:none" />
         <path
   d="m 14438,13268 65,116 44,95 24,89 24,78 24,92 17,99 17,89 20,85 38,65 -7,79 -7,105 v 127 l 17,157 24,279 10,253 v 188 l -20,188 -17,167 -38,191"
   id="path200"
   inkscape:connector-curvature="0"
   style="fill:none;stroke:#000040;stroke-width:27;stroke-linecap:round;stroke-linejoin:round" />
         <path
   d="m 11875,13431 -218,38 -154,24 -181,3 55,174 37,130 44,167 24,150 31,195 99,99 -85,41 v 174 l 10,174 20,222 21,406 v 372 l -14,212 -7,163 -20,134 4846,-782 239,-54 -21,-137 24,-140 17,-120 68,-174 62,-133 88,-171 99,-146 75,-134 120,-143 98,-119 96,-130 41,-89 -41,-47 -17,-116 -41,-164 -51,-150 -62,-137 -85,-105 -58,-76 h -331"
   id="path202"
   inkscape:connector-curvature="0"
   style="fill:none;stroke:#000040;stroke-width:27;stroke-linecap:round;stroke-linejoin:round" />
         <path
   d="m 1709,14769 v 1055 l 2820,665 v -1174 z"
   id="path204"
   inkscape:connector-curvature="0"
   style="fill:#000000;stroke:none" />
         <path
   d="m 1908,15018 10,29 15,29 20,28 26,27 29,28 34,27 39,27 43,25 47,25 52,24 56,24 59,22 63,21 67,21 70,19 74,18 76,18 79,15 82,15 84,13 86,13 88,10 90,9 91,8 93,6 93,5 94,3 94,2 95,1 95,-1 94,-3 94,-4 93,-5 92,-7"
   id="path206"
   inkscape:connector-curvature="0"
   style="fill:none;stroke:#a0a0a0;stroke-width:27;stroke-linecap:round;stroke-linejoin:round" />
         <path
   d="m 1922,15151 12,29 15,28 21,28 26,27 30,27 35,27 38,26 44,25 48,25 52,24 55,22 60,23 63,21 67,20 70,19 73,18 76,17 79,15 82,15 83,13 87,12 87,10 90,9 91,8 92,6 92,5 94,3 94,1 95,1 93,-1 95,-3 93,-4 93,-5 91,-7"
   id="path208"
   inkscape:connector-curvature="0"
   style="fill:none;stroke:#a0a0a0;stroke-width:27;stroke-linecap:round;stroke-linejoin:round" />
         <path
   d="m 1919,15271 9,27 14,28 18,28 23,28 27,27 32,26 36,27 41,25 45,25 48,24 53,23 56,23 61,21 64,20 67,21 70,18 73,17 76,16 79,16 81,13 84,13 85,11 87,10 89,9 89,7 92,6 92,4 92,3 93,2 h 93 l 93,-2 92,-2 92,-5 92,-5 90,-7"
   id="path210"
   inkscape:connector-curvature="0"
   style="fill:none;stroke:#a0a0a0;stroke-width:27;stroke-linecap:round;stroke-linejoin:round" />
         <path
   d="m 1929,15404 9,28 13,27 18,28 22,27 27,27 32,27 35,25 41,26 45,25 48,23 52,24 56,22 60,22 63,20 67,20 70,19 73,17 75,16 78,15 81,13 83,14 85,10 86,11 89,8 89,8 91,6 91,4 92,3 93,2 h 93 l 92,-1 93,-3 91,-3 91,-6 90,-7"
   id="path212"
   inkscape:connector-curvature="0"
   style="fill:none;stroke:#a0a0a0;stroke-width:27;stroke-linecap:round;stroke-linejoin:round" />
         <path
   d="m 1914,15514 8,27 13,28 17,28 21,28 27,27 31,26 34,27 40,25 44,25 47,25 53,23 55,22 59,22 64,21 66,20 70,19 73,17 75,17 78,15 81,14 83,12 85,12 86,11 89,8 89,8 92,6 91,5 93,3 93,2 h 93 93 l 93,-3 92,-4 91,-5 91,-7"
   id="path214"
   inkscape:connector-curvature="0"
   style="fill:none;stroke:#a0a0a0;stroke-width:27;stroke-linecap:round;stroke-linejoin:round" />
         <path
   d="m 1908,14905 10,29 15,29 20,28 26,27 29,28 34,27 39,27 43,25 47,25 52,24 56,24 59,22 63,21 67,21 70,19 74,18 75,18 80,16 81,14 85,13 86,13 88,10 89,9 92,8 92,6 93,5 94,4 94,1 96,1 94,-1 94,-3 94,-4 93,-5 92,-7"
   id="path216"
   inkscape:connector-curvature="0"
   style="fill:none;stroke:#a0a0a0;stroke-width:27;stroke-linecap:round;stroke-linejoin:round" />
         <path
   d="m 1280,14694 88,826 570,270 -51,-967 z"
   id="path218"
   inkscape:connector-curvature="0"
   style="fill:#ffffff;stroke:none" />
         <path
   d="m 1222,14666 140,906 -62,-854 z"
   id="path220"
   inkscape:connector-curvature="0"
   style="fill:#e07000;stroke:none" />
         <path
   d="m 1744,14782 71,1011 154,79 -61,-1076 z"
   id="path222"
   inkscape:connector-curvature="0"
   style="fill:#e0e0e0;stroke:none" />
         <path
   d="m 4167,15329 82,945 269,24 -102,-976 z"
   id="path224"
   inkscape:connector-curvature="0"
   style="fill:#e0e0e0;stroke:none" />
         <path
   d="m 4358,15322 102,959 798,21 -88,-973 z"
   id="path226"
   inkscape:connector-curvature="0"
   style="fill:#ffffff;stroke:none" />
         <path
   d="m 5166,15421 72,819 h 358 l 191,-812 z"
   id="path228"
   inkscape:connector-curvature="0"
   style="fill:#e07000;stroke:none" />
         <path
   d="m 1447,14390 -58,21 -48,20 -41,24 -44,37 -38,24 -24,45 -10,51 v 48 l 34,27 41,41 58,37 92,48 96,38 109,41 133,48 126,41 161,51 150,48 161,44 143,31 136,37 154,28 160,34 150,27 212,34 184,31 228,38 195,20 178,11 188,13 334,17 969,21 246,-21 -843,-338 -92,-34 -106,-10 h -102 l -96,10 -116,7 -116,-7 -129,-14 -359,-41 -236,-17 -225,-34 -239,-41 -245,-45 -294,-47 -242,-69 -187,-58 -181,-47 -161,-55 -130,-44 -109,-51 -58,-35 -51,-34 z"
   id="path230"
   inkscape:connector-curvature="0"
   style="fill:#4040ff;stroke:none" />
         <path
   d="m 19454,14155 31,68 44,34 85,31 106,44 191,58 45,24 20,24 10,205 -6,47 -21,41 -37,34 -35,28 -64,37 -106,41 -123,48 -188,51 -178,38 -109,20 -85,11 -126,3 -75,-3 -48,-17 -44,-24 -21,-45 -95,-457 58,-24 88,-20 164,-24 85,-24 99,-28 68,-20 82,-24 48,-20 62,-28 41,-41 24,-37 z"
   id="path232"
   inkscape:connector-curvature="0"
   style="fill:#404040;stroke:none" />
         <path
   d="m 19502,14376 54,-34 55,-54 109,44 191,58 -13,31 -41,31 -58,40 -103,45 -119,44 -133,31 -106,24 -106,17 -113,13 -147,18 h -109 l -82,-4 -61,-37 -24,-38 7,-34 20,-31 62,-3 85,-4 h 65 l 116,-20 78,-17 89,-17 85,-14 76,-27 71,-24 z"
   id="path234"
   inkscape:connector-curvature="0"
   style="fill:#a0a0a0;stroke:none" />
         <path
   d="m 18856,14690 168,-3 208,-21 194,-34 134,-27 150,-61 109,-48"
   id="path236"
   inkscape:connector-curvature="0"
   style="fill:none;stroke:#e0e0e0;stroke-width:27;stroke-linecap:round;stroke-linejoin:round" />
         <path
   d="m 1314,15438 -62,21 -68,38 -75,44 -54,51 -31,48 -21,37 -10,58 v 338 l 10,55 38,65 58,51 68,58 102,58 304,109 239,89 325,109 358,109 283,78 348,79 399,72 194,37 185,24 167,24 116,17 151,14 122,3 317,27 284,17 249,17 283,11 324,3 291,-7 177,-7 177,-30 171,-34 102,-41 72,-58 82,-58 68,-93 47,-75 48,-129 17,-126 7,-106 -7,-113 -13,-95 -379,75 -119,17 -212,27 -167,3 h -147 l -153,-3 -116,-3 -106,-34 -79,-11 -79,-41 -47,-44 -618,-3 -279,-11 -150,-3 -167,-14 -243,-27 -280,-31 -208,-30 -198,-31 -195,-21 -289,-58 -297,-58 -283,-64 -219,-62 -232,-71 -239,-79 -120,-48 -85,-41 -48,-27 -27,-34 -20,-62 z"
   id="path238"
   inkscape:connector-curvature="0"
   style="fill:#404040;stroke:none" />
         <path
   d="m 1529,15930 -110,-31 -105,-41 -109,-48 -86,-51 -75,-48 -41,-34 -10,58 v 338 l 10,55 38,65 58,51 68,58 102,58 304,109 239,89 325,109 358,112 283,75 348,79 327,65 266,44 185,31 167,17 116,17 151,14 139,10 300,20 284,17 249,17 283,11 324,3 291,-7 177,-7 123,-17 92,-13 129,-31 106,-44 82,-58 72,-58 68,-93 47,-71 48,-133 17,-126 7,-106 -7,-113 -13,-95 -24,82 -38,71 -75,45 -102,30 -99,28 -150,27 -174,20 -171,11 -221,17 h -192 l -153,-4 -198,-13 h -249 -185 -174 l -167,-7 -208,-4 -198,-13 -231,-17 -243,-28 -222,-20 -205,-34 -208,-34 -218,-38 -195,-37 -174,-41 -170,-45 -198,-54 -184,-52 -130,-40 -147,-31 -106,-41 -130,-41 z"
   id="path240"
   inkscape:connector-curvature="0"
   style="fill:#606060;stroke:none" />
         <path
   d="m 1443,15926 119,61 129,58 137,56 145,55 152,51 160,48 167,45 173,43 180,39 185,36 190,32 194,30 199,25 203,23 205,18 207,15 210,11 211,8 212,3 h 212 l 212,-4 211,-8 209,-12"
   id="path242"
   inkscape:connector-curvature="0"
   style="fill:none;stroke:#a0a0a0;stroke-width:27;stroke-linecap:round;stroke-linejoin:round" />
         <path
   d="m 4447,16715 v 266 l 753,24 v -55 l -654,-34 3,-201 z"
   id="path244"
   inkscape:connector-curvature="0"
   style="fill:#404040;stroke:none" />
         <path
   d="m 4532,16715 h 655 l 13,245 -668,-20 z"
   id="path246"
   inkscape:connector-curvature="0"
   style="fill:#202020;stroke:none" />
         <path
   d="m 1229,15957 v 198 l 303,119 v -44 l -273,-102 v -157 z"
   id="path248"
   inkscape:connector-curvature="0"
   style="fill:#404040;stroke:none" />
         <path
   d="m 1259,15971 273,88 v 178 l -273,-89 z"
   id="path250"
   inkscape:connector-curvature="0"
   style="fill:#202020;stroke:none" />
        </g>
       </g>
      </g>
     </g>
    </g>
   </g>
  </g>
 </g>
</svg>