<?xml version="1.0" encoding="UTF-8" standalone="no"?>
<svg
   xmlns:ooo="http://xml.openoffice.org/svg/export"
   xmlns:dc="http://purl.org/dc/elements/1.1/"
   xmlns:cc="http://creativecommons.org/ns#"
   xmlns:rdf="http://www.w3.org/1999/02/22-rdf-syntax-ns#"
   xmlns:svg="http://www.w3.org/2000/svg"
   xmlns="http://www.w3.org/2000/svg"
   xmlns:sodipodi="http://sodipodi.sourceforge.net/DTD/sodipodi-0.dtd"
   xmlns:inkscape="http://www.inkscape.org/namespaces/inkscape"
   version="1.2"
   width="59.579998mm"
   height="91.330002mm"
   viewBox="0 0 5957.9998 9133.0002"
   preserveAspectRatio="xMidYMid"
   xml:space="preserve"
   id="svg132"
   sodipodi:docname="smile.svg"
   style="fill-rule:evenodd;stroke-width:28.22200012;stroke-linejoin:round"
   inkscape:version="0.92.5 (2060ec1f9f, 2020-04-08)"><metadata
   id="metadata136"><rdf:RDF><cc:Work
       rdf:about=""><dc:format>image/svg+xml</dc:format><dc:type
         rdf:resource="http://purl.org/dc/dcmitype/StillImage" /></cc:Work></rdf:RDF></metadata><sodipodi:namedview
   pagecolor="#ffffff"
   bordercolor="#666666"
   borderopacity="1"
   objecttolerance="10"
   gridtolerance="10"
   guidetolerance="10"
   inkscape:pageopacity="0"
   inkscape:pageshadow="2"
   inkscape:window-width="664"
   inkscape:window-height="487"
   id="namedview134"
   showgrid="false"
   inkscape:zoom="0.2102413"
   inkscape:cx="112.59213"
   inkscape:cy="172.57323"
   inkscape:window-x="0"
   inkscape:window-y="0"
   inkscape:window-maximized="0"
   inkscape:current-layer="svg132" />
 <defs
   class="ClipPathGroup"
   id="defs8">
  <clipPath
   id="presentation_clip_path"
   clipPathUnits="userSpaceOnUse">
   <rect
   x="0"
   y="0"
   width="21000"
   height="29700"
   id="rect2" />
  </clipPath>
  <clipPath
   id="presentation_clip_path_shrink"
   clipPathUnits="userSpaceOnUse">
   <rect
   x="21"
   y="29"
   width="20958"
   height="29641"
   id="rect5" />
  </clipPath>
 </defs>
 <defs
   class="TextShapeIndex"
   id="defs12">
  <g
   ooo:slide="id1"
   ooo:id-list="id3"
   id="g10" />
 </defs>
 <defs
   class="EmbeddedBulletChars"
   id="defs44">
  <g
   id="bullet-char-template-57356"
   transform="matrix(4.8828125e-4,0,0,-4.8828125e-4,0,0)">
   <path
   d="M 580,1141 1163,571 580,0 -4,571 Z"
   id="path14"
   inkscape:connector-curvature="0" />
  </g>
  <g
   id="bullet-char-template-57354"
   transform="matrix(4.8828125e-4,0,0,-4.8828125e-4,0,0)">
   <path
   d="M 8,1128 H 1137 V 0 H 8 Z"
   id="path17"
   inkscape:connector-curvature="0" />
  </g>
  <g
   id="bullet-char-template-10146"
   transform="matrix(4.8828125e-4,0,0,-4.8828125e-4,0,0)">
   <path
   d="M 174,0 602,739 174,1481 1456,739 Z M 1358,739 309,1346 659,739 Z"
   id="path20"
   inkscape:connector-curvature="0" />
  </g>
  <g
   id="bullet-char-template-10132"
   transform="matrix(4.8828125e-4,0,0,-4.8828125e-4,0,0)">
   <path
   d="M 2015,739 1276,0 H 717 l 543,543 H 174 v 393 h 1086 l -543,545 h 557 z"
   id="path23"
   inkscape:connector-curvature="0" />
  </g>
  <g
   id="bullet-char-template-10007"
   transform="matrix(4.8828125e-4,0,0,-4.8828125e-4,0,0)">
   <path
   d="m 0,-2 c -7,16 -16,29 -25,39 l 381,530 c -94,256 -141,385 -141,387 0,25 13,38 40,38 9,0 21,-2 34,-5 21,4 42,12 65,25 l 27,-13 111,-251 280,301 64,-25 24,25 c 21,-10 41,-24 62,-43 C 886,937 835,863 770,784 769,783 710,716 594,584 L 774,223 c 0,-27 -21,-55 -63,-84 l 16,-20 C 717,90 699,76 672,76 641,76 570,178 457,381 L 164,-76 c -22,-34 -53,-51 -92,-51 -42,0 -63,17 -64,51 -7,9 -10,24 -10,44 0,9 1,19 2,30 z"
   id="path26"
   inkscape:connector-curvature="0" />
  </g>
  <g
   id="bullet-char-template-10004"
   transform="matrix(4.8828125e-4,0,0,-4.8828125e-4,0,0)">
   <path
   d="M 285,-33 C 182,-33 111,30 74,156 52,228 41,333 41,471 c 0,78 14,145 41,201 34,71 87,106 158,106 53,0 88,-31 106,-94 l 23,-176 c 8,-64 28,-97 59,-98 l 735,706 c 11,11 33,17 66,17 42,0 63,-15 63,-46 V 965 c 0,-36 -10,-64 -30,-84 L 442,47 C 390,-6 338,-33 285,-33 Z"
   id="path29"
   inkscape:connector-curvature="0" />
  </g>
  <g
   id="bullet-char-template-9679"
   transform="matrix(4.8828125e-4,0,0,-4.8828125e-4,0,0)">
   <path
   d="M 813,0 C 632,0 489,54 383,161 276,268 223,411 223,592 c 0,181 53,324 160,431 106,107 249,161 430,161 179,0 323,-54 432,-161 108,-107 162,-251 162,-431 0,-180 -54,-324 -162,-431 C 1136,54 992,0 813,0 Z"
   id="path32"
   inkscape:connector-curvature="0" />
  </g>
  <g
   id="bullet-char-template-8226"
   transform="matrix(4.8828125e-4,0,0,-4.8828125e-4,0,0)">
   <path
   d="m 346,457 c -73,0 -137,26 -191,78 -54,51 -81,114 -81,188 0,73 27,136 81,188 54,52 118,78 191,78 73,0 134,-26 185,-79 51,-51 77,-114 77,-187 0,-75 -25,-137 -76,-188 -50,-52 -112,-78 -186,-78 z"
   id="path35"
   inkscape:connector-curvature="0" />
  </g>
  <g
   id="bullet-char-template-8211"
   transform="matrix(4.8828125e-4,0,0,-4.8828125e-4,0,0)">
   <path
   d="M -4,459 H 1135 V 606 H -4 Z"
   id="path38"
   inkscape:connector-curvature="0" />
  </g>
  <g
   id="bullet-char-template-61548"
   transform="matrix(4.8828125e-4,0,0,-4.8828125e-4,0,0)">
   <path
   d="m 173,740 c 0,163 58,303 173,419 116,115 255,173 419,173 163,0 302,-58 418,-173 116,-116 174,-256 174,-419 0,-163 -58,-303 -174,-418 C 1067,206 928,148 765,148 601,148 462,206 346,322 231,437 173,577 173,740 Z"
   id="path41"
   inkscape:connector-curvature="0" />
  </g>
 </defs>
 <g
   id="g49"
   transform="translate(-7521,-10283)">
  <g
   id="id2"
   class="Master_Slide">
   <g
   id="bg-id2"
   class="Background" />
   <g
   id="bo-id2"
   class="BackgroundObjects" />
  </g>
 </g>
 <g
   class="SlideGroup"
   id="g130"
   transform="translate(-7521,-10283)">
  <g
   id="g128">
   <g
   id="container-id1">
    <g
   id="id1"
   class="Slide"
   clip-path="url(#presentation_clip_path)">
     <g
   class="Page"
   id="g124">
      <g
   class="Graphic"
   id="g122">
       <g
   id="id3">
        <rect
   class="BoundingBox"
   x="7521"
   y="10283"
   width="5958"
   height="9133"
   id="rect51"
   style="fill:none;stroke:none" />
        <defs
   id="defs56">
         <clipPath
   id="clip_path_1"
   clipPathUnits="userSpaceOnUse">
          <path
   d="m 7521,10283 h 5957 v 9132 H 7521 Z"
   id="path53"
   inkscape:connector-curvature="0" />
         </clipPath>
        </defs>
        <g
   clip-path="url(#clip_path_1)"
   id="g108">
         <path
   d="m 8819,19354 -504,-657 -463,-600 -234,-358 -40,-229 115,-304 349,-574 291,-428 230,-410 119,-278 53,-252 22,-326 57,-216 128,-168 199,-44 300,26 145,22 199,-39 221,-142 538,230 406,13 750,278 826,190 476,198 212,424 v 423 636 l 212,2329 z"
   id="path58"
   inkscape:connector-curvature="0"
   style="fill:#0000ff;stroke:none" />
         <path
   d="m 8819,19354 -504,-657 -463,-600 -234,-358 -40,-229 115,-304 349,-574 291,-428 230,-410 119,-278 53,-252 22,-326 57,-216 128,-168 199,-44 300,26 145,22 199,-39 221,-142 538,230 406,13 750,278 826,190 476,198 212,424 v 423 636 l 212,2329 z"
   id="path60"
   inkscape:connector-curvature="0"
   style="fill:none;stroke:#0000ff;stroke-width:35;stroke-linecap:round;stroke-linejoin:round" />
         <path
   d="m 10015,14320 -102,437 -101,626 35,768 194,-269 207,-252 331,-370 340,401 322,393 -114,-450 -22,-543 -199,-503 -31,208 -251,159 -398,-248 z"
   id="path62"
   inkscape:connector-curvature="0"
   style="fill:#a0c0ff;stroke:none" />
         <path
   d="m 10015,14320 -102,437 -101,626 35,768 194,-269 207,-252 331,-370 340,401 322,393 -114,-450 -22,-543 -199,-503 -31,208 -251,159 -398,-248 z"
   id="path64"
   inkscape:connector-curvature="0"
   style="fill:none;stroke:#000000;stroke-width:35;stroke-linecap:round;stroke-linejoin:round" />
         <path
   d="m 10310,15247 314,-305 203,331 -159,503 198,591 172,397 -172,1011 -198,1544 h -256 l -252,-1544 -119,-1024 154,-401 234,-592 z"
   id="path66"
   inkscape:connector-curvature="0"
   style="fill:#ff0000;stroke:none" />
         <path
   d="m 10310,15247 314,-305 203,331 -159,503 198,591 172,397 -172,1011 -198,1544 h -256 l -252,-1544 -119,-1024 154,-401 234,-592 z"
   id="path68"
   inkscape:connector-curvature="0"
   style="fill:none;stroke:#ff0000;stroke-width:35;stroke-linecap:round;stroke-linejoin:round" />
         <path
   d="m 9772,16473 -141,375 -203,331 -301,260 -216,159 190,115 159,141 123,199 442,1257"
   id="path70"
   inkscape:connector-curvature="0"
   style="fill:none;stroke:#000000;stroke-width:35;stroke-linecap:round;stroke-linejoin:round" />
         <path
   d="m 11855,11046 -283,-189 -406,-159 -339,-14 -384,71 -314,102 -212,255 -172,318 -132,216 -172,239 -97,260 -58,247 18,216 -110,-106 -84,-154 -128,-49 -133,14 -114,61 -71,75 -22,137 31,163 57,142 89,119 88,101 97,35 110,-17 71,-31 75,-44 57,-31 -57,119 -27,185 27,177 48,176 75,172 120,137 123,137 133,101 158,71 106,79 9,102 75,128 88,92 146,80 124,53 123,18 80,-31 57,-102 80,84 105,4 115,-44 111,-79 110,-128 132,-146 194,-167 186,-155 229,-172 97,-159 111,-101 119,-172 57,-327 13,-287 -30,-88 v -145 l 30,-300 v -362 l -70,-313 -172,-287 z"
   id="path72"
   inkscape:connector-curvature="0"
   style="fill:#e0a080;stroke:none" />
         <path
   d="m 11855,11046 -283,-189 -406,-159 -339,-14 -384,71 -314,102 -212,255 -172,318 -132,216 -172,239 -97,260 -58,247 18,216 -110,-106 -84,-154 -128,-49 -133,14 -114,61 -71,75 -22,137 31,163 57,142 89,119 88,101 97,35 110,-17 71,-31 75,-44 57,-31 -57,119 -27,185 27,177 48,176 75,172 120,137 123,137 133,101 158,71 106,79 9,102 75,128 88,92 146,80 124,53 123,18 80,-31 57,-102 80,84 105,4 115,-44 111,-79 110,-128 132,-146 194,-167 186,-155 229,-172 97,-159 111,-101 119,-172 57,-327 13,-287 -30,-88 v -145 l 30,-300 v -362 l -70,-313 -172,-287 z"
   id="path74"
   inkscape:connector-curvature="0"
   style="fill:none;stroke:#000000;stroke-width:35;stroke-linecap:round;stroke-linejoin:round" />
         <path
   d="m 10182,12771 -70,31 -53,36 -44,57 -18,79 9,75 17,71"
   id="path76"
   inkscape:connector-curvature="0"
   style="fill:none;stroke:#000000;stroke-width:35;stroke-linecap:round;stroke-linejoin:round" />
         <path
   d="m 10028,12895 44,97 66,93 80,88 75,71 97,66 136,48 146,22 163,22 164,-13 119,-22 146,-62 105,-88 93,-124 53,-101 27,-106 30,-110"
   id="path78"
   inkscape:connector-curvature="0"
   style="fill:none;stroke:#000000;stroke-width:35;stroke-linecap:round;stroke-linejoin:round" />
         <path
   d="m 11365,12683 79,22 67,22 75,40 57,40 35,61 14,58"
   id="path80"
   inkscape:connector-curvature="0"
   style="fill:none;stroke:#000000;stroke-width:35;stroke-linecap:round;stroke-linejoin:round" />
         <path
   d="m 10782,11770 -128,159 -88,114 -66,115 -62,150 -26,141 -5,124 40,110 71,88 110,45 150,13 132,-22 98,-36 83,-57 45,-57 44,-119 4,-120 -22,-97 -35,-70 -40,-49 -49,-31 -66,-17"
   id="path82"
   inkscape:connector-curvature="0"
   style="fill:none;stroke:#000000;stroke-width:35;stroke-linecap:round;stroke-linejoin:round" />
         <path
   d="m 11008,11673 97,-27 92,-13 115,22 102,49 79,101 -84,22 -62,5 -57,-5 -49,-13 -13,-40 9,-53 27,-35"
   id="path84"
   inkscape:connector-curvature="0"
   style="fill:none;stroke:#000000;stroke-width:35;stroke-linecap:round;stroke-linejoin:round" />
         <path
   d="m 10059,11902 66,-35 66,-44 49,-66 97,8 92,-8 80,-31 101,-53 -66,53 -40,53 -35,48 -57,18 -58,-44"
   id="path86"
   inkscape:connector-curvature="0"
   style="fill:none;stroke:#000000;stroke-width:35;stroke-linecap:round;stroke-linejoin:round" />
         <path
   d="m 11008,11452 -18,44 v 49 l 40,26 61,14 80,-22 84,-14 88,5 75,39 71,22 61,-30 9,-58 -40,-57 -70,-44 -124,-27 -119,-4 -110,22 z"
   id="path88"
   inkscape:connector-curvature="0"
   style="fill:#a04000;stroke:none" />
         <path
   d="m 11008,11452 -18,44 v 49 l 40,26 61,14 80,-22 84,-14 88,5 75,39 71,22 61,-30 9,-58 -40,-57 -70,-44 -124,-27 -119,-4 -110,22 z"
   id="path90"
   inkscape:connector-curvature="0"
   style="fill:none;stroke:#000000;stroke-width:35;stroke-linecap:round;stroke-linejoin:round" />
         <path
   d="m 9030,12277 53,159 67,119 110,84 115,40 -18,-199 26,-198 36,-181 75,-194 97,-203 168,-283 189,-238 84,-57 146,92 168,89 189,44 115,26 119,9 124,-18 123,-44 177,-66 146,-79 141,-80 84,5 48,-9 110,-40 45,71 79,114 124,89 136,110 80,124 53,167 -22,172 53,159 75,119 44,133 18,83 -27,128 124,-4 39,-75 62,-128 27,-159 39,-203 36,-265 -40,-216 -71,-229 -97,-177 -106,-150 -154,-101 -124,-44 -123,-22 -111,22 -123,39 -111,-123 -136,-102 -195,-105 -163,-62 -225,-53 -194,-27 -252,14 -238,17 -243,49 -189,53 -133,97 -101,128 -40,145 22,124 44,132 -101,36 -106,66 -97,57 -84,62 -62,57 -66,84 -58,106 -31,150 -13,243 5,141 z"
   id="path92"
   inkscape:connector-curvature="0"
   style="fill:#a04000;stroke:none" />
         <path
   d="m 9030,12277 53,159 67,119 110,84 115,40 -18,-199 26,-198 36,-181 75,-194 97,-203 168,-283 189,-238 84,-57 146,92 168,89 189,44 115,26 119,9 124,-18 123,-44 177,-66 146,-79 141,-80 84,5 48,-9 110,-40 45,71 79,114 124,89 136,110 80,124 53,167 -22,172 53,159 75,119 44,133 18,83 -27,128 124,-4 39,-75 62,-128 27,-159 39,-203 36,-265 -40,-216 -71,-229 -97,-177 -106,-150 -154,-101 -124,-44 -123,-22 -111,22 -123,39 -111,-123 -136,-102 -195,-105 -163,-62 -225,-53 -194,-27 -252,14 -238,17 -243,49 -189,53 -133,97 -101,128 -40,145 22,124 44,132 -101,36 -106,66 -97,57 -84,62 -62,57 -66,84 -58,106 -31,150 -13,243 5,141 z"
   id="path94"
   inkscape:connector-curvature="0"
   style="fill:none;stroke:#000000;stroke-width:35;stroke-linecap:round;stroke-linejoin:round" />
         <path
   d="m 9322,11880 -36,58 -26,70 -22,66 -5,66 18,67 13,66 36,48 35,-39 22,-71 -9,-53 -13,-62 -13,-61 8,-58 27,-66 18,-57 30,-36 14,62 -14,71 -17,35 26,22 31,-13 18,-31 9,-31 v -31 l -9,-48 -13,-31 -9,-31 -5,-53 5,-40 31,-22 39,-13 h 31 l -13,-49 v -26 -49 l 4,-30 9,-31 27,-49 13,-31 22,-35 27,-31 26,-18 27,-22 17,-8"
   id="path96"
   inkscape:connector-curvature="0"
   style="fill:none;stroke:#000000;stroke-width:35;stroke-linecap:round;stroke-linejoin:round" />
         <path
   d="m 11599,10949 -57,-13 -58,4 -62,18 -61,31 -62,26 -49,40 -44,44 -26,36 -44,30 -45,22 -48,27 -62,22 -53,18 -57,13 -75,9 -89,4 h -61 l -84,-9 -71,-9 -53,-17 -48,-13 -53,-18 -66,-31 -53,-31 -40,-31 -40,-39 -26,-49 -14,-44 67,71 61,22 45,17 52,9 75,4 76,5 79,-5 71,-8 114,-18 93,-13 79,-9 62,-18 88,-35 49,-18 57,-48 18,-31 -53,-4 -62,8 -92,27 -80,13 -66,18 -53,17 -79,9 -58,-4 -79,-27 -66,-44 -62,-53 -58,-26 -83,-13 -75,13 -75,-22 -76,-49 -70,-48 -71,-40 -110,-5 -66,14 -49,13 13,62 40,57 53,31 88,31 93,9 84,-5 66,-13 9,53 22,35 26,40 53,22 58,9 70,-13 53,-14 53,-17"
   id="path98"
   inkscape:connector-curvature="0"
   style="fill:none;stroke:#000000;stroke-width:35;stroke-linecap:round;stroke-linejoin:round" />
         <path
   d="m 11890,10989 71,35 70,49 93,66 49,44 44,40 26,35 27,53 v 71 l -13,70 13,58 26,97 36,66 44,53 -40,97 -27,92 -22,62 -4,75 -22,-44 -18,-48 -9,-58 5,-70 4,-67 14,-79 4,-71 -18,-61 -26,-49 -27,-70 -31,-62 -26,-27 4,44 18,67 -66,-75 -36,-40 -30,-31 -58,-40 -62,-48 -57,-49 -40,-62 -39,-57 -22,-53 44,-22 53,-9 z"
   id="path100"
   inkscape:connector-curvature="0"
   style="fill:none;stroke:#000000;stroke-width:35;stroke-linecap:round;stroke-linejoin:round" />
         <path
   d="m 11484,10526 93,-5 70,13 36,31 39,67 9,48 9,49 9,44 v 26 l 26,-53 9,-66 -4,-48 -13,-62 -40,-62 -40,-35 62,22 49,70 22,58 8,48 -4,58 -4,26 22,-48 39,-53 58,-49 70,-31 71,-9 49,9 39,9 36,13 -40,5 -40,13 -44,4 -66,18 -40,31 -31,31 -26,35 -18,44 -9,62"
   id="path102"
   inkscape:connector-curvature="0"
   style="fill:none;stroke:#000000;stroke-width:35;stroke-linecap:round;stroke-linejoin:round" />
         <path
   d="m 10615,11457 17,44 v 48 l -35,31 -57,9 -84,-22 -84,-13 -88,4 -75,40 -71,22 -57,-31 -5,-57 36,-58 70,-44 115,-26 119,-5 119,22 z"
   id="path104"
   inkscape:connector-curvature="0"
   style="fill:#a04000;stroke:none" />
         <path
   d="m 10615,11457 17,44 v 48 l -35,31 -57,9 -84,-22 -84,-13 -88,4 -75,40 -71,22 -57,-31 -5,-57 36,-58 70,-44 115,-26 119,-5 119,22 z"
   id="path106"
   inkscape:connector-curvature="0"
   style="fill:none;stroke:#000000;stroke-width:35;stroke-linecap:round;stroke-linejoin:round" />
        </g>
        <defs
   id="defs113">
         <clipPath
   id="clip_path_2"
   clipPathUnits="userSpaceOnUse">
          <path
   d="m 7521,16345 h 5957 v 2787 H 7521 Z"
   id="path110"
   inkscape:connector-curvature="0" />
         </clipPath>
        </defs>
        <g
   clip-path="url(#clip_path_2)"
   id="g117">
         <path
   d="m 12367,16345 212,2753"
   id="path115"
   inkscape:connector-curvature="0"
   style="fill:none;stroke:#000000;stroke-width:35;stroke-linecap:round;stroke-linejoin:miter" />
        </g>
        <g
   clip-path="url(#clip_path_1)"
   id="g119" />
       </g>
      </g>
     </g>
    </g>
   </g>
  </g>
 </g>
</svg>