<?xml version="1.0" encoding="UTF-8" standalone="no"?>
<svg
   xmlns:ooo="http://xml.openoffice.org/svg/export"
   xmlns:dc="http://purl.org/dc/elements/1.1/"
   xmlns:cc="http://creativecommons.org/ns#"
   xmlns:rdf="http://www.w3.org/1999/02/22-rdf-syntax-ns#"
   xmlns:svg="http://www.w3.org/2000/svg"
   xmlns="http://www.w3.org/2000/svg"
   xmlns:sodipodi="http://sodipodi.sourceforge.net/DTD/sodipodi-0.dtd"
   xmlns:inkscape="http://www.inkscape.org/namespaces/inkscape"
   version="1.2"
   width="190mm"
   height="169.37mm"
   viewBox="0 0 19000 16937"
   preserveAspectRatio="xMidYMid"
   xml:space="preserve"
   id="svg260"
   sodipodi:docname="undrwatr.svg"
   style="fill-rule:evenodd;stroke-width:28.22200012;stroke-linejoin:round"
   inkscape:version="0.92.5 (2060ec1f9f, 2020-04-08)"><metadata
   id="metadata264"><rdf:RDF><cc:Work
       rdf:about=""><dc:format>image/svg+xml</dc:format><dc:type
         rdf:resource="http://purl.org/dc/dcmitype/StillImage" /></cc:Work></rdf:RDF></metadata><sodipodi:namedview
   pagecolor="#ffffff"
   bordercolor="#666666"
   borderopacity="1"
   objecttolerance="10"
   gridtolerance="10"
   guidetolerance="10"
   inkscape:pageopacity="0"
   inkscape:pageshadow="2"
   inkscape:window-width="664"
   inkscape:window-height="487"
   id="namedview262"
   showgrid="false"
   inkscape:zoom="0.2102413"
   inkscape:cx="359.05512"
   inkscape:cy="320.05039"
   inkscape:window-x="0"
   inkscape:window-y="0"
   inkscape:window-maximized="0"
   inkscape:current-layer="svg260" />
 <defs
   class="ClipPathGroup"
   id="defs8">
  <clipPath
   id="presentation_clip_path"
   clipPathUnits="userSpaceOnUse">
   <rect
   x="0"
   y="0"
   width="21000"
   height="29700"
   id="rect2" />
  </clipPath>
  <clipPath
   id="presentation_clip_path_shrink"
   clipPathUnits="userSpaceOnUse">
   <rect
   x="21"
   y="29"
   width="20958"
   height="29641"
   id="rect5" />
  </clipPath>
 </defs>
 <defs
   class="TextShapeIndex"
   id="defs12">
  <g
   ooo:slide="id1"
   ooo:id-list="id3"
   id="g10" />
 </defs>
 <defs
   class="EmbeddedBulletChars"
   id="defs44">
  <g
   id="bullet-char-template-57356"
   transform="matrix(4.8828125e-4,0,0,-4.8828125e-4,0,0)">
   <path
   d="M 580,1141 1163,571 580,0 -4,571 Z"
   id="path14"
   inkscape:connector-curvature="0" />
  </g>
  <g
   id="bullet-char-template-57354"
   transform="matrix(4.8828125e-4,0,0,-4.8828125e-4,0,0)">
   <path
   d="M 8,1128 H 1137 V 0 H 8 Z"
   id="path17"
   inkscape:connector-curvature="0" />
  </g>
  <g
   id="bullet-char-template-10146"
   transform="matrix(4.8828125e-4,0,0,-4.8828125e-4,0,0)">
   <path
   d="M 174,0 602,739 174,1481 1456,739 Z M 1358,739 309,1346 659,739 Z"
   id="path20"
   inkscape:connector-curvature="0" />
  </g>
  <g
   id="bullet-char-template-10132"
   transform="matrix(4.8828125e-4,0,0,-4.8828125e-4,0,0)">
   <path
   d="M 2015,739 1276,0 H 717 l 543,543 H 174 v 393 h 1086 l -543,545 h 557 z"
   id="path23"
   inkscape:connector-curvature="0" />
  </g>
  <g
   id="bullet-char-template-10007"
   transform="matrix(4.8828125e-4,0,0,-4.8828125e-4,0,0)">
   <path
   d="m 0,-2 c -7,16 -16,29 -25,39 l 381,530 c -94,256 -141,385 -141,387 0,25 13,38 40,38 9,0 21,-2 34,-5 21,4 42,12 65,25 l 27,-13 111,-251 280,301 64,-25 24,25 c 21,-10 41,-24 62,-43 C 886,937 835,863 770,784 769,783 710,716 594,584 L 774,223 c 0,-27 -21,-55 -63,-84 l 16,-20 C 717,90 699,76 672,76 641,76 570,178 457,381 L 164,-76 c -22,-34 -53,-51 -92,-51 -42,0 -63,17 -64,51 -7,9 -10,24 -10,44 0,9 1,19 2,30 z"
   id="path26"
   inkscape:connector-curvature="0" />
  </g>
  <g
   id="bullet-char-template-10004"
   transform="matrix(4.8828125e-4,0,0,-4.8828125e-4,0,0)">
   <path
   d="M 285,-33 C 182,-33 111,30 74,156 52,228 41,333 41,471 c 0,78 14,145 41,201 34,71 87,106 158,106 53,0 88,-31 106,-94 l 23,-176 c 8,-64 28,-97 59,-98 l 735,706 c 11,11 33,17 66,17 42,0 63,-15 63,-46 V 965 c 0,-36 -10,-64 -30,-84 L 442,47 C 390,-6 338,-33 285,-33 Z"
   id="path29"
   inkscape:connector-curvature="0" />
  </g>
  <g
   id="bullet-char-template-9679"
   transform="matrix(4.8828125e-4,0,0,-4.8828125e-4,0,0)">
   <path
   d="M 813,0 C 632,0 489,54 383,161 276,268 223,411 223,592 c 0,181 53,324 160,431 106,107 249,161 430,161 179,0 323,-54 432,-161 108,-107 162,-251 162,-431 0,-180 -54,-324 -162,-431 C 1136,54 992,0 813,0 Z"
   id="path32"
   inkscape:connector-curvature="0" />
  </g>
  <g
   id="bullet-char-template-8226"
   transform="matrix(4.8828125e-4,0,0,-4.8828125e-4,0,0)">
   <path
   d="m 346,457 c -73,0 -137,26 -191,78 -54,51 -81,114 -81,188 0,73 27,136 81,188 54,52 118,78 191,78 73,0 134,-26 185,-79 51,-51 77,-114 77,-187 0,-75 -25,-137 -76,-188 -50,-52 -112,-78 -186,-78 z"
   id="path35"
   inkscape:connector-curvature="0" />
  </g>
  <g
   id="bullet-char-template-8211"
   transform="matrix(4.8828125e-4,0,0,-4.8828125e-4,0,0)">
   <path
   d="M -4,459 H 1135 V 606 H -4 Z"
   id="path38"
   inkscape:connector-curvature="0" />
  </g>
  <g
   id="bullet-char-template-61548"
   transform="matrix(4.8828125e-4,0,0,-4.8828125e-4,0,0)">
   <path
   d="m 173,740 c 0,163 58,303 173,419 116,115 255,173 419,173 163,0 302,-58 418,-173 116,-116 174,-256 174,-419 0,-163 -58,-303 -174,-418 C 1067,206 928,148 765,148 601,148 462,206 346,322 231,437 173,577 173,740 Z"
   id="path41"
   inkscape:connector-curvature="0" />
  </g>
 </defs>
 <g
   id="g49"
   transform="translate(-1000,-6381)">
  <g
   id="id2"
   class="Master_Slide">
   <g
   id="bg-id2"
   class="Background" />
   <g
   id="bo-id2"
   class="BackgroundObjects" />
  </g>
 </g>
 <g
   class="SlideGroup"
   id="g258"
   transform="translate(-1000,-6381)">
  <g
   id="g256">
   <g
   id="container-id1">
    <g
   id="id1"
   class="Slide"
   clip-path="url(#presentation_clip_path)">
     <g
   class="Page"
   id="g252">
      <g
   class="Graphic"
   id="g250">
       <g
   id="id3">
        <rect
   class="BoundingBox"
   x="1000"
   y="6381"
   width="19000"
   height="16937"
   id="rect51"
   style="fill:none;stroke:none" />
        <path
   d="m 11708,15875 v -13 l -1,-12 -2,-13 -2,-13 -3,-12 -4,-13 -4,-11 -5,-12 -5,-12 -6,-11 -6,-11 -7,-10 -8,-11 -8,-10 -8,-9 -10,-10 -9,-8 -9,-7 -11,-8 -11,-7 -11,-7 -11,-6 -11,-5 -12,-5 -12,-4 -13,-4 -12,-3 -12,-2 -13,-2 -13,-1 h -13 v 0 h -12 l -13,1 -13,2 -13,2 -12,3 -12,4 -12,4 -12,5 -12,5 -11,6 -10,7 -11,7 -11,8 -10,7 -9,8 -10,10 -7,9 -8,10 -8,11 -7,10 -7,11 -6,11 -5,12 -5,12 -4,11 -3,13 -3,12 -2,13 -2,13 -1,12 v 13 0 13 l 1,13 2,12 2,13 3,12 3,13 4,12 5,11 5,12 6,11 7,11 7,11 8,10 8,10 7,9 10,10 9,8 10,8 11,7 11,7 10,7 11,6 12,5 12,5 12,4 12,4 12,3 13,2 13,2 13,1 h 12 v 0 h 13 l 13,-1 13,-2 12,-2 12,-3 13,-4 12,-4 12,-5 11,-5 11,-6 11,-7 11,-7 11,-7 9,-8 9,-8 10,-10 8,-9 8,-10 8,-10 7,-11 6,-11 6,-11 5,-12 5,-11 4,-12 4,-13 3,-12 2,-13 2,-12 1,-13 z"
   id="path53"
   inkscape:connector-curvature="0"
   style="fill:none;stroke:#00ffff;stroke-width:34;stroke-linecap:round;stroke-linejoin:round" />
        <path
   d="m 11974,15510 c 0,31 -8,61 -23,87 -15,26 -36,48 -62,63 -26,15 -55,23 -85,23 -30,0 -60,-8 -86,-23 -25,-15 -47,-37 -62,-63 -15,-26 -23,-56 -23,-87 0,-30 8,-60 23,-86 15,-26 37,-48 62,-63 26,-16 56,-24 86,-24 30,0 59,8 85,24 26,15 47,37 62,63 15,26 23,56 23,86 z"
   id="path55"
   inkscape:connector-curvature="0"
   style="fill:#40ffff;stroke:none" />
        <path
   d="m 11971,15507 v -9 l -1,-9 -1,-9 -2,-8 -1,-9 -3,-9 -3,-7 -2,-8 -4,-9 -4,-7 -4,-8 -5,-8 -5,-7 -5,-7 -6,-5 -6,-7 -7,-6 -7,-5 -6,-5 -7,-5 -8,-5 -7,-4 -8,-4 -8,-3 -9,-3 -8,-2 -7,-2 -9,-2 h -9 l -8,-1 h -9 v 0 h -9 l -7,1 h -9 l -9,2 -8,2 -8,2 -9,3 -8,3 -7,4 -7,4 -8,5 -7,5 -7,5 -7,5 -7,6 -6,7 -6,5 -4,7 -5,7 -5,8 -4,8 -4,7 -4,9 -3,8 -3,7 -3,9 -1,9 -2,8 -1,9 -1,9 v 9 0 8 l 1,9 1,9 2,8 1,9 3,9 3,7 3,8 4,9 4,7 4,8 5,8 5,7 4,7 6,5 6,7 7,6 7,5 7,5 7,5 8,5 7,4 7,4 8,3 9,3 8,2 8,2 9,2 9,1 h 7 9 v 0 h 9 8 l 9,-1 9,-2 7,-2 8,-2 9,-3 8,-3 8,-4 7,-4 8,-5 7,-5 6,-5 7,-5 7,-6 6,-7 6,-5 5,-7 5,-7 5,-8 4,-8 4,-7 4,-9 2,-8 3,-7 3,-9 1,-9 2,-8 1,-9 1,-9 z"
   id="path57"
   inkscape:connector-curvature="0"
   style="fill:none;stroke:#00ffff;stroke-width:34;stroke-linecap:round;stroke-linejoin:round" />
        <path
   d="m 11568,15328 c 0,21 -5,41 -16,58 -10,18 -25,33 -43,43 -18,10 -39,16 -60,16 -20,0 -41,-6 -59,-16 -18,-10 -33,-25 -44,-43 -10,-17 -16,-37 -16,-58 0,-20 6,-40 16,-58 11,-18 26,-33 44,-43 18,-10 39,-15 59,-15 21,0 42,5 60,15 18,10 33,25 43,43 11,18 16,38 16,58 z"
   id="path59"
   inkscape:connector-curvature="0"
   style="fill:#40ffff;stroke:none" />
        <path
   d="m 11564,15324 v -6 l -1,-6 v -6 l -1,-6 -2,-6 -1,-6 -1,-5 -3,-5 -2,-5 -3,-6 -3,-5 -3,-5 -4,-5 -4,-5 -4,-4 -4,-4 -4,-4 -5,-4 -5,-4 -5,-3 -5,-3 -5,-2 -5,-2 -6,-3 -5,-2 -6,-1 -6,-2 -6,-1 h -6 l -6,-1 h -6 v 0 h -5 l -6,1 h -6 l -6,1 -6,2 -6,1 -5,2 -6,3 -5,2 -6,2 -4,3 -5,3 -5,4 -5,4 -4,4 -4,4 -4,4 -4,5 -4,5 -3,5 -3,5 -3,6 -2,5 -3,5 -2,5 -1,6 -2,6 -1,6 v 6 l -1,6 v 6 0 6 l 1,5 v 6 l 1,6 2,6 1,6 2,5 3,6 2,5 3,6 3,5 3,5 4,4 4,5 4,4 4,4 4,4 5,4 5,4 5,3 4,3 6,3 5,2 6,3 5,2 6,1 6,2 6,1 h 6 l 6,1 h 5 v 0 h 6 l 6,-1 h 6 l 6,-1 6,-2 6,-1 5,-2 6,-3 5,-2 5,-3 5,-3 5,-3 5,-4 5,-4 4,-4 4,-4 4,-4 4,-5 4,-4 3,-5 3,-5 3,-6 2,-5 3,-6 1,-5 1,-6 2,-6 1,-6 v -6 l 1,-5 z"
   id="path61"
   inkscape:connector-curvature="0"
   style="fill:none;stroke:#00ffff;stroke-width:34;stroke-linecap:round;stroke-linejoin:round" />
        <path
   d="m 11481,14450 c 0,21 -6,41 -16,59 -11,19 -26,34 -44,44 -18,10 -38,16 -59,16 -21,0 -41,-6 -60,-16 -18,-10 -33,-25 -43,-44 -10,-18 -16,-38 -16,-59 0,-21 6,-41 16,-59 10,-19 25,-34 43,-44 19,-10 39,-16 60,-16 21,0 41,6 59,16 18,10 33,25 44,44 10,18 16,38 16,59 z"
   id="path63"
   inkscape:connector-curvature="0"
   style="fill:#40ffff;stroke:none" />
        <path
   d="m 11478,14449 v -6 l -1,-6 v -6 l -1,-6 -2,-5 -1,-6 -2,-5 -3,-6 -2,-5 -3,-6 -3,-5 -3,-5 -4,-5 -4,-5 -4,-4 -3,-4 -4,-3 -5,-4 -5,-4 -5,-3 -5,-3 -6,-3 -5,-2 -6,-3 -5,-2 -6,-1 -5,-2 -6,-1 h -6 l -6,-1 h -6 v 0 h -6 l -6,1 h -6 l -6,1 -6,2 -5,1 -5,2 -6,3 -5,2 -6,3 -5,3 -5,3 -5,4 -5,4 -4,3 -4,4 -4,4 -3,5 -4,5 -3,5 -3,5 -3,6 -2,5 -3,6 -2,5 -1,6 -2,5 -1,6 v 6 l -1,6 v 6 0 6 l 1,6 v 6 l 1,6 2,5 1,6 2,5 3,6 2,5 3,6 3,5 3,5 4,5 3,5 4,4 4,4 4,3 5,4 5,4 5,3 5,3 6,3 5,2 6,3 5,2 5,1 6,2 6,1 h 6 l 6,1 h 6 v 0 h 6 l 6,-1 h 6 l 6,-1 5,-2 6,-1 5,-2 6,-3 5,-2 6,-3 5,-3 5,-3 5,-4 5,-4 4,-3 3,-4 4,-4 4,-5 4,-5 3,-5 3,-5 3,-6 2,-5 3,-6 2,-5 1,-6 2,-5 1,-6 v -6 l 1,-6 z"
   id="path65"
   inkscape:connector-curvature="0"
   style="fill:none;stroke:#00ffff;stroke-width:34;stroke-linecap:round;stroke-linejoin:round" />
        <path
   d="m 11576,14266 c 0,16 -4,32 -12,45 -8,14 -19,26 -33,33 -14,8 -29,13 -45,13 -16,0 -32,-5 -45,-13 -14,-7 -26,-19 -34,-33 -7,-13 -12,-29 -12,-45 0,-16 5,-31 12,-45 8,-14 20,-25 34,-33 13,-8 29,-12 45,-12 16,0 31,4 45,12 14,8 25,19 33,33 8,14 12,29 12,45 z"
   id="path67"
   inkscape:connector-curvature="0"
   style="fill:#80ffff;stroke:none" />
        <path
   d="m 11573,14262 v -5 -4 l -1,-5 -1,-4 -1,-4 -1,-5 -2,-4 -2,-5 -2,-4 -2,-4 -2,-4 -2,-4 -2,-4 -3,-4 -4,-3 -3,-3 -3,-4 -4,-2 -4,-2 -4,-3 -4,-2 -4,-2 -4,-2 -5,-2 -4,-2 -5,-1 -3,-1 -5,-1 -5,-1 h -4 -5 v 0 h -5 -4 l -5,1 -5,1 -4,1 -5,1 -4,2 -5,2 -3,2 -4,2 -4,2 -4,3 -4,2 -4,2 -3,4 -3,3 -4,3 -3,4 -2,4 -3,4 -2,4 -2,4 -2,4 -2,5 -2,4 -1,5 -1,4 -1,4 -1,5 v 4 5 0 5 4 l 1,5 1,5 1,4 1,5 2,4 2,5 2,4 2,3 2,4 3,4 2,4 3,4 4,3 3,3 3,4 4,3 4,2 4,3 4,2 4,2 3,2 5,2 4,2 5,1 4,1 5,1 5,1 h 4 5 v 0 h 5 4 l 5,-1 5,-1 3,-1 5,-1 4,-2 5,-2 4,-2 4,-2 4,-2 4,-3 4,-2 4,-3 3,-4 3,-3 4,-3 3,-4 2,-4 2,-4 2,-4 2,-3 2,-4 2,-5 2,-4 1,-5 1,-4 1,-5 1,-5 v -4 z"
   id="path69"
   inkscape:connector-curvature="0"
   style="fill:none;stroke:#80ffff;stroke-width:34;stroke-linecap:round;stroke-linejoin:round" />
        <path
   d="m 11656,14717 v -11 l -1,-11 -2,-11 -2,-11 -2,-11 -3,-11 -4,-10 -4,-11 -5,-10 -5,-10 -6,-10 -6,-9 -6,-9 -7,-9 -8,-8 -8,-8 -8,-8 -9,-7 -9,-7 -9,-5 -10,-6 -10,-5 -10,-5 -11,-4 -10,-4 -11,-3 -11,-2 -11,-2 -11,-2 -12,-1 h -10 v 0 h -11 l -12,1 -11,2 -11,2 -10,2 -11,3 -11,4 -11,4 -10,5 -9,5 -10,6 -10,5 -9,7 -9,7 -8,8 -8,8 -7,8 -7,9 -7,9 -6,9 -6,10 -5,10 -5,10 -4,11 -4,10 -3,11 -2,11 -2,11 -1,11 -1,11 v 11 0 11 l 1,12 1,11 2,11 2,10 3,11 4,11 4,11 5,10 5,9 6,10 6,10 7,9 7,9 7,8 8,8 8,7 9,7 9,7 10,6 10,6 9,5 10,5 11,4 11,4 11,3 10,2 11,1 11,2 12,1 h 11 v 0 h 10 l 12,-1 11,-2 11,-1 11,-2 11,-3 10,-4 11,-4 10,-5 10,-5 10,-6 9,-6 9,-7 9,-7 8,-7 8,-8 8,-8 7,-9 6,-9 6,-10 6,-10 5,-9 5,-10 4,-11 4,-11 3,-11 2,-10 2,-11 2,-11 1,-12 z"
   id="path71"
   inkscape:connector-curvature="0"
   style="fill:none;stroke:#00ffff;stroke-width:34;stroke-linecap:round;stroke-linejoin:round" />
        <path
   d="m 11737,16217 v -9 l -1,-8 -1,-8 -2,-9 -2,-8 -1,-8 -3,-9 -3,-8 -4,-8 -4,-6 -5,-8 -5,-7 -5,-7 -5,-7 -6,-7 -7,-6 -6,-6 -6,-5 -7,-4 -8,-5 -8,-4 -7,-4 -9,-4 -8,-3 -8,-3 -8,-3 -9,-1 -8,-2 -9,-1 -9,-1 h -9 v 0 h -8 l -9,1 -9,1 -8,2 -9,1 -9,3 -8,3 -7,3 -9,4 -7,4 -8,4 -8,5 -7,4 -7,5 -6,6 -6,6 -6,7 -5,7 -5,7 -5,7 -5,8 -4,6 -4,8 -3,8 -3,9 -2,8 -2,8 -2,9 -1,8 -1,8 v 9 0 9 l 1,8 1,9 2,8 2,8 2,8 3,9 3,8 4,8 4,7 5,8 5,6 5,7 5,7 6,7 6,6 6,6 7,5 7,5 8,5 8,4 7,3 9,4 7,3 8,3 9,3 9,1 8,2 9,1 9,1 h 8 v 0 h 9 l 9,-1 9,-1 8,-2 9,-1 8,-3 8,-3 8,-3 9,-4 7,-3 8,-4 8,-5 7,-5 6,-5 6,-6 7,-6 6,-7 5,-7 5,-7 5,-6 5,-8 4,-7 4,-8 3,-8 3,-9 1,-8 2,-8 2,-8 1,-9 1,-8 z"
   id="path73"
   inkscape:connector-curvature="0"
   style="fill:none;stroke:#00ffff;stroke-width:34;stroke-linecap:round;stroke-linejoin:round" />
        <path
   d="m 12834,15467 191,-82 86,-56 74,-61 79,-104 65,-74 120,-126 v 100 l 9,65 36,70 47,65 61,52 56,38 195,88 -528,-18 z"
   id="path75"
   inkscape:connector-curvature="0"
   style="fill:#00c000;stroke:none" />
        <path
   d="m 11933,16330 56,-131 74,-129 77,-108 101,-130 134,-109 121,-96 160,-82 148,-60 269,-70 247,-34 234,4 242,30 196,48 403,82 208,30 182,5 139,-5 138,-16 92,-36 125,-60 416,-230 -238,360 -100,151 -34,109 21,60 44,57 403,443 -403,-148 -191,-61 -135,-17 -129,-31 h -96 l -122,36 -142,47 -178,95 -403,239 -135,56 -173,52 -204,34 -212,9 -234,-16 -299,-53 -269,-65 -182,-60 -173,-79 -122,-69 z"
   id="path77"
   inkscape:connector-curvature="0"
   style="fill:#80ff80;stroke:none" />
        <path
   d="m 11933,16330 56,-131 74,-129 77,-108 101,-130 134,-109 121,-96 160,-82 148,-60 269,-70 247,-34 234,4 242,30 196,48 403,82 208,30 182,5 139,-5 138,-16 92,-36 125,-60 416,-230 -238,360 -100,151 -34,109 21,60 44,57 403,443 -403,-148 -191,-61 -135,-17 -129,-31 h -96 l -122,36 -142,47 -178,95 -403,239 -135,56 -173,52 -204,34 -212,9 -234,-16 -299,-53 -269,-65 -182,-60 -173,-79 -122,-69 z"
   id="path79"
   inkscape:connector-curvature="0"
   style="fill:none;stroke:#00c000;stroke-width:34;stroke-linecap:round;stroke-linejoin:round" />
        <path
   d="m 12456,16114 c 0,19 -5,37 -14,53 -10,16 -23,30 -39,39 -16,9 -34,14 -53,14 -18,0 -37,-5 -53,-14 -16,-9 -29,-23 -38,-39 -10,-16 -14,-34 -14,-53 0,-18 4,-36 14,-52 9,-17 22,-30 38,-39 16,-9 35,-14 53,-14 19,0 37,5 53,14 16,9 29,22 39,39 9,16 14,34 14,52 z"
   id="path81"
   inkscape:connector-curvature="0"
   style="fill:#006000;stroke:none" />
        <path
   d="m 12426,16119 c 0,13 -3,26 -9,38 -6,11 -15,21 -26,27 -11,7 -23,10 -36,10 -12,0 -25,-3 -36,-10 -10,-6 -19,-16 -26,-27 -6,-12 -9,-25 -9,-38 0,-13 3,-26 9,-37 7,-12 16,-21 26,-28 11,-6 24,-10 36,-10 13,0 25,4 36,10 11,7 20,16 26,28 6,11 9,24 9,37 z"
   id="path83"
   inkscape:connector-curvature="0"
   style="fill:#00c000;stroke:none" />
        <path
   d="m 12409,16076 c 0,7 -2,14 -6,20 -3,7 -9,12 -15,15 -6,4 -13,6 -20,6 -7,0 -14,-2 -21,-6 -6,-3 -11,-8 -14,-15 -4,-6 -6,-13 -6,-20 0,-7 2,-14 6,-20 3,-7 8,-12 14,-15 7,-4 14,-6 21,-6 7,0 14,2 20,6 6,3 12,8 15,15 4,6 6,13 6,20 z"
   id="path85"
   inkscape:connector-curvature="0"
   style="fill:#c0ffc0;stroke:none" />
        <path
   d="m 13016,16282 217,95 74,31 86,26 101,17 117,9 169,-18 147,-8 130,17 225,30 -234,-108 -90,-30 -105,-43 -121,-49 -40,-29 -142,17 -117,12 -126,14 h -135 z"
   id="path87"
   inkscape:connector-curvature="0"
   style="fill:#00e000;stroke:none" />
        <path
   d="m 11955,16330 52,22 68,13 87,3 h 79"
   id="path89"
   inkscape:connector-curvature="0"
   style="fill:none;stroke:#00c000;stroke-width:34;stroke-linecap:round;stroke-linejoin:round" />
        <path
   d="m 1052,6715 252,-26 164,-26 134,-39 218,-70 160,-65 164,-69 135,78 143,61 173,65 139,39 138,26 131,12 h 130 178 l 138,-34 99,-18 144,-43 182,-65 134,-69 83,-52 130,78 86,61 131,61 112,47 178,39 217,17 216,-17 160,-34 239,-70 152,-52 125,-61 126,-69 104,69 101,70 146,65 170,61 164,30 165,17 274,-31 221,-52 130,-47 125,-48 100,-47 108,-83 104,83 117,74 100,56 117,43 200,43 h 199 l 216,-22 157,-38 151,-43 118,-66 142,-69 87,-61 30,61 70,69 78,61 100,48 160,43 182,9 h 239 l 147,-14 134,-34 100,-43 108,-52 52,-48 121,-109 161,139 87,61 113,48 95,26 134,26 329,8 230,-8 144,-35 199,-74 182,-86 160,-100 209,56 138,48 104,57 135,60 134,48 174,26 316,-26 212,-48 169,-39 130,-48 169,-87 92,-52 82,44 117,61 104,52 130,48 130,29 147,31 243,35 234,-26 226,-40 173,-60 130,-52 143,-117 139,69 108,61 91,48 148,65 151,38 248,22 203,-4 243,-39 160,-60 144,-70 147,-130 112,87 147,74 135,68 187,48 151,18 239,-18 182,-60 156,-96 139,-104"
   id="path91"
   inkscape:connector-curvature="0"
   style="fill:none;stroke:#00e0e0;stroke-width:34;stroke-linecap:round;stroke-linejoin:round" />
        <path
   d="m 6163,19035 -35,1205 35,1860 70,1140 1205,-21 34,-2944 135,2944 h 1208 l 36,-4353 z"
   id="path93"
   inkscape:connector-curvature="0"
   style="fill:#402000;stroke:none" />
        <path
   d="m 6163,19035 -35,1205 35,1860 70,1140 1205,-21 34,-2944 135,2944 h 1208 l 36,-4353 z"
   id="path95"
   inkscape:connector-curvature="0"
   style="fill:none;stroke:#000000;stroke-width:34;stroke-linecap:round;stroke-linejoin:round" />
        <path
   d="m 4992,18970 v 2163 l 1054,2137 18,-2241 z"
   id="path97"
   inkscape:connector-curvature="0"
   style="fill:#a05000;stroke:none" />
        <path
   d="m 5526,18918 -547,34 1071,2086 837,-56 z"
   id="path99"
   inkscape:connector-curvature="0"
   style="fill:#804000;stroke:none" />
        <path
   d="m 6055,21038 v 2219 l 827,-26 v -2245 z"
   id="path101"
   inkscape:connector-curvature="0"
   style="fill:#603000;stroke:none" />
        <path
   d="m 9687,18979 43,277 v 243 l -60,151 -78,135 -83,95 -65,87 -82,65 -78,60 -91,18 -35,-95 61,-83 74,-121 8,-100 h -69 -56 l -44,-38 -47,-118 -22,-87 v -65 l 39,-143 44,-108 47,-152 57,-269 412,-17 z"
   id="path103"
   inkscape:connector-curvature="0"
   style="fill:#ffc080;stroke:none" />
        <path
   d="m 9687,18979 43,277 v 243 l -60,151 -78,135 -83,95 -65,87 -82,65 -78,60 -91,18 -35,-95 61,-83 74,-121 8,-100 h -69 -56 l -44,-38 -47,-118 -22,-87 v -65 l 39,-143 44,-108 47,-152 57,-269 412,-17 z"
   id="path105"
   inkscape:connector-curvature="0"
   style="fill:none;stroke:#402000;stroke-width:34;stroke-linecap:round;stroke-linejoin:round" />
        <path
   d="m 9085,18805 12,195 117,26 h 230 l 213,-13 138,-30 57,-13 v -191 z"
   id="path107"
   inkscape:connector-curvature="0"
   style="fill:#ffffff;stroke:none" />
        <path
   d="m 9085,18805 12,195 117,26 h 230 l 213,-13 138,-30 57,-13 v -191 z"
   id="path109"
   inkscape:connector-curvature="0"
   style="fill:none;stroke:#402000;stroke-width:34;stroke-linecap:round;stroke-linejoin:round" />
        <path
   d="m 6974,13360 -101,113 -823,707 360,3580 2211,57 187,-3789 -734,-524 -104,-114 -476,291 z"
   id="path111"
   inkscape:connector-curvature="0"
   style="fill:#c0c0c0;stroke:none" />
        <path
   d="m 7008,13070 -30,464 524,369 482,-369 -48,-464 z"
   id="path113"
   inkscape:connector-curvature="0"
   style="fill:#ffa040;stroke:none" />
        <path
   d="m 7008,13070 -30,464 524,369 482,-369 -48,-464 z"
   id="path115"
   inkscape:connector-curvature="0"
   style="fill:none;stroke:#402000;stroke-width:34;stroke-linecap:round;stroke-linejoin:round" />
        <path
   d="m 6970,13347 528,334 -299,434 -330,-629 z"
   id="path117"
   inkscape:connector-curvature="0"
   style="fill:#e0e0e0;stroke:none" />
        <path
   d="m 6970,13347 528,334 -299,434 -330,-629 z"
   id="path119"
   inkscape:connector-curvature="0"
   style="fill:none;stroke:#402000;stroke-width:34;stroke-linecap:round;stroke-linejoin:round" />
        <path
   d="m 7992,13360 -494,325 312,464 273,-645 z"
   id="path121"
   inkscape:connector-curvature="0"
   style="fill:#e0e0e0;stroke:none" />
        <path
   d="m 7992,13360 -494,325 312,464 273,-645 z"
   id="path123"
   inkscape:connector-curvature="0"
   style="fill:none;stroke:#402000;stroke-width:34;stroke-linecap:round;stroke-linejoin:round" />
        <path
   d="m 6891,13469 -399,268 -178,92 -243,104 -302,22 -109,47 -69,61 -48,99 -35,131 -21,129 -230,1908 -108,385 v 313 l 208,1136 156,680 130,27 86,25 169,13 152,-22 v 417 l 21,148 79,99 83,56 108,39 225,35 212,30 300,39 494,35 v -2268 l -52,-1005 -152,-433 -78,-321 -74,-295 -64,-334 -44,-390 -13,-273 -26,-256 -65,-299 z"
   id="path125"
   inkscape:connector-curvature="0"
   style="fill:#603000;stroke:none" />
        <path
   d="m 6891,13469 -399,268 -178,92 -243,104 -302,22 -109,47 -69,61 -48,99 -35,131 -21,129 -230,1908 -108,385 v 313 l 208,1136 156,680 130,27 86,25 169,13 152,-22 v 417 l 21,148 79,99 83,56 108,39 225,35 212,30 300,39 494,35 v -2268 l -52,-1005 -152,-433 -78,-321 -74,-295 -64,-334 -44,-390 -13,-273 -26,-256 -65,-299 z"
   id="path127"
   inkscape:connector-curvature="0"
   style="fill:none;stroke:#402000;stroke-width:34;stroke-linecap:round;stroke-linejoin:round" />
        <path
   d="m 8049,13469 399,268 182,92 238,104 308,22 103,47 70,61 47,99 36,131 25,129 256,1804 78,385 v 417 l 52,798 26,979 -142,57 -234,9 h -144 l -282,-36 -22,-411 -30,-516 -78,433 -48,546 v 417 l -99,195 -160,156 -226,26 -260,73 h -364 l -876,57 131,-2094 385,-723 78,-313 117,-412 100,-446 52,-543 -52,-537 65,-265 35,-229 78,-299 z"
   id="path129"
   inkscape:connector-curvature="0"
   style="fill:#603000;stroke:none" />
        <path
   d="m 8049,13469 399,268 182,92 238,104 308,22 103,47 70,61 47,99 36,131 25,129 256,1804 78,385 v 417 l 52,798 26,979 -142,57 -234,9 h -144 l -282,-36 -22,-411 -30,-516 -78,433 -48,546 v 417 l -99,195 -160,156 -226,26 -260,73 h -364 l -876,57 131,-2094 385,-723 78,-313 117,-412 100,-446 52,-543 -52,-537 65,-265 35,-229 78,-299 z"
   id="path131"
   inkscape:connector-curvature="0"
   style="fill:none;stroke:#402000;stroke-width:34;stroke-linecap:round;stroke-linejoin:round" />
        <path
   d="m 5621,18900 -17,178 -40,109 -43,103 -74,191 -34,100 v 65 l 48,65 160,126 135,108 90,35 83,-48 65,-56 117,-113 -9,-74 95,-104 70,-104 -48,-95 -69,-91 -48,-100 -22,-90 -69,-205 z"
   id="path133"
   inkscape:connector-curvature="0"
   style="fill:#ffc080;stroke:none" />
        <path
   d="m 5621,18900 -17,178 -40,109 -43,103 -74,191 -34,100 v 65 l 48,65 160,126 135,108 90,35 83,-48 65,-56 117,-113 -9,-74 95,-104 70,-104 -48,-95 -69,-91 -48,-100 -22,-90 -69,-205 z"
   id="path135"
   inkscape:connector-curvature="0"
   style="fill:none;stroke:#402000;stroke-width:34;stroke-linecap:round;stroke-linejoin:round" />
        <path
   d="m 5821,19569 108,-27 39,65 26,66 13,60 21,156 v 147 l -134,35 -17,-243 -9,-95 -22,-78 z"
   id="path137"
   inkscape:connector-curvature="0"
   style="fill:#603000;stroke:none" />
        <path
   d="m 5543,18848 -13,118 91,30 104,21 h 96 l 108,-17 108,-34 9,-79 -160,13 h -139 l -126,-29 z"
   id="path139"
   inkscape:connector-curvature="0"
   style="fill:#ffffff;stroke:none" />
        <path
   d="m 5543,18848 -13,118 91,30 104,21 h 96 l 108,-17 108,-34 9,-79 -160,13 h -139 l -126,-29 z"
   id="path141"
   inkscape:connector-curvature="0"
   style="fill:none;stroke:#402000;stroke-width:34;stroke-linecap:round;stroke-linejoin:round" />
        <path
   d="m 6028,15221 100,229 -156,979 -104,261 h 52 l 108,928 v 854 l 22,442"
   id="path143"
   inkscape:connector-curvature="0"
   style="fill:none;stroke:#402000;stroke-width:34;stroke-linecap:round;stroke-linejoin:round" />
        <path
   d="m 8963,17487 v -723 l -26,-516 -69,-637 -109,-261 109,-182"
   id="path145"
   inkscape:connector-curvature="0"
   style="fill:none;stroke:#402000;stroke-width:34;stroke-linecap:round;stroke-linejoin:round" />
        <path
   d="m 6462,13755 -13,164 -22,178 -30,87 325,65 -338,295 91,290 213,412 125,451 100,442 182,407 247,282 112,130"
   id="path147"
   inkscape:connector-curvature="0"
   style="fill:none;stroke:#402000;stroke-width:34;stroke-linecap:round;stroke-linejoin:round" />
        <path
   d="m 8556,13798 -131,430 -259,-31 356,247 -83,261 -48,246 -17,295 -91,451 -74,260 -117,282 -174,295 -216,273 -217,268 -195,156"
   id="path149"
   inkscape:connector-curvature="0"
   style="fill:none;stroke:#402000;stroke-width:34;stroke-linecap:round;stroke-linejoin:round" />
        <path
   d="m 7397,17875 c 0,20 -5,39 -15,57 -10,17 -25,32 -42,42 -17,10 -37,15 -57,15 -20,0 -40,-5 -58,-15 -17,-10 -31,-25 -41,-42 -10,-18 -16,-37 -16,-57 0,-20 6,-40 16,-58 10,-17 24,-31 41,-42 18,-10 38,-15 58,-15 20,0 40,5 57,15 17,11 32,25 42,42 10,18 15,38 15,58 z"
   id="path151"
   inkscape:connector-curvature="0"
   style="fill:#201000;stroke:none" />
        <path
   d="m 7394,17873 v -6 l -1,-6 v -5 l -1,-5 -2,-6 -1,-5 -2,-6 -2,-5 -3,-6 -1,-5 -3,-5 -4,-5 -3,-4 -4,-5 -4,-3 -4,-4 -4,-4 -5,-4 -4,-3 -5,-4 -5,-3 -5,-2 -6,-3 -4,-2 -6,-2 -5,-1 -6,-2 -6,-1 h -5 l -6,-1 h -6 v 0 h -6 l -6,1 h -4 l -6,1 -6,2 -5,1 -6,2 -5,2 -6,3 -5,2 -5,3 -5,4 -4,3 -4,4 -4,4 -4,4 -4,3 -4,5 -3,4 -4,5 -3,5 -2,5 -3,6 -2,5 -2,6 -1,5 -2,6 -1,5 v 5 l -1,6 v 6 0 6 l 1,6 v 5 l 1,6 2,6 1,5 2,5 2,5 3,6 2,5 3,5 4,5 3,4 4,5 4,4 4,4 4,4 4,4 4,3 5,3 5,3 5,2 6,3 5,2 6,2 5,1 6,2 6,1 h 4 l 6,1 h 6 v 0 h 6 l 6,-1 h 5 l 6,-1 6,-2 5,-1 6,-2 4,-2 6,-3 5,-2 5,-3 5,-3 4,-3 5,-4 4,-4 4,-4 4,-4 4,-5 3,-4 4,-5 3,-5 1,-5 3,-6 2,-5 2,-5 1,-5 2,-6 1,-6 v -5 l 1,-6 z"
   id="path153"
   inkscape:connector-curvature="0"
   style="fill:none;stroke:#201000;stroke-width:34;stroke-linecap:round;stroke-linejoin:round" />
        <path
   d="m 8174,17875 c 0,20 -6,39 -16,57 -10,17 -24,32 -42,42 -17,10 -37,15 -57,15 -20,0 -40,-5 -57,-15 -18,-10 -32,-25 -42,-42 -10,-18 -15,-37 -15,-57 0,-20 5,-40 15,-58 10,-17 24,-31 42,-42 17,-10 37,-15 57,-15 20,0 40,5 57,15 18,11 32,25 42,42 10,18 16,38 16,58 z"
   id="path155"
   inkscape:connector-curvature="0"
   style="fill:#201000;stroke:none" />
        <path
   d="m 8171,17873 v -6 l -1,-6 v -5 l -1,-5 -2,-6 -1,-5 -2,-6 -2,-5 -3,-6 -2,-5 -3,-5 -4,-5 -3,-4 -4,-5 -4,-3 -4,-4 -4,-4 -5,-4 -3,-3 -5,-4 -5,-3 -5,-2 -6,-3 -5,-2 -6,-2 -5,-1 -6,-2 -6,-1 h -5 l -5,-1 h -6 v 0 h -6 l -6,1 h -5 l -6,1 -6,2 -5,1 -6,2 -5,2 -5,3 -5,2 -5,3 -5,4 -4,3 -5,4 -4,4 -4,4 -4,3 -4,5 -3,4 -4,5 -3,5 -2,5 -3,6 -1,5 -2,6 -1,5 -2,6 -1,5 v 5 l -1,6 v 6 0 6 l 1,6 v 5 l 1,6 2,6 1,5 2,5 1,5 3,6 2,5 3,5 4,5 3,4 4,5 4,4 4,4 4,4 5,4 4,3 5,3 5,3 5,2 5,3 5,2 6,2 5,1 6,2 6,1 h 5 l 6,1 h 6 v 0 h 6 l 5,-1 h 5 l 6,-1 6,-2 5,-1 6,-2 5,-2 6,-3 5,-2 5,-3 5,-3 3,-3 5,-4 4,-4 4,-4 4,-4 4,-5 3,-4 4,-5 3,-5 2,-5 3,-6 2,-5 2,-5 1,-5 2,-6 1,-6 v -5 l 1,-6 z"
   id="path157"
   inkscape:connector-curvature="0"
   style="fill:none;stroke:#201000;stroke-width:34;stroke-linecap:round;stroke-linejoin:round" />
        <path
   d="m 7376,18859 c 0,21 -6,40 -16,58 -10,17 -25,32 -43,42 -17,10 -37,15 -58,15 -20,0 -40,-5 -58,-15 -18,-10 -33,-25 -43,-42 -10,-18 -15,-37 -15,-58 0,-20 5,-39 15,-57 10,-17 25,-32 43,-42 18,-10 38,-15 58,-15 21,0 41,5 58,15 18,10 33,25 43,42 10,18 16,37 16,57 z"
   id="path159"
   inkscape:connector-curvature="0"
   style="fill:#201000;stroke:none" />
        <path
   d="m 7373,18857 v -6 l -1,-6 v -5 l -1,-6 -2,-6 -1,-4 -2,-6 -3,-5 -2,-6 -3,-5 -3,-5 -3,-5 -4,-4 -4,-5 -4,-4 -4,-4 -4,-4 -5,-3 -4,-3 -5,-4 -5,-3 -6,-2 -5,-3 -6,-2 -5,-2 -6,-1 -6,-2 -6,-1 h -6 l -5,-1 h -6 v 0 h -6 l -6,1 h -6 l -6,1 -6,2 -6,1 -5,2 -6,2 -4,3 -6,2 -5,3 -5,4 -5,3 -5,3 -4,4 -4,4 -4,4 -4,5 -4,4 -3,5 -3,5 -2,5 -2,6 -3,5 -2,6 -1,4 -2,6 -1,6 v 5 l -1,6 v 6 0 6 l 1,6 v 5 l 1,6 2,5 1,5 2,6 3,5 2,6 2,5 3,5 3,5 4,4 4,5 4,4 4,4 4,3 5,4 5,3 5,4 5,3 6,2 4,3 6,2 5,2 6,1 6,2 6,1 h 6 l 6,1 h 6 v 0 h 6 l 5,-1 h 6 l 6,-1 6,-2 6,-1 5,-2 6,-2 5,-3 6,-2 5,-3 5,-4 4,-3 5,-4 4,-3 4,-4 4,-4 4,-5 4,-4 3,-5 3,-5 3,-5 2,-6 3,-5 2,-6 1,-5 2,-5 1,-6 v -5 l 1,-6 z"
   id="path161"
   inkscape:connector-curvature="0"
   style="fill:none;stroke:#201000;stroke-width:34;stroke-linecap:round;stroke-linejoin:round" />
        <path
   d="m 8151,18859 c 0,21 -5,40 -16,58 -10,17 -24,32 -42,42 -18,10 -38,15 -58,15 -21,0 -41,-5 -59,-15 -17,-10 -32,-25 -42,-42 -11,-18 -16,-37 -16,-58 0,-20 5,-39 16,-57 10,-17 25,-32 42,-42 18,-10 38,-15 59,-15 20,0 40,5 58,15 18,10 32,25 42,42 11,18 16,37 16,57 z"
   id="path163"
   inkscape:connector-curvature="0"
   style="fill:#201000;stroke:none" />
        <path
   d="m 8148,18857 v -6 l -1,-6 v -5 l -1,-6 -2,-6 -1,-4 -2,-6 -3,-5 -2,-6 -3,-5 -3,-5 -3,-5 -3,-4 -4,-5 -4,-4 -4,-4 -4,-4 -5,-3 -5,-3 -5,-4 -5,-3 -6,-2 -5,-3 -6,-2 -4,-2 -6,-1 -6,-2 -6,-1 h -6 l -6,-1 h -6 v 0 h -6 l -6,1 h -6 l -5,1 -6,2 -6,1 -5,2 -6,2 -5,3 -6,2 -5,3 -5,4 -5,3 -5,3 -3,4 -4,4 -4,4 -4,5 -4,4 -3,5 -3,5 -3,5 -2,6 -3,5 -2,6 -1,4 -2,6 -1,6 v 5 l -1,6 v 6 0 6 l 1,6 v 5 l 1,6 2,5 1,5 2,6 3,5 2,6 3,5 3,5 3,5 4,4 4,5 4,4 4,4 3,3 5,4 5,3 5,4 5,3 6,2 5,3 6,2 5,2 6,1 6,2 5,1 h 6 l 6,1 h 6 v 0 h 6 l 6,-1 h 6 l 6,-1 6,-2 6,-1 4,-2 6,-2 5,-3 6,-2 5,-3 5,-4 5,-3 5,-4 4,-3 4,-4 4,-4 4,-5 3,-4 3,-5 3,-5 3,-5 2,-6 3,-5 2,-6 1,-5 2,-5 1,-6 v -5 l 1,-6 z"
   id="path165"
   inkscape:connector-curvature="0"
   style="fill:none;stroke:#201000;stroke-width:34;stroke-linecap:round;stroke-linejoin:round" />
        <path
   d="m 7333,13933 52,47 -4,61 -17,92 -31,190 -12,121 3,100 9,100 22,69 30,78 22,43 43,48 48,48 56,52 78,43 65,30 87,22 91,30 100,13 h 135 212 l 177,-39 87,-26 60,-25 57,-31 52,-35 60,-47 53,-56 48,-83 156,-251 264,-369 200,-191 77,-69 70,-74 60,-74 57,-86 143,-213 -143,-386 -282,226 -113,213 -17,56 -35,69 -47,65 -65,74 -83,91 -199,299 -156,334 -39,65 -44,61 -38,69 -61,65 -52,30 -52,18 -100,13 h -82 -100 -78 l -87,-35 -64,-30 -61,-35 -27,-26 -4,-22 v -52 l 4,-91 -17,-78 -39,-69 -34,-39 -65,-83 -66,-73 -60,-74 -35,-61 -22,-52 74,-69 -152,-243 z"
   id="path167"
   inkscape:connector-curvature="0"
   style="fill:#0000ff;stroke:none" />
        <path
   d="m 6557,11878 -43,-83 -22,-43 -34,-9 h -61 l -17,40 17,77 30,100 v 65 56 l 48,74 82,91 z"
   id="path169"
   inkscape:connector-curvature="0"
   style="fill:#ffc080;stroke:none" />
        <path
   d="m 6557,11878 -43,-83 -22,-43 -34,-9 h -61 l -17,40 17,77 30,100 v 65 56 l 48,74 82,91 z"
   id="path171"
   inkscape:connector-curvature="0"
   style="fill:none;stroke:#402000;stroke-width:34;stroke-linecap:round;stroke-linejoin:round" />
        <path
   d="m 8326,11878 48,-78 22,-39 34,-13 h 56 l 22,39 -22,78 -25,99 v 65 l -5,61 -47,70 -83,95 z"
   id="path173"
   inkscape:connector-curvature="0"
   style="fill:#ffc080;stroke:none" />
        <path
   d="m 8326,11878 48,-78 22,-39 34,-13 h 56 l 22,39 -22,78 -25,99 v 65 l -5,61 -47,70 -83,95 z"
   id="path175"
   inkscape:connector-curvature="0"
   style="fill:none;stroke:#402000;stroke-width:34;stroke-linecap:round;stroke-linejoin:round" />
        <path
   d="m 7234,10976 -139,48 -121,65 -105,73 -91,83 -65,104 -65,148 -65,225 -26,160 -17,131 -18,151 v 130 152 l 9,121 26,104 39,113 52,112 83,109 113,108 126,100 133,78 131,52 99,22 117,17 135,-22 112,-34 113,-48 108,-65 148,-100 91,-95 74,-113 61,-90 38,-113 26,-113 18,-117 v -130 -178 l -14,-117 -12,-117 -22,-117 -30,-135 -35,-143 -52,-121 -48,-83 -65,-95 -83,-82 -86,-65 -83,-44 -81,-39 -96,-30 -217,-30 z"
   id="path177"
   inkscape:connector-curvature="0"
   style="fill:#ffc080;stroke:none" />
        <path
   d="m 7234,10976 -139,48 -121,65 -105,73 -91,83 -65,104 -65,148 -65,225 -26,160 -17,131 -18,151 v 130 152 l 9,121 26,104 39,113 52,112 83,109 113,108 126,100 133,78 131,52 99,22 117,17 135,-22 112,-34 113,-48 108,-65 148,-100 91,-95 74,-113 61,-90 38,-113 26,-113 18,-117 v -130 -178 l -14,-117 -12,-117 -22,-117 -30,-135 -35,-143 -52,-121 -48,-83 -65,-95 -83,-82 -86,-65 -83,-44 -81,-39 -96,-30 -217,-30 z"
   id="path179"
   inkscape:connector-curvature="0"
   style="fill:none;stroke:#402000;stroke-width:34;stroke-linecap:round;stroke-linejoin:round" />
        <path
   d="m 6562,11934 -70,-304 -17,-185 4,-166 5,-112 17,-147 56,-334 26,290 40,-164 69,-169 -31,199 27,126 43,-243 30,-122 52,-138 48,-96 82,-108 -18,204 9,104 31,86 39,4 43,-38 26,-61 39,-113 27,-126 25,-103 31,-126 43,-113 13,178 43,135 39,190 35,-100 26,-104 v -69 -86 l 39,-153 26,139 26,100 48,126 30,142 35,187 12,-169 53,-234 12,-138 57,246 26,-113 18,-112 47,-199 -17,190 17,91 35,117 35,118 43,225 21,-139 18,-126 9,-86 v -139 l 56,156 18,130 29,104 23,217 43,-96 22,-190 30,190 26,378 34,-117 31,-92 4,-99 17,-312 48,620 v 243 l -9,251 -26,260 v 104 l -74,-70 -51,-229 -66,-165 -29,-117 -74,-108 -87,-95 -126,-74 -148,-52 -99,-13 -99,69 -74,-47 -82,-40 -126,31 -113,38 -112,70 -92,65 -65,78 -57,103 -16,118 -65,91 -44,178 v 151 z"
   id="path181"
   inkscape:connector-curvature="0"
   style="fill:#201000;stroke:none" />
        <path
   d="m 6817,12860 h 17 l 16,-1 16,-2 16,-2 17,-4 16,-3 15,-5 15,-5 15,-6 15,-7 14,-7 14,-7 13,-8 13,-9 12,-10 11,-10 12,-10 10,-10 10,-12 9,-11 8,-13 8,-12 7,-12 6,-13 5,-14 5,-14 3,-12 3,-14 2,-15 2,-14 v -13"
   id="path183"
   inkscape:connector-curvature="0"
   style="fill:none;stroke:#402000;stroke-width:34;stroke-linecap:round;stroke-linejoin:round" />
        <path
   d="m 7727,12589 v 13 l 2,15 2,14 3,14 4,13 4,14 6,13 6,14 7,12 8,13 8,12 8,12 10,11 11,11 11,10 12,10 12,10 13,9 13,8 14,7 15,7 13,7 16,6 15,5 15,5 16,4 17,3 16,2 16,2 16,1 h 17"
   id="path185"
   inkscape:connector-curvature="0"
   style="fill:none;stroke:#402000;stroke-width:34;stroke-linecap:round;stroke-linejoin:round" />
        <path
   d="m 7671,12455 9,13 v 21 l -13,22 -30,13 h -39 -44 -21 l -48,12 -47,5"
   id="path187"
   inkscape:connector-curvature="0"
   style="fill:none;stroke:#402000;stroke-width:34;stroke-linecap:round;stroke-linejoin:round" />
        <path
   d="m 7204,12455 -5,17 v 17 l 17,22 26,13 h 39 40 30 l 38,12 49,5"
   id="path189"
   inkscape:connector-curvature="0"
   style="fill:none;stroke:#402000;stroke-width:34;stroke-linecap:round;stroke-linejoin:round" />
        <path
   d="m 7614,12833 c 0,29 -7,57 -21,81 -15,25 -35,45 -60,60 -24,14 -52,21 -81,21 -28,0 -56,-7 -81,-21 -24,-15 -45,-35 -59,-60 -14,-24 -22,-52 -22,-81 0,-28 8,-56 22,-81 14,-25 35,-45 59,-59 25,-14 53,-22 81,-22 29,0 57,8 81,22 25,14 45,34 60,59 14,25 21,53 21,81 z"
   id="path191"
   inkscape:connector-curvature="0"
   style="fill:#201000;stroke:none" />
        <path
   d="m 7610,12831 v -8 -7 l -1,-9 -1,-8 -2,-8 -2,-8 -3,-8 -3,-7 -4,-7 -3,-7 -5,-7 -4,-7 -5,-7 -5,-6 -6,-6 -6,-6 -6,-6 -5,-5 -7,-4 -7,-4 -7,-5 -7,-3 -8,-4 -7,-3 -8,-3 -7,-2 -8,-2 -8,-1 -9,-1 -8,-1 h -8 v 0 h -8 l -7,1 -9,1 -8,1 -8,2 -8,2 -8,3 -7,3 -7,4 -7,3 -7,5 -7,4 -7,4 -6,5 -6,6 -6,6 -6,6 -5,6 -4,7 -4,7 -5,7 -3,7 -4,7 -3,7 -3,8 -2,8 -2,8 -1,8 -1,9 -1,7 v 8 0 8 l 1,8 1,9 1,8 2,8 2,7 3,8 3,7 4,8 3,7 5,7 4,7 4,7 5,5 6,6 6,6 6,6 6,5 7,5 7,4 7,5 7,3 7,4 7,3 8,3 8,2 8,2 h 8 l 9,1 7,1 h 8 v 0 h 8 l 8,-1 9,-1 h 8 l 8,-2 7,-2 8,-3 7,-3 8,-4 7,-3 7,-5 7,-4 7,-5 5,-5 6,-6 6,-6 6,-6 5,-5 5,-7 4,-7 5,-7 3,-7 4,-8 3,-7 3,-8 2,-7 2,-8 1,-8 1,-9 v -8 z"
   id="path193"
   inkscape:connector-curvature="0"
   style="fill:none;stroke:#ffa040;stroke-width:34;stroke-linecap:round;stroke-linejoin:round" />
        <path
   d="m 7290,12996 v 4 l 1,4 1,4 1,4 2,4 2,4 2,4 3,4 4,4 3,3 5,4 4,3 5,3 4,3 5,3 6,3 6,2 6,3 7,3 7,2 7,2 7,2 7,2 7,1 8,2 8,1 8,1 8,1 h 8 l 8,1 h 8 8 8 l 9,-1 h 8 l 8,-1 7,-1 8,-1 8,-2 7,-1 8,-2 7,-2 7,-2 7,-2 6,-3 6,-3 6,-2 6,-3 5,-3 5,-3 5,-3 5,-3 4,-4 3,-4 4,-3 3,-4 2,-4 2,-4 1,-4 1,-4 1,-4 1,-4 v -4"
   id="path195"
   inkscape:connector-curvature="0"
   style="fill:none;stroke:#ffa040;stroke-width:34;stroke-linecap:round;stroke-linejoin:round" />
        <path
   d="m 7234,11497 -44,86 -38,31 -61,30 -53,22 -68,34 -48,31 -31,34 -30,61 -22,43 -61,83 52,-44 48,-39 40,-39 34,-47 47,-27 48,-25 52,-18 44,-17 34,-30 31,-31 8,-30 z"
   id="path197"
   inkscape:connector-curvature="0"
   style="fill:#402000;stroke:none" />
        <path
   d="m 7637,11497 43,86 40,31 60,30 52,22 73,34 48,31 26,34 31,61 26,43 56,83 -52,-44 -48,-39 -35,-39 -34,-47 -48,-27 -47,-25 -52,-18 -44,-17 -35,-30 -30,-31 -13,-30 z"
   id="path199"
   inkscape:connector-curvature="0"
   style="fill:#402000;stroke:none" />
        <path
   d="m 7163,12022 c 0,14 -3,28 -10,40 -7,12 -17,22 -30,29 -12,7 -25,11 -39,11 -14,0 -28,-4 -40,-11 -12,-7 -22,-17 -29,-29 -7,-12 -11,-26 -11,-40 0,-14 4,-27 11,-39 7,-13 17,-23 29,-30 12,-7 26,-10 40,-10 14,0 27,3 39,10 13,7 23,17 30,30 7,12 10,25 10,39 z"
   id="path201"
   inkscape:connector-curvature="0"
   style="fill:#201000;stroke:none" />
        <path
   d="m 7848,12022 c 0,14 -3,28 -10,40 -7,12 -17,22 -29,29 -13,7 -26,11 -40,11 -14,0 -28,-4 -40,-11 -12,-7 -22,-17 -29,-29 -7,-12 -11,-26 -11,-40 0,-14 4,-27 11,-39 7,-13 17,-23 29,-30 12,-7 26,-10 40,-10 14,0 27,3 40,10 12,7 22,17 29,30 7,12 10,25 10,39 z"
   id="path203"
   inkscape:connector-curvature="0"
   style="fill:#201000;stroke:none" />
        <path
   d="m 7550,11159 v -17 l -2,-16 -2,-16 -3,-16 -3,-16 -5,-16 -5,-15 -6,-15 -7,-15 -8,-14 -8,-14 -8,-13 -10,-14 -11,-12 -11,-13 -11,-10 -12,-11 -12,-11 -14,-10 -14,-9 -14,-8 -13,-7 -15,-7 -16,-6 -15,-5 -15,-5 -16,-3 -17,-3 -15,-2 -16,-2 h -17 v 0 h -17 l -15,2 -16,2 -17,3 -15,3 -16,5 -15,5 -16,6 -14,7 -14,7 -14,8 -14,9 -13,10 -12,11 -13,11 -11,10 -11,13 -10,12 -10,14 -9,13 -8,14 -8,14 -7,15 -6,15 -5,15 -4,16 -3,16 -3,16 -2,16 -2,16 v 17 0 16 l 2,16 2,16 3,16 3,16 4,16 5,15 6,15 7,15 8,14 8,14 9,13 10,14 10,12 11,13 11,10 13,11 12,11 13,10 14,9 14,8 14,7 14,7 16,6 15,5 16,5 15,3 17,3 16,2 15,2 h 17 v 0 h 17 l 16,-2 15,-2 17,-3 16,-3 15,-5 15,-5 16,-6 15,-7 13,-7 14,-8 14,-9 14,-10 12,-11 12,-11 11,-10 11,-13 11,-12 10,-14 8,-13 8,-14 8,-14 7,-15 6,-15 5,-15 5,-16 3,-16 3,-16 2,-16 2,-16 z"
   id="path205"
   inkscape:connector-curvature="0"
   style="fill:none;stroke:#00ffff;stroke-width:34;stroke-linecap:round;stroke-linejoin:round" />
        <path
   d="m 7640,10795 c 0,30 -8,60 -23,86 -16,26 -38,47 -65,62 -26,15 -56,23 -87,23 -31,0 -61,-8 -87,-23 -27,-15 -49,-36 -64,-62 -16,-26 -24,-56 -24,-86 0,-30 8,-59 24,-85 15,-26 37,-47 64,-62 26,-15 56,-23 87,-23 31,0 61,8 87,23 27,15 49,36 65,62 15,26 23,55 23,85 z"
   id="path207"
   inkscape:connector-curvature="0"
   style="fill:#40ffff;stroke:none" />
        <path
   d="m 7636,10794 v -9 l -1,-8 -1,-9 -2,-9 -2,-7 -2,-8 -3,-9 -3,-8 -4,-8 -4,-7 -4,-8 -5,-6 -5,-7 -5,-7 -6,-7 -7,-6 -6,-6 -7,-5 -7,-5 -8,-5 -7,-4 -7,-3 -9,-4 -8,-3 -8,-3 -9,-3 -9,-1 -7,-2 -9,-1 -9,-1 h -9 v 0 h -9 l -9,1 -8,1 -8,2 -9,1 -9,3 -8,3 -8,3 -9,4 -6,3 -8,4 -8,5 -7,5 -7,5 -6,6 -7,6 -6,7 -5,7 -4,7 -5,6 -5,8 -4,7 -4,8 -3,8 -3,9 -2,8 -2,7 -2,9 -1,9 -1,8 v 9 0 9 l 1,8 1,8 2,9 2,8 2,8 3,9 3,8 4,8 4,6 5,8 5,7 4,7 5,7 6,7 7,6 6,6 7,5 7,4 8,5 8,4 6,4 9,4 8,3 8,3 9,3 9,1 8,2 8,1 9,1 h 9 v 0 h 9 l 9,-1 9,-1 7,-2 9,-1 9,-3 8,-3 8,-3 9,-4 7,-4 7,-4 8,-5 7,-4 7,-5 6,-6 7,-6 6,-7 5,-7 5,-7 5,-7 4,-8 4,-6 4,-8 3,-8 3,-9 2,-8 2,-8 2,-9 1,-8 1,-8 z"
   id="path209"
   inkscape:connector-curvature="0"
   style="fill:none;stroke:#00ffff;stroke-width:34;stroke-linecap:round;stroke-linejoin:round" />
        <path
   d="m 7233,10611 c 0,20 -5,39 -16,56 -10,17 -25,31 -43,41 -18,10 -39,15 -60,15 -21,0 -41,-5 -59,-15 -18,-10 -33,-24 -44,-41 -10,-17 -16,-36 -16,-56 0,-20 6,-39 16,-56 11,-17 26,-31 44,-41 18,-10 38,-15 59,-15 21,0 42,5 60,15 18,10 33,24 43,41 11,17 16,36 16,56 z"
   id="path211"
   inkscape:connector-curvature="0"
   style="fill:#40ffff;stroke:none" />
        <path
   d="m 7229,10608 v -6 l -1,-6 v -5 l -1,-5 -2,-6 -1,-5 -2,-6 -3,-5 -2,-6 -3,-5 -3,-5 -2,-5 -4,-4 -4,-5 -4,-4 -4,-3 -4,-4 -5,-4 -5,-3 -5,-4 -5,-3 -6,-2 -5,-3 -6,-2 -4,-2 -6,-1 -6,-2 -6,-1 h -6 l -6,-1 h -6 v 0 h -6 l -6,1 h -5 l -6,1 -6,2 -6,1 -5,2 -6,2 -5,3 -6,2 -5,3 -5,4 -5,3 -4,4 -4,4 -4,3 -4,4 -4,5 -4,4 -3,5 -3,5 -3,5 -2,6 -3,5 -2,6 -1,5 -2,6 -1,5 v 5 l -1,6 v 6 0 6 l 1,6 v 5 l 1,6 2,6 1,5 2,5 3,5 2,6 3,5 3,5 3,5 4,4 4,5 4,4 4,4 4,4 4,4 5,3 5,3 5,3 6,2 5,3 6,2 5,2 6,1 6,2 6,1 h 5 l 6,1 h 6 v 0 h 6 l 6,-1 h 6 l 6,-1 6,-2 6,-1 4,-2 6,-2 5,-3 6,-2 5,-3 5,-3 5,-3 5,-4 4,-4 4,-4 4,-4 4,-5 4,-4 2,-5 3,-5 3,-5 2,-6 3,-5 2,-5 1,-5 2,-6 1,-6 v -5 l 1,-6 z"
   id="path213"
   inkscape:connector-curvature="0"
   style="fill:none;stroke:#00ffff;stroke-width:34;stroke-linecap:round;stroke-linejoin:round" />
        <path
   d="m 7142,9733 c 0,21 -6,42 -16,60 -10,18 -25,33 -43,43 -17,11 -37,16 -58,16 -20,0 -40,-5 -58,-16 -18,-10 -32,-25 -43,-43 -10,-18 -15,-39 -15,-60 0,-20 5,-41 15,-59 11,-18 25,-33 43,-44 18,-10 38,-16 58,-16 21,0 41,6 58,16 18,11 33,26 43,44 10,18 16,39 16,59 z"
   id="path215"
   inkscape:connector-curvature="0"
   style="fill:#40ffff;stroke:none" />
        <path
   d="m 7138,9732 v -5 l -1,-6 v -6 l -1,-6 -2,-6 -1,-6 -2,-5 -3,-6 -2,-5 -3,-6 -3,-4 -3,-5 -4,-5 -4,-5 -4,-4 -4,-4 -4,-4 -4,-4 -5,-4 -5,-3 -5,-3 -6,-3 -5,-2 -6,-3 -5,-2 -6,-1 -6,-2 -6,-1 h -5 l -6,-1 h -6 v 0 h -6 l -6,1 h -6 l -6,1 -6,2 -6,1 -5,2 -5,3 -5,2 -6,3 -5,3 -5,3 -5,4 -5,4 -4,4 -4,4 -4,4 -4,5 -4,5 -2,5 -3,4 -3,6 -2,5 -3,6 -2,5 -1,6 -2,6 -1,6 v 6 l -1,6 v 5 0 6 l 1,6 v 6 l 1,6 2,6 1,6 2,5 3,6 2,5 3,5 3,5 2,5 4,5 4,5 4,4 4,4 4,4 5,4 5,4 5,3 5,3 6,3 5,2 5,3 5,1 6,1 6,2 6,1 h 6 l 6,1 h 6 v 0 h 6 l 6,-1 h 5 l 6,-1 6,-2 6,-1 5,-1 6,-3 5,-2 6,-3 5,-3 5,-3 5,-4 4,-4 4,-4 4,-4 4,-4 4,-5 4,-5 3,-5 3,-5 3,-5 2,-5 3,-6 2,-5 1,-6 2,-6 1,-6 v -6 l 1,-6 z"
   id="path217"
   inkscape:connector-curvature="0"
   style="fill:none;stroke:#00ffff;stroke-width:34;stroke-linecap:round;stroke-linejoin:round" />
        <path
   d="m 7241,9552 c 0,15 -4,30 -12,44 -8,13 -20,24 -33,32 -14,8 -30,12 -45,12 -16,0 -32,-4 -46,-12 -13,-8 -25,-19 -33,-32 -8,-14 -12,-29 -12,-44 0,-16 4,-31 12,-45 8,-13 20,-24 33,-32 14,-8 30,-12 46,-12 15,0 31,4 45,12 13,8 25,19 33,32 8,14 12,29 12,45 z"
   id="path219"
   inkscape:connector-curvature="0"
   style="fill:#80ffff;stroke:none" />
        <path
   d="m 7238,9550 v -4 -5 l -1,-4 -1,-5 -1,-4 -1,-4 -2,-5 -2,-4 -2,-4 -2,-4 -2,-4 -3,-3 -2,-3 -3,-3 -4,-4 -3,-3 -2,-3 -4,-3 -4,-2 -4,-3 -4,-2 -4,-2 -4,-2 -5,-2 -4,-1 -5,-1 -4,-1 -5,-1 -5,-1 h -3 -5 v 0 h -5 -4 l -5,1 -5,1 -4,1 -5,1 -4,1 -5,2 -4,2 -4,2 -4,2 -3,3 -4,2 -4,3 -3,3 -3,3 -4,4 -3,3 -2,3 -3,3 -2,4 -2,4 -2,4 -2,4 -2,5 -1,4 -1,4 -1,5 -1,4 v 5 4 0 4 4 l 1,4 1,5 1,4 1,4 2,5 2,4 2,4 2,4 2,4 3,3 2,4 3,3 4,4 3,3 3,2 4,3 4,2 3,3 4,2 4,2 4,2 5,2 4,1 5,1 4,1 5,1 5,1 h 4 5 v 0 h 5 3 l 5,-1 5,-1 4,-1 5,-1 4,-1 5,-2 4,-2 4,-2 4,-2 4,-3 4,-2 4,-3 2,-2 3,-3 4,-4 3,-3 2,-4 3,-3 2,-4 2,-4 2,-4 2,-4 2,-5 1,-4 1,-4 1,-5 1,-4 v -4 z"
   id="path221"
   inkscape:connector-curvature="0"
   style="fill:none;stroke:#80ffff;stroke-width:34;stroke-linecap:round;stroke-linejoin:round" />
        <path
   d="m 7312,10005 v -11 l -1,-11 -2,-11 -2,-11 -2,-10 -3,-11 -4,-11 -4,-10 -5,-10 -5,-9 -5,-10 -7,-9 -6,-9 -6,-9 -8,-8 -8,-8 -8,-7 -9,-7 -9,-6 -9,-7 -9,-5 -10,-5 -10,-5 -10,-4 -11,-4 -10,-3 -11,-2 -11,-2 -11,-2 -11,-1 h -10 v 0 h -11 l -11,1 -11,2 -11,2 -11,2 -10,3 -11,4 -10,4 -10,5 -10,5 -9,5 -9,7 -9,6 -9,7 -8,7 -8,8 -8,8 -6,9 -6,9 -7,9 -5,10 -5,9 -5,10 -4,10 -4,11 -3,11 -2,10 -2,11 -2,11 -1,11 v 11 0 10 l 1,11 2,11 2,11 2,11 3,11 4,10 4,10 5,10 5,10 5,10 7,9 6,8 6,9 8,8 8,8 8,8 9,7 9,6 9,6 9,5 10,5 10,5 10,4 11,4 10,3 11,2 11,2 11,2 11,1 h 11 v 0 h 10 l 11,-1 11,-2 11,-2 11,-2 10,-3 11,-4 10,-4 10,-5 10,-5 9,-5 9,-6 9,-6 9,-7 8,-8 8,-8 8,-8 6,-9 6,-8 7,-9 5,-10 5,-10 5,-10 4,-10 4,-10 3,-11 2,-11 2,-11 2,-11 1,-11 z"
   id="path223"
   inkscape:connector-curvature="0"
   style="fill:none;stroke:#00ffff;stroke-width:34;stroke-linecap:round;stroke-linejoin:round" />
        <path
   d="m 7402,11501 v -9 l -1,-9 -1,-9 -2,-8 -2,-9 -2,-9 -3,-7 -3,-8 -4,-9 -3,-7 -5,-8 -5,-8 -5,-7 -5,-7 -6,-5 -7,-7 -6,-6 -7,-5 -7,-5 -7,-5 -8,-5 -7,-4 -9,-4 -8,-3 -8,-3 -9,-2 -8,-2 -8,-1 -9,-1 -9,-1 h -9 v 0 h -9 l -9,1 -8,1 -8,1 -9,2 -9,2 -8,3 -8,3 -9,4 -6,4 -8,5 -8,5 -7,5 -7,5 -6,6 -7,7 -6,5 -4,7 -5,7 -5,8 -5,8 -4,7 -4,9 -3,8 -3,7 -2,9 -2,9 -2,8 -1,9 -1,9 v 9 0 8 l 1,9 1,9 2,8 2,9 2,9 3,7 3,8 4,9 4,7 5,8 5,8 5,7 4,7 6,5 7,7 6,6 7,5 7,5 8,5 8,5 6,4 9,4 8,3 8,3 9,2 9,2 8,2 8,1 9,1 h 9 v 0 h 9 l 9,-1 9,-1 8,-2 8,-2 9,-2 8,-3 8,-3 9,-4 7,-4 8,-5 7,-5 7,-5 7,-5 6,-6 7,-7 6,-5 5,-7 5,-7 5,-8 5,-8 3,-7 4,-9 3,-8 3,-7 2,-9 2,-9 2,-8 1,-9 1,-9 z"
   id="path225"
   inkscape:connector-curvature="0"
   style="fill:none;stroke:#00ffff;stroke-width:34;stroke-linecap:round;stroke-linejoin:round" />
        <path
   d="m 7637,8809 v -13 l -1,-13 -2,-13 -2,-13 -3,-11 -4,-13 -4,-12 -5,-12 -5,-11 -5,-11 -7,-11 -7,-11 -8,-11 -8,-10 -8,-8 -10,-10 -8,-8 -10,-8 -11,-8 -11,-7 -11,-7 -11,-5 -11,-5 -12,-5 -12,-4 -13,-4 -11,-3 -13,-2 -13,-2 -13,-1 h -13 v 0 h -12 l -13,1 -13,2 -13,2 -11,3 -13,4 -12,4 -12,5 -12,5 -10,5 -11,7 -11,7 -11,8 -10,8 -9,8 -9,10 -8,8 -8,10 -8,11 -7,11 -7,11 -6,11 -5,11 -4,12 -4,12 -4,13 -3,11 -2,13 -2,13 -1,13 v 13 0 12 l 1,13 2,13 2,13 3,11 4,13 4,12 4,12 5,12 6,10 7,11 7,11 8,11 8,10 8,9 9,9 9,8 10,8 11,8 11,7 11,7 10,6 12,5 12,4 12,4 13,4 11,3 13,2 13,2 13,1 h 12 v 0 h 13 l 13,-1 13,-2 13,-2 11,-3 13,-4 12,-4 12,-4 11,-5 11,-6 11,-7 11,-7 11,-8 10,-8 8,-8 10,-9 8,-9 8,-10 8,-11 7,-11 7,-11 5,-10 5,-12 5,-12 4,-12 4,-13 3,-11 2,-13 2,-13 1,-13 z"
   id="path227"
   inkscape:connector-curvature="0"
   style="fill:none;stroke:#00ffff;stroke-width:34;stroke-linecap:round;stroke-linejoin:round" />
        <path
   d="m 7214,8446 c 0,30 -7,60 -22,86 -15,26 -37,47 -63,62 -26,15 -55,23 -85,23 -30,0 -59,-8 -85,-23 -26,-15 -48,-36 -63,-62 -15,-26 -23,-56 -23,-86 0,-30 8,-59 23,-85 15,-26 37,-47 63,-62 26,-15 55,-23 85,-23 30,0 59,8 85,23 26,15 48,36 63,62 15,26 22,55 22,85 z"
   id="path229"
   inkscape:connector-curvature="0"
   style="fill:#40ffff;stroke:none" />
        <path
   d="m 7211,8445 v -9 l -1,-8 -1,-9 -1,-8 -1,-8 -3,-8 -3,-9 -3,-8 -4,-8 -4,-7 -4,-8 -5,-6 -5,-7 -5,-7 -6,-7 -6,-6 -7,-6 -6,-5 -7,-5 -7,-5 -8,-3 -7,-4 -8,-4 -8,-3 -8,-3 -8,-3 -8,-1 -9,-2 -9,-1 -8,-1 h -9 v 0 h -8 l -8,1 -9,1 -9,2 -8,1 -8,3 -9,3 -7,3 -8,4 -7,4 -8,3 -7,5 -7,5 -7,5 -7,6 -5,6 -6,7 -5,7 -5,7 -5,6 -4,8 -4,7 -4,8 -3,8 -3,9 -3,8 -1,8 -2,8 -1,9 -1,8 v 9 0 9 l 1,8 1,8 2,9 1,8 3,8 3,9 3,8 4,8 4,7 4,7 5,7 5,7 5,7 6,7 5,6 7,6 7,5 7,5 7,4 8,4 7,4 8,4 7,3 9,3 8,3 8,1 9,2 9,1 8,1 h 8 v 0 h 9 l 8,-1 9,-1 9,-2 8,-1 8,-3 8,-3 8,-3 8,-4 7,-4 8,-4 7,-4 7,-5 6,-5 7,-6 6,-6 6,-7 5,-7 5,-7 5,-7 4,-7 4,-7 4,-8 3,-8 3,-9 3,-8 1,-8 1,-9 1,-8 1,-8 z"
   id="path231"
   inkscape:connector-curvature="0"
   style="fill:none;stroke:#00ffff;stroke-width:34;stroke-linecap:round;stroke-linejoin:round" />
        <path
   d="m 7510,8264 c 0,21 -5,41 -15,60 -10,18 -25,33 -42,43 -17,11 -37,16 -57,16 -20,0 -40,-5 -58,-16 -17,-10 -31,-25 -41,-43 -10,-19 -16,-39 -16,-60 0,-21 6,-41 16,-59 10,-18 24,-33 41,-44 18,-10 38,-16 58,-16 20,0 40,6 57,16 17,11 32,26 42,44 10,18 15,38 15,59 z"
   id="path233"
   inkscape:connector-curvature="0"
   style="fill:#40ffff;stroke:none" />
        <path
   d="m 7507,8262 v -6 l -1,-6 v -6 l -1,-5 -2,-6 -1,-6 -2,-5 -2,-6 -3,-5 -1,-6 -3,-5 -4,-5 -3,-5 -4,-5 -4,-3 -4,-4 -4,-4 -5,-4 -4,-4 -5,-3 -5,-3 -5,-3 -6,-2 -4,-3 -6,-2 -5,-1 -6,-2 -6,-1 h -5 l -6,-1 h -6 v 0 h -6 l -6,1 h -4 l -6,1 -6,2 -5,1 -6,2 -5,3 -6,2 -5,3 -5,3 -5,3 -4,4 -4,4 -4,4 -4,4 -4,3 -4,5 -3,5 -4,5 -3,5 -2,6 -3,5 -2,6 -2,5 -1,6 -2,6 -1,5 v 6 l -1,6 v 6 0 6 l 1,6 v 6 l 1,6 2,6 1,6 2,4 2,6 3,5 2,6 3,5 4,5 3,5 4,5 4,4 4,4 4,4 4,4 4,3 5,3 5,3 5,3 6,2 5,3 6,2 5,1 6,2 6,1 h 4 l 6,1 h 6 v 0 h 6 l 6,-1 h 5 l 6,-1 6,-2 5,-1 6,-2 4,-3 6,-2 5,-3 5,-3 5,-3 4,-3 5,-4 4,-4 4,-4 4,-4 4,-5 3,-5 4,-5 3,-5 1,-6 3,-5 2,-6 2,-4 1,-6 2,-6 1,-6 v -6 l 1,-6 z"
   id="path235"
   inkscape:connector-curvature="0"
   style="fill:none;stroke:#00ffff;stroke-width:34;stroke-linecap:round;stroke-linejoin:round" />
        <path
   d="m 7606,7384 c 0,21 -6,42 -16,60 -11,18 -26,33 -44,43 -18,11 -38,16 -59,16 -21,0 -42,-5 -60,-16 -18,-10 -33,-25 -43,-43 -11,-18 -16,-39 -16,-60 0,-20 5,-41 16,-59 10,-18 25,-33 43,-44 18,-10 39,-15 60,-15 21,0 41,5 59,15 18,11 33,26 44,44 10,18 16,39 16,59 z"
   id="path237"
   inkscape:connector-curvature="0"
   style="fill:#40ffff;stroke:none" />
        <path
   d="m 7602,7382 v -5 l -1,-6 v -6 l -1,-6 -2,-6 -1,-6 -2,-5 -3,-6 -2,-5 -3,-6 -3,-4 -3,-5 -4,-5 -4,-5 -4,-4 -4,-4 -4,-4 -5,-4 -4,-4 -5,-3 -5,-3 -6,-3 -5,-2 -6,-3 -5,-2 -6,-1 -6,-1 -6,-1 h -6 l -5,-1 h -6 v 0 h -6 l -6,1 h -6 l -6,1 -6,1 -6,1 -5,2 -6,3 -4,2 -6,3 -5,3 -5,3 -5,4 -5,4 -4,4 -4,4 -4,4 -4,5 -4,5 -3,5 -3,4 -2,6 -2,5 -3,6 -2,5 -1,6 -2,6 -1,6 v 6 l -1,6 v 5 0 6 l 1,6 v 6 l 1,6 2,6 1,6 2,5 3,6 2,5 2,6 3,4 3,5 4,5 4,5 4,4 4,4 4,4 5,4 5,4 5,3 5,3 6,3 4,2 6,3 5,2 6,1 6,1 6,1 h 6 l 6,1 h 6 v 0 h 6 l 5,-1 h 6 l 6,-1 6,-1 6,-1 5,-2 6,-3 5,-2 6,-3 5,-3 5,-3 4,-4 5,-4 4,-4 4,-4 4,-4 4,-5 4,-5 3,-5 3,-4 3,-6 2,-5 3,-6 2,-5 1,-6 2,-6 1,-6 v -6 l 1,-6 z"
   id="path239"
   inkscape:connector-curvature="0"
   style="fill:none;stroke:#00ffff;stroke-width:34;stroke-linecap:round;stroke-linejoin:round" />
        <path
   d="m 7445,7202 c 0,15 -4,30 -11,44 -8,13 -19,24 -33,32 -13,8 -29,12 -44,12 -16,0 -31,-4 -44,-12 -14,-8 -25,-19 -33,-32 -7,-14 -12,-29 -12,-44 0,-16 5,-31 12,-45 8,-13 19,-24 33,-32 13,-8 28,-12 44,-12 15,0 31,4 44,12 14,8 25,19 33,32 7,14 11,29 11,45 z"
   id="path241"
   inkscape:connector-curvature="0"
   style="fill:#80ffff;stroke:none" />
        <path
   d="m 7441,7201 v -4 -5 l -1,-4 -1,-5 -1,-4 v -4 l -1,-5 -2,-4 -2,-4 -2,-4 -2,-4 -3,-2 -2,-4 -3,-3 -3,-4 -3,-3 -4,-3 -3,-3 -4,-2 -3,-3 -4,-2 -4,-2 -4,-2 -4,-2 -4,-1 -4,-1 -4,-1 -5,-1 -4,-1 h -5 -4 v 0 h -4 -5 l -4,1 -5,1 -4,1 -4,1 -5,1 -3,2 -4,2 -4,2 -4,2 -3,3 -4,2 -3,3 -4,3 -3,3 -3,4 -3,3 -2,4 -3,2 -2,4 -2,4 -2,4 -2,4 -1,5 -1,4 -1,4 -1,5 -1,4 v 5 4 0 4 5 l 1,3 1,5 1,4 1,4 1,5 2,4 2,4 2,4 2,4 3,3 2,4 3,3 3,4 3,3 4,3 3,2 4,2 3,3 4,2 4,2 4,2 3,2 5,1 4,1 4,1 5,1 4,1 h 5 4 v 0 h 4 5 l 4,-1 5,-1 4,-1 4,-1 4,-1 4,-2 4,-2 4,-2 4,-2 3,-3 4,-2 3,-2 4,-3 3,-3 3,-4 3,-3 2,-4 3,-3 2,-4 2,-4 2,-4 2,-4 1,-5 v -4 l 1,-4 1,-5 1,-3 v -5 z"
   id="path243"
   inkscape:connector-curvature="0"
   style="fill:none;stroke:#80ffff;stroke-width:34;stroke-linecap:round;stroke-linejoin:round" />
        <path
   d="m 7624,7647 v -11 l -1,-11 -2,-11 -2,-10 -2,-11 -3,-11 -4,-11 -3,-10 -5,-9 -5,-10 -5,-10 -7,-9 -6,-9 -7,-9 -8,-8 -8,-7 -7,-8 -9,-7 -9,-6 -9,-7 -10,-5 -10,-5 -9,-5 -10,-4 -11,-3 -11,-3 -11,-2 -11,-2 -10,-2 -11,-1 h -11 v 0 h -11 l -11,1 -10,2 -11,2 -11,2 -11,3 -11,3 -9,4 -10,5 -10,5 -10,5 -9,7 -9,6 -8,7 -8,8 -8,7 -8,8 -7,9 -6,9 -7,9 -5,10 -5,10 -4,9 -4,10 -4,11 -3,11 -2,11 -2,10 -2,11 -1,11 v 11 0 11 l 1,10 2,11 2,11 2,11 3,11 4,11 4,9 4,10 5,10 5,10 7,9 6,9 7,8 8,8 8,8 8,8 8,7 9,6 9,7 10,5 10,4 10,5 9,4 11,4 11,3 11,2 11,2 10,2 11,1 h 11 v 0 h 11 l 11,-1 10,-2 11,-2 11,-2 11,-3 11,-4 10,-4 9,-5 10,-4 10,-5 9,-7 9,-6 9,-7 7,-8 8,-8 8,-8 7,-8 6,-9 7,-9 5,-10 5,-10 5,-10 3,-9 4,-11 3,-11 2,-11 2,-11 2,-11 1,-10 z"
   id="path245"
   inkscape:connector-curvature="0"
   style="fill:none;stroke:#00ffff;stroke-width:34;stroke-linecap:round;stroke-linejoin:round" />
        <path
   d="m 7441,9152 v -9 l -1,-9 -1,-9 -1,-8 -1,-9 -3,-9 -3,-7 -3,-8 -4,-9 -4,-7 -4,-8 -5,-8 -5,-7 -5,-6 -6,-6 -6,-7 -7,-6 -6,-5 -7,-5 -7,-5 -8,-5 -7,-4 -8,-4 -8,-3 -8,-3 -8,-2 -8,-1 -9,-2 -9,-1 -8,-1 h -9 v 0 h -8 l -8,1 -9,1 -9,2 -8,1 -8,2 -9,3 -7,3 -8,4 -7,4 -8,5 -7,5 -7,5 -7,5 -7,6 -5,7 -6,6 -5,6 -5,7 -5,8 -4,8 -4,7 -4,9 -3,8 -3,7 -3,9 -1,9 -2,8 -1,9 -1,9 v 9 0 8 l 1,9 1,9 2,8 1,9 3,9 3,8 3,7 4,9 4,7 4,8 5,8 5,7 5,7 6,5 5,7 7,6 7,5 7,5 7,5 8,5 7,4 8,4 7,3 9,3 8,2 8,2 9,2 9,1 8,1 h 8 v 0 h 9 l 8,-1 9,-1 9,-2 8,-2 8,-2 8,-3 8,-3 8,-4 7,-4 8,-5 7,-5 7,-5 6,-5 7,-6 6,-7 6,-5 5,-7 5,-7 5,-8 4,-8 4,-7 4,-9 3,-7 3,-8 3,-9 1,-9 1,-8 1,-9 1,-9 z"
   id="path247"
   inkscape:connector-curvature="0"
   style="fill:none;stroke:#00ffff;stroke-width:34;stroke-linecap:round;stroke-linejoin:round" />
       </g>
      </g>
     </g>
    </g>
   </g>
  </g>
 </g>
</svg>