<?xml version="1.0" encoding="UTF-8" standalone="no"?>
<svg
   xmlns:ooo="http://xml.openoffice.org/svg/export"
   xmlns:dc="http://purl.org/dc/elements/1.1/"
   xmlns:cc="http://creativecommons.org/ns#"
   xmlns:rdf="http://www.w3.org/1999/02/22-rdf-syntax-ns#"
   xmlns:svg="http://www.w3.org/2000/svg"
   xmlns="http://www.w3.org/2000/svg"
   xmlns:sodipodi="http://sodipodi.sourceforge.net/DTD/sodipodi-0.dtd"
   xmlns:inkscape="http://www.inkscape.org/namespaces/inkscape"
   version="1.2"
   width="91.059998mm"
   height="96.129997mm"
   viewBox="0 0 9105.9998 9612.9997"
   preserveAspectRatio="xMidYMid"
   xml:space="preserve"
   id="svg161"
   sodipodi:docname="worried.svg"
   style="fill-rule:evenodd;stroke-width:28.22200012;stroke-linejoin:round"
   inkscape:version="0.92.5 (2060ec1f9f, 2020-04-08)"><metadata
   id="metadata165"><rdf:RDF><cc:Work
       rdf:about=""><dc:format>image/svg+xml</dc:format><dc:type
         rdf:resource="http://purl.org/dc/dcmitype/StillImage" /></cc:Work></rdf:RDF></metadata><sodipodi:namedview
   pagecolor="#ffffff"
   bordercolor="#666666"
   borderopacity="1"
   objecttolerance="10"
   gridtolerance="10"
   guidetolerance="10"
   inkscape:pageopacity="0"
   inkscape:pageshadow="2"
   inkscape:window-width="664"
   inkscape:window-height="487"
   id="namedview163"
   showgrid="false"
   inkscape:zoom="0.2102413"
   inkscape:cx="172.08189"
   inkscape:cy="181.64409"
   inkscape:window-x="0"
   inkscape:window-y="0"
   inkscape:window-maximized="0"
   inkscape:current-layer="svg161" />
 <defs
   class="ClipPathGroup"
   id="defs8">
  <clipPath
   id="presentation_clip_path"
   clipPathUnits="userSpaceOnUse">
   <rect
   x="0"
   y="0"
   width="21000"
   height="29700"
   id="rect2" />
  </clipPath>
  <clipPath
   id="presentation_clip_path_shrink"
   clipPathUnits="userSpaceOnUse">
   <rect
   x="21"
   y="29"
   width="20958"
   height="29641"
   id="rect5" />
  </clipPath>
 </defs>
 <defs
   class="TextShapeIndex"
   id="defs12">
  <g
   ooo:slide="id1"
   ooo:id-list="id3"
   id="g10" />
 </defs>
 <defs
   class="EmbeddedBulletChars"
   id="defs44">
  <g
   id="bullet-char-template-57356"
   transform="matrix(4.8828125e-4,0,0,-4.8828125e-4,0,0)">
   <path
   d="M 580,1141 1163,571 580,0 -4,571 Z"
   id="path14"
   inkscape:connector-curvature="0" />
  </g>
  <g
   id="bullet-char-template-57354"
   transform="matrix(4.8828125e-4,0,0,-4.8828125e-4,0,0)">
   <path
   d="M 8,1128 H 1137 V 0 H 8 Z"
   id="path17"
   inkscape:connector-curvature="0" />
  </g>
  <g
   id="bullet-char-template-10146"
   transform="matrix(4.8828125e-4,0,0,-4.8828125e-4,0,0)">
   <path
   d="M 174,0 602,739 174,1481 1456,739 Z M 1358,739 309,1346 659,739 Z"
   id="path20"
   inkscape:connector-curvature="0" />
  </g>
  <g
   id="bullet-char-template-10132"
   transform="matrix(4.8828125e-4,0,0,-4.8828125e-4,0,0)">
   <path
   d="M 2015,739 1276,0 H 717 l 543,543 H 174 v 393 h 1086 l -543,545 h 557 z"
   id="path23"
   inkscape:connector-curvature="0" />
  </g>
  <g
   id="bullet-char-template-10007"
   transform="matrix(4.8828125e-4,0,0,-4.8828125e-4,0,0)">
   <path
   d="m 0,-2 c -7,16 -16,29 -25,39 l 381,530 c -94,256 -141,385 -141,387 0,25 13,38 40,38 9,0 21,-2 34,-5 21,4 42,12 65,25 l 27,-13 111,-251 280,301 64,-25 24,25 c 21,-10 41,-24 62,-43 C 886,937 835,863 770,784 769,783 710,716 594,584 L 774,223 c 0,-27 -21,-55 -63,-84 l 16,-20 C 717,90 699,76 672,76 641,76 570,178 457,381 L 164,-76 c -22,-34 -53,-51 -92,-51 -42,0 -63,17 -64,51 -7,9 -10,24 -10,44 0,9 1,19 2,30 z"
   id="path26"
   inkscape:connector-curvature="0" />
  </g>
  <g
   id="bullet-char-template-10004"
   transform="matrix(4.8828125e-4,0,0,-4.8828125e-4,0,0)">
   <path
   d="M 285,-33 C 182,-33 111,30 74,156 52,228 41,333 41,471 c 0,78 14,145 41,201 34,71 87,106 158,106 53,0 88,-31 106,-94 l 23,-176 c 8,-64 28,-97 59,-98 l 735,706 c 11,11 33,17 66,17 42,0 63,-15 63,-46 V 965 c 0,-36 -10,-64 -30,-84 L 442,47 C 390,-6 338,-33 285,-33 Z"
   id="path29"
   inkscape:connector-curvature="0" />
  </g>
  <g
   id="bullet-char-template-9679"
   transform="matrix(4.8828125e-4,0,0,-4.8828125e-4,0,0)">
   <path
   d="M 813,0 C 632,0 489,54 383,161 276,268 223,411 223,592 c 0,181 53,324 160,431 106,107 249,161 430,161 179,0 323,-54 432,-161 108,-107 162,-251 162,-431 0,-180 -54,-324 -162,-431 C 1136,54 992,0 813,0 Z"
   id="path32"
   inkscape:connector-curvature="0" />
  </g>
  <g
   id="bullet-char-template-8226"
   transform="matrix(4.8828125e-4,0,0,-4.8828125e-4,0,0)">
   <path
   d="m 346,457 c -73,0 -137,26 -191,78 -54,51 -81,114 -81,188 0,73 27,136 81,188 54,52 118,78 191,78 73,0 134,-26 185,-79 51,-51 77,-114 77,-187 0,-75 -25,-137 -76,-188 -50,-52 -112,-78 -186,-78 z"
   id="path35"
   inkscape:connector-curvature="0" />
  </g>
  <g
   id="bullet-char-template-8211"
   transform="matrix(4.8828125e-4,0,0,-4.8828125e-4,0,0)">
   <path
   d="M -4,459 H 1135 V 606 H -4 Z"
   id="path38"
   inkscape:connector-curvature="0" />
  </g>
  <g
   id="bullet-char-template-61548"
   transform="matrix(4.8828125e-4,0,0,-4.8828125e-4,0,0)">
   <path
   d="m 173,740 c 0,163 58,303 173,419 116,115 255,173 419,173 163,0 302,-58 418,-173 116,-116 174,-256 174,-419 0,-163 -58,-303 -174,-418 C 1067,206 928,148 765,148 601,148 462,206 346,322 231,437 173,577 173,740 Z"
   id="path41"
   inkscape:connector-curvature="0" />
  </g>
 </defs>
 <g
   id="g49"
   transform="translate(-5947,-10043)">
  <g
   id="id2"
   class="Master_Slide">
   <g
   id="bg-id2"
   class="Background" />
   <g
   id="bo-id2"
   class="BackgroundObjects" />
  </g>
 </g>
 <g
   class="SlideGroup"
   id="g159"
   transform="translate(-5947,-10043)">
  <g
   id="g157">
   <g
   id="container-id1">
    <g
   id="id1"
   class="Slide"
   clip-path="url(#presentation_clip_path)">
     <g
   class="Page"
   id="g153">
      <g
   class="Graphic"
   id="g151">
       <g
   id="id3">
        <rect
   class="BoundingBox"
   x="5947"
   y="10043"
   width="9106"
   height="9613"
   id="rect51"
   style="fill:none;stroke:none" />
        <defs
   id="defs56">
         <clipPath
   id="clip_path_1"
   clipPathUnits="userSpaceOnUse">
          <path
   d="m 5947,10047 h 9096 v 9604 H 5947 Z"
   id="path53"
   inkscape:connector-curvature="0" />
         </clipPath>
        </defs>
        <g
   clip-path="url(#clip_path_1)"
   id="g148">
         <path
   d="m 10456,11499 379,388 27,252 31,397 h 106 l 110,-120 53,-225 v -330 l 26,189 27,115 31,110 h 105 l 111,-110 v -137 l 79,-203 27,146 53,141 136,-62 49,-110 v 88 l 168,-88 75,-194 -49,304 -26,115 101,26 31,142 159,-27 106,-256 57,-304 -57,-269 -159,-225 -194,-177 -102,146 -132,-110 -84,-62 -53,62 -137,-36 -26,146 -53,-84 -137,-26 -132,-84 -53,110 -80,-62 -110,-26 -84,26 -22,177 22,22 h -79 l -274,-22 z"
   id="path58"
   inkscape:connector-curvature="0"
   style="fill:#b07000;stroke:none" />
         <path
   d="m 10456,11499 379,388 27,252 31,397 h 106 l 110,-120 53,-225 v -330 l 26,189 27,115 31,110 h 105 l 111,-110 v -137 l 79,-203 27,146 53,141 136,-62 49,-110 v 88 l 168,-88 75,-194 -49,304 -26,115 101,26 31,142 159,-27 106,-256 57,-304 -57,-269 -159,-225 -194,-177 -102,146 -132,-110 -84,-62 -53,62 -137,-36 -26,146 -53,-84 -137,-26 -132,-84 -53,110 -80,-62 -110,-26 -84,26 -22,177 22,22 h -79 l -274,-22 z"
   id="path60"
   inkscape:connector-curvature="0"
   style="fill:none;stroke:#000000;stroke-width:31;stroke-linecap:round;stroke-linejoin:round" />
         <path
   d="m 10862,14221 450,375 79,269 503,1685 181,433 137,216 189,220 217,243 106,401 114,274 322,48 296,217 185,189 190,300 h 1178 l -243,-150 -176,-145 -119,-137 -115,-194 -163,-190 -164,-84 -172,-4 -189,62 -66,-194 -75,-203 -102,-137 -176,-124 -199,-92 -115,-177 -48,-176 -84,-225 -115,-172 -106,-199 -61,-278 -115,-234 -141,-167 -208,-185 -220,-133 -327,-441 234,168 684,194 -194,-203 -199,-283 -251,-255 -287,-177 -388,-176 z"
   id="path62"
   inkscape:connector-curvature="0"
   style="fill:#4080ff;stroke:none" />
         <path
   d="m 10862,14221 450,375 79,269 503,1685 181,433 137,216 189,220 217,243 106,401 114,274 322,48 296,217 185,189 190,300 h 1178 l -243,-150 -176,-145 -119,-137 -115,-194 -163,-190 -164,-84 -172,-4 -189,62 -66,-194 -75,-203 -102,-137 -176,-124 -199,-92 -115,-177 -48,-176 -84,-225 -115,-172 -106,-199 -61,-278 -115,-234 -141,-167 -208,-185 -220,-133 -327,-441 234,168 684,194 -194,-203 -199,-283 -251,-255 -287,-177 -388,-176 z"
   id="path64"
   inkscape:connector-curvature="0"
   style="fill:none;stroke:#000000;stroke-width:31;stroke-linecap:round;stroke-linejoin:round" />
         <path
   d="m 11294,14472 137,80 110,66 80,137 -124,31 -26,216 -9,-71 -58,-163 -44,-40 z"
   id="path66"
   inkscape:connector-curvature="0"
   style="fill:#0020a0;stroke:none" />
         <path
   d="m 11294,14472 137,80 110,66 80,137 -124,31 -26,216 -9,-71 -58,-163 -44,-40 z"
   id="path68"
   inkscape:connector-curvature="0"
   style="fill:none;stroke:#000000;stroke-width:31;stroke-linecap:round;stroke-linejoin:round" />
         <path
   d="m 8078,13237 137,441 234,327 405,256 415,110 27,132 2175,768 -106,-441 -150,-406 -137,-216 -27,-270 71,-432 110,-269 146,-216 243,-137 203,-203 194,-300 110,-242 137,-375 13,-393 -172,-296 -282,-264 -393,-287 -380,-190 -432,-123 -366,-80 -393,-48 -392,9 -367,70 -317,106 -269,159 -314,203 -286,260 -269,353 -80,322 27,371 136,295 164,194 105,300 z"
   id="path70"
   inkscape:connector-curvature="0"
   style="fill:#e0a080;stroke:none" />
         <path
   d="m 8078,13237 137,441 234,327 405,256 415,110 27,132 2175,768 -106,-441 -150,-406 -137,-216 -27,-270 71,-432 110,-269 146,-216 243,-137 203,-203 194,-300 110,-242 137,-375 13,-393 -172,-296 -282,-264 -393,-287 -380,-190 -432,-123 -366,-80 -393,-48 -392,9 -367,70 -317,106 -269,159 -314,203 -286,260 -269,353 -80,322 27,371 136,295 164,194 105,300 z"
   id="path72"
   inkscape:connector-curvature="0"
   style="fill:none;stroke:#000000;stroke-width:31;stroke-linecap:round;stroke-linejoin:round" />
         <path
   d="m 8131,13211 415,-243 264,-27 349,111 247,185 159,132 v 106 l -111,53 -185,-132 -273,-137 242,163 58,106 v 84 h -164 -79 l -57,-106 -49,-137 -185,-110 79,190 49,110 v 53 l -49,79 h -79 l -111,-79 -163,-137 v 84 l 27,106 v 26 l -80,-26 -84,-53 v 110 l -22,106 -141,53 -57,-26 v -133 -163 z"
   id="path74"
   inkscape:connector-curvature="0"
   style="fill:#b07000;stroke:none" />
         <path
   d="m 8131,13211 415,-243 264,-27 349,111 247,185 159,132 v 106 l -111,53 -185,-132 -273,-137 242,163 58,106 v 84 h -164 -79 l -57,-106 -49,-137 -185,-110 79,190 49,110 v 53 l -49,79 h -79 l -111,-79 -163,-137 v 84 l 27,106 v 26 l -80,-26 -84,-53 v 110 l -22,106 -141,53 -57,-26 v -133 -163 z"
   id="path76"
   inkscape:connector-curvature="0"
   style="fill:none;stroke:#000000;stroke-width:31;stroke-linecap:round;stroke-linejoin:round" />
         <path
   d="m 8051,13211 411,-243 269,-27 348,111 239,185 167,132 v 106 l -110,53 -185,-132 -269,-137 238,163 53,106 v 84 h -159 -75 l -57,-106 -53,-137 -194,-110 88,190 48,110 v 53 l -48,79 h -88 l -106,-79 -159,-137 v 84 l 26,106 v 26 l -84,-26 -79,-53 v 110 l -26,106 -137,53 -58,-26 v -133 -163 z"
   id="path78"
   inkscape:connector-curvature="0"
   style="fill:#c08040;stroke:none" />
         <path
   d="m 8051,13211 411,-243 269,-27 348,111 239,185 167,132 v 106 l -110,53 -185,-132 -269,-137 238,163 53,106 v 84 h -159 -75 l -57,-106 -53,-137 -194,-110 88,190 48,110 v 53 l -48,79 h -88 l -106,-79 -159,-137 v 84 l 26,106 v 26 l -84,-26 -79,-53 v 110 l -26,106 -137,53 -58,-26 v -133 -163 z"
   id="path80"
   inkscape:connector-curvature="0"
   style="fill:none;stroke:#000000;stroke-width:31;stroke-linecap:round;stroke-linejoin:round" />
         <path
   d="m 10376,11446 384,388 27,252 31,397 h 110 l 110,-119 49,-225 v -331 l 31,189 26,115 27,110 h 110 l 110,-110 v -137 l 84,-203 22,146 62,141 137,-62 48,-110 v 88 l 172,-88 80,-194 -58,304 -22,115 106,27 18,141 172,-27 106,-256 53,-304 -53,-269 -168,-225 -185,-177 -111,146 -136,-110 -80,-62 -53,62 -141,-36 -26,146 -53,-84 -137,-26 -141,-84 -49,110 -84,-62 -114,-26 -80,26 -26,177 26,22 h -79 l -282,-22 z"
   id="path82"
   inkscape:connector-curvature="0"
   style="fill:#c08040;stroke:none" />
         <path
   d="m 10376,11446 384,388 27,252 31,397 h 110 l 110,-119 49,-225 v -331 l 31,189 26,115 27,110 h 110 l 110,-110 v -137 l 84,-203 22,146 62,141 137,-62 48,-110 v 88 l 172,-88 80,-194 -58,304 -22,115 106,27 18,141 172,-27 106,-256 53,-304 -53,-269 -168,-225 -185,-177 -111,146 -136,-110 -80,-62 -53,62 -141,-36 -26,146 -53,-84 -137,-26 -141,-84 -49,110 -84,-62 -114,-26 -80,26 -26,177 26,22 h -79 l -282,-22 z"
   id="path84"
   inkscape:connector-curvature="0"
   style="fill:none;stroke:#000000;stroke-width:31;stroke-linecap:round;stroke-linejoin:round" />
         <path
   d="m 8638,10308 283,-18 291,71 216,79 313,137 269,66 243,-35 260,35 199,13 150,66"
   id="path86"
   inkscape:connector-curvature="0"
   style="fill:none;stroke:#c08040;stroke-width:31;stroke-linecap:round;stroke-linejoin:round" />
         <path
   d="m 9101,10184 150,97 248,80 172,53 203,26 194,-48 322,48 216,44 194,22 216,102 62,172"
   id="path88"
   inkscape:connector-curvature="0"
   style="fill:none;stroke:#c08040;stroke-width:31;stroke-linecap:round;stroke-linejoin:round" />
         <path
   d="m 8131,11719 -455,327 -92,137 35,132 79,84 155,-44 335,-349 z"
   id="path90"
   inkscape:connector-curvature="0"
   style="fill:#f0f0ff;stroke:none" />
         <path
   d="m 8131,11719 -455,327 -92,137 35,132 79,84 155,-44 335,-349 z"
   id="path92"
   inkscape:connector-curvature="0"
   style="fill:none;stroke:#000000;stroke-width:31;stroke-linecap:round;stroke-linejoin:round" />
         <path
   d="m 8006,12247 c 0,20 -5,40 -16,58 -10,17 -25,32 -43,42 -18,11 -39,16 -59,16 -21,0 -42,-5 -60,-16 -18,-10 -33,-25 -43,-42 -11,-18 -16,-38 -16,-58 0,-21 5,-41 16,-59 10,-17 25,-32 43,-42 18,-11 39,-16 60,-16 20,0 41,5 59,16 18,10 33,25 43,42 11,18 16,38 16,59 z"
   id="path94"
   inkscape:connector-curvature="0"
   style="fill:#009080;stroke:none" />
         <path
   d="m 8003,12244 v -6 l -1,-6 v -5 l -1,-6 -2,-6 -1,-5 -2,-6 -3,-5 -2,-6 -3,-5 -3,-5 -3,-5 -4,-4 -4,-5 -4,-4 -4,-4 -4,-4 -5,-4 -5,-3 -5,-4 -5,-3 -6,-2 -5,-3 -6,-2 -5,-2 -6,-1 -6,-2 -6,-1 h -6 l -6,-1 h -6 v 0 h -6 l -6,1 h -6 l -6,1 -6,2 -6,1 -5,2 -6,2 -5,3 -6,2 -5,3 -5,4 -5,3 -5,4 -4,4 -4,4 -4,4 -4,5 -4,4 -3,5 -3,5 -3,5 -2,6 -3,5 -2,6 -1,5 -2,6 -1,6 v 5 l -1,6 v 6 0 6 l 1,6 v 5 l 1,6 2,6 1,5 2,6 3,5 2,6 3,5 3,5 3,5 4,4 4,5 4,4 4,4 4,4 5,4 5,3 5,4 5,3 6,2 5,3 6,2 5,2 6,1 6,2 6,1 h 6 l 6,1 h 6 v 0 h 6 l 6,-1 h 6 l 6,-1 6,-2 6,-1 5,-2 6,-2 5,-3 6,-2 5,-3 5,-4 5,-3 5,-4 4,-4 4,-4 4,-4 4,-5 4,-4 3,-5 3,-5 3,-5 2,-6 3,-5 2,-6 1,-5 2,-6 1,-6 v -5 l 1,-6 z"
   id="path96"
   inkscape:connector-curvature="0"
   style="fill:none;stroke:#000000;stroke-width:31;stroke-linecap:round;stroke-linejoin:round" />
         <path
   d="m 8215,11622 -40,-44 -40,-17 -44,4 -44,31 -591,388 -18,35 -9,53 18,49 35,40 40,13 57,-13 622,-406 31,-36 5,-39 z"
   id="path98"
   inkscape:connector-curvature="0"
   style="fill:#c08040;stroke:none" />
         <path
   d="m 8215,11622 -40,-44 -40,-17 -44,4 -44,31 -591,388 -18,35 -9,53 18,49 35,40 40,13 57,-13 622,-406 31,-36 5,-39 z"
   id="path100"
   inkscape:connector-curvature="0"
   style="fill:none;stroke:#000000;stroke-width:31;stroke-linecap:round;stroke-linejoin:round" />
         <path
   d="m 8299,11909 -327,300 -282,327 -124,269 40,229 123,150 186,53 317,40 349,-177 h 181 l 145,-66 80,-119 9,-150 z"
   id="path102"
   inkscape:connector-curvature="0"
   style="fill:#e0a080;stroke:none" />
         <path
   d="m 8299,11909 -327,300 -282,327 -124,269 40,229 123,150 186,53 317,40 349,-177 h 181 l 145,-66 80,-119 9,-150 z"
   id="path104"
   inkscape:connector-curvature="0"
   style="fill:none;stroke:#000000;stroke-width:31;stroke-linecap:round;stroke-linejoin:round" />
         <path
   d="m 8568,11719 428,247 83,133 40,132 -18,168 -79,84 -154,26 -177,-57 -145,-137 -111,-163 -26,-137 z"
   id="path106"
   inkscape:connector-curvature="0"
   style="fill:#f0f0ff;stroke:none" />
         <path
   d="m 8568,11719 428,247 83,133 40,132 -18,168 -79,84 -154,26 -177,-57 -145,-137 -111,-163 -26,-137 z"
   id="path108"
   inkscape:connector-curvature="0"
   style="fill:none;stroke:#000000;stroke-width:31;stroke-linecap:round;stroke-linejoin:round" />
         <path
   d="m 8836,12326 c 0,20 -5,39 -16,56 -10,17 -25,31 -42,41 -18,10 -38,15 -58,15 -21,0 -41,-5 -59,-15 -17,-10 -32,-24 -42,-41 -11,-17 -16,-36 -16,-56 0,-20 5,-39 16,-56 10,-17 25,-31 42,-41 18,-10 38,-15 59,-15 20,0 40,5 58,15 17,10 32,24 42,41 11,17 16,36 16,56 z"
   id="path110"
   inkscape:connector-curvature="0"
   style="fill:#009080;stroke:none" />
         <path
   d="m 8833,12324 v -6 l -1,-5 v -6 l -1,-5 -2,-6 -1,-5 -2,-5 -2,-5 -3,-5 -2,-5 -3,-5 -4,-5 -3,-4 -4,-5 -4,-4 -4,-4 -4,-3 -5,-4 -4,-3 -5,-3 -5,-3 -5,-3 -6,-2 -5,-2 -6,-2 -5,-1 -6,-2 -6,-1 h -5 l -6,-1 h -6 v 0 h -6 l -6,1 h -5 l -6,1 -6,2 -5,1 -6,2 -5,2 -6,2 -5,3 -5,3 -5,3 -4,3 -5,4 -4,3 -4,4 -4,4 -4,5 -3,4 -4,5 -3,5 -2,5 -3,5 -2,5 -2,5 -1,5 -2,6 -1,5 v 6 l -1,5 v 6 0 6 l 1,5 v 6 l 1,5 2,6 1,5 2,5 2,5 3,5 2,5 3,5 4,5 3,4 4,5 4,4 4,4 4,3 5,4 4,3 5,3 5,3 5,3 6,2 5,2 6,2 5,1 6,2 6,1 h 5 l 6,1 h 6 v 0 h 6 l 6,-1 h 5 l 6,-1 6,-2 5,-1 6,-2 5,-2 6,-2 5,-3 5,-3 5,-3 4,-3 5,-4 4,-3 4,-4 4,-4 4,-5 3,-4 4,-5 3,-5 2,-5 3,-5 2,-5 2,-5 1,-5 2,-6 1,-5 v -6 l 1,-5 z"
   id="path112"
   inkscape:connector-curvature="0"
   style="fill:none;stroke:#000000;stroke-width:31;stroke-linecap:round;stroke-linejoin:round" />
         <path
   d="m 8391,11631 40,-35 40,-22 44,9 44,26 613,353 13,31 14,48 -18,45 -40,35 -40,13 -48,-9 -649,-375 -26,-31 -9,-35 z"
   id="path114"
   inkscape:connector-curvature="0"
   style="fill:#c08040;stroke:none" />
         <path
   d="m 8391,11631 40,-35 40,-22 44,9 44,26 613,353 13,31 14,48 -18,45 -40,35 -40,13 -48,-9 -649,-375 -26,-31 -9,-35 z"
   id="path116"
   inkscape:connector-curvature="0"
   style="fill:none;stroke:#000000;stroke-width:31;stroke-linecap:round;stroke-linejoin:round" />
         <path
   d="m 8921,14261 2311,485 631,1566 172,185 119,243 168,269 128,203 247,207 141,269 89,247 17,265 230,49 220,88 243,137 172,185 106,216 106,296 H 8978 l -137,-186 -57,-167 -40,-265 -70,-273 -212,-243 -190,84 -194,159 -185,136 -181,265 -146,353 -318,-93 -1058,93 -106,-172 -93,-340 -9,-353 80,-370 159,-336 273,-291 335,-189 -39,-340 79,-278 119,-335 177,-269 189,-150 278,-124 203,-66 216,-322 -26,-543 190,-243 247,-79 z"
   id="path118"
   inkscape:connector-curvature="0"
   style="fill:#4080ff;stroke:none" />
         <path
   d="m 8921,14261 2311,485 631,1566 172,185 119,243 168,269 128,203 247,207 141,269 89,247 17,265 230,49 220,88 243,137 172,185 106,216 106,296 H 8978 l -137,-186 -57,-167 -40,-265 -70,-273 -212,-243 -190,84 -194,159 -185,136 -181,265 -146,353 -318,-93 -1058,93 -106,-172 -93,-340 -9,-353 80,-370 159,-336 273,-291 335,-189 -39,-340 79,-278 119,-335 177,-269 189,-150 278,-124 203,-66 216,-322 -26,-543 190,-243 247,-79 z"
   id="path120"
   inkscape:connector-curvature="0"
   style="fill:none;stroke:#000000;stroke-width:31;stroke-linecap:round;stroke-linejoin:round" />
         <path
   d="m 6600,17556 -300,322 -22,265 22,242 57,80"
   id="path122"
   inkscape:connector-curvature="0"
   style="fill:none;stroke:#0020a0;stroke-width:31;stroke-linecap:round;stroke-linejoin:round" />
         <path
   d="m 8259,17878 119,53 71,57 -98,36 124,39 119,93 -26,-247 194,-247 128,-93 106,-44 h -89 l -189,44 -137,111 31,-155 119,-216 150,-163 -150,79 -185,181 -71,229 v 203 106 l -66,-92 z"
   id="path124"
   inkscape:connector-curvature="0"
   style="fill:#0020a0;stroke:none" />
         <path
   d="m 8259,17878 119,53 71,57 -98,36 124,39 119,93 -26,-247 194,-247 128,-93 106,-44 h -89 l -189,44 -137,111 31,-155 119,-216 150,-163 -150,79 -185,181 -71,229 v 203 106 l -66,-92 z"
   id="path126"
   inkscape:connector-curvature="0"
   style="fill:none;stroke:#000000;stroke-width:31;stroke-linecap:round;stroke-linejoin:round" />
         <path
   d="m 6829,16996 93,-13 84,-67 119,-13"
   id="path128"
   inkscape:connector-curvature="0"
   style="fill:none;stroke:#000000;stroke-width:31;stroke-linecap:round;stroke-linejoin:round" />
         <path
   d="m 8409,14799 66,159 163,150 159,53 225,52 181,53 296,58 335,66 300,93 194,79 225,150 159,203 150,309 106,335 57,340 53,-230 57,-194 40,-282 9,-305 35,-282 5,-362 207,256 93,243 83,216 53,207 27,128 317,247 -260,-286 -57,-217 -146,-463 -287,-414 -145,-248 -203,18 h -163 -230 l -260,-40 h -229 l -173,-83 -273,-67 -375,-13 -512,40 z"
   id="path130"
   inkscape:connector-curvature="0"
   style="fill:#0020a0;stroke:none" />
         <path
   d="m 8409,14799 66,159 163,150 159,53 225,52 181,53 296,58 335,66 300,93 194,79 225,150 159,203 150,309 106,335 57,340 53,-230 57,-194 40,-282 9,-305 35,-282 5,-362 207,256 93,243 83,216 53,207 27,128 317,247 -260,-286 -57,-217 -146,-463 -287,-414 -145,-248 -203,18 h -163 -230 l -260,-40 h -229 l -173,-83 -273,-67 -375,-13 -512,40 z"
   id="path132"
   inkscape:connector-curvature="0"
   style="fill:none;stroke:#0020a0;stroke-width:31;stroke-linecap:round;stroke-linejoin:round" />
         <path
   d="m 8378,14472 71,159 163,155 163,48 221,57 176,53 296,58 339,61 296,98 190,105 198,190 181,177 163,269 124,322 79,366 71,-256 40,-225 4,-273 48,-309 -13,-261 58,-53 92,111 146,159 260,727 305,406 202,296 -216,-406 -141,-128 -234,-666 -150,-459 -278,-419 -154,-243 -199,14 h -167 -230 l -256,-36 h -229 l -176,-88 -270,-66 -379,-13 -507,44 z"
   id="path134"
   inkscape:connector-curvature="0"
   style="fill:#4080ff;stroke:none" />
         <path
   d="m 8378,14472 71,159 163,155 163,48 221,57 176,53 296,58 339,61 296,98 190,105 198,190 181,177 163,269 124,322 79,366 71,-256 40,-225 4,-273 48,-309 -13,-261 58,-53 92,111 146,159 260,727 305,406 202,296 -216,-406 -141,-128 -234,-666 -150,-459 -278,-419 -154,-243 -199,14 h -167 -230 l -256,-36 h -229 l -176,-88 -270,-66 -379,-13 -507,44 z"
   id="path136"
   inkscape:connector-curvature="0"
   style="fill:none;stroke:#000000;stroke-width:31;stroke-linecap:round;stroke-linejoin:round" />
         <path
   d="m 7941,18156 291,-441 111,-296 145,-489 93,-459 84,-485 -14,-323 -26,-295 150,-53 128,-88 88,-133 75,-172 31,-132 4,-88 62,57 66,31 93,31 110,-18 -106,53 -17,93 44,70 97,18 115,-57 66,-119 -40,-177 -79,-128 -309,-185 401,115 203,233 89,27 75,-49 26,-110 -53,-110 -137,-164 -242,-136 -314,-93 283,-9 229,115 234,181 h 79 l 71,-75 -13,-119 -128,-137 -150,-102 -269,-132 -212,-18 -274,67 168,-111 181,-13 194,13 84,93 172,88 h 137 l 39,-70 -8,-97 -89,-93 -229,-159 -238,-84 -340,14 -318,70 -229,115 -216,123 -137,-203 -141,-216 -172,-48 -177,22 -84,97 137,132 80,137 26,137 44,242 -44,164 -48,150 -84,119 -40,145 v 203 l 40,216 53,164 -80,348 -106,380 -110,300 -101,291 -111,189 -132,203 -190,172 -260,195 -216,300 -199,392 -79,274 -57,203 v 194 l -14,203 14,242 70,225 115,141 110,80 137,57 216,22 177,-48 158,-163 111,-221 39,-256 172,-260 203,-225 z"
   id="path138"
   inkscape:connector-curvature="0"
   style="fill:#e0a080;stroke:none" />
         <path
   d="m 7941,18156 291,-441 111,-296 145,-489 93,-459 84,-485 -14,-323 -26,-295 150,-53 128,-88 88,-133 75,-172 31,-132 4,-88 62,57 66,31 93,31 110,-18 -106,53 -17,93 44,70 97,18 115,-57 66,-119 -40,-177 -79,-128 -309,-185 401,115 203,233 89,27 75,-49 26,-110 -53,-110 -137,-164 -242,-136 -314,-93 283,-9 229,115 234,181 h 79 l 71,-75 -13,-119 -128,-137 -150,-102 -269,-132 -212,-18 -274,67 168,-111 181,-13 194,13 84,93 172,88 h 137 l 39,-70 -8,-97 -89,-93 -229,-159 -238,-84 -340,14 -318,70 -229,115 -216,123 -137,-203 -141,-216 -172,-48 -177,22 -84,97 137,132 80,137 26,137 44,242 -44,164 -48,150 -84,119 -40,145 v 203 l 40,216 53,164 -80,348 -106,380 -110,300 -101,291 -111,189 -132,203 -190,172 -260,195 -216,300 -199,392 -79,274 -57,203 v 194 l -14,203 14,242 70,225 115,141 110,80 137,57 216,22 177,-48 158,-163 111,-221 39,-256 172,-260 203,-225 z"
   id="path140"
   inkscape:connector-curvature="0"
   style="fill:none;stroke:#000000;stroke-width:31;stroke-linecap:round;stroke-linejoin:round" />
         <path
   d="m 11497,12849 177,119 233,-53 243,-260 110,-274 -57,-242 -207,-93 -190,79 -141,106 z"
   id="path142"
   inkscape:connector-curvature="0"
   style="fill:#e0a080;stroke:none" />
         <path
   d="m 11497,12849 177,119 233,-53 243,-260 110,-274 -57,-242 -207,-93 -190,79 -141,106 z"
   id="path144"
   inkscape:connector-curvature="0"
   style="fill:none;stroke:#000000;stroke-width:31;stroke-linecap:round;stroke-linejoin:round" />
         <path
   d="m 11426,12836 186,114 242,-48 256,-252 115,-260 -62,-234 -216,-88 -198,75 -146,101 z"
   id="path146"
   inkscape:connector-curvature="0"
   style="fill:#e0a080;stroke:none" />
        </g>
       </g>
      </g>
     </g>
    </g>
   </g>
  </g>
 </g>
</svg>